STARTFONT 2.1
COMMENT 24x24 kanji font
COMMENT from Japanese Industrial Standard, JIS X 9052-1983
COMMENT named "24-dots Matrix Character Patterns for Dot Printer"
COMMENT Added JISX 0213-2000 level 4 glyphs.
COMMENT This file is public domain.
FONT -Misc-Fixed-Medium-R-Normal--24-230-75-75-C-240-JISX0213.2000-2
SIZE 24 75 75
FONTBOUNDINGBOX 24 24 0 -2
STARTPROPERTIES 18
FOUNDRY "Misc"
FAMILY_NAME "Fixed"
WEIGHT_NAME "Medium"
SLANT "R"
SETWIDTH_NAME "Normal"
ADD_STYLE_NAME ""
PIXEL_SIZE 24
POINT_SIZE 230
RESOLUTION_X 75
RESOLUTION_Y 75
SPACING "C"
AVERAGE_WIDTH 240
CHARSET_REGISTRY "JISX0213.2000"
CHARSET_ENCODING "2"
DEFAULT_CHAR 32
FONT_DESCENT 2
FONT_ASCENT 22
COPYRIGHT "from JIS X 9052-1983, by permission to use"
ENDPROPERTIES
CHARS 2445
STARTCHAR DEFAULT_CHAR
ENCODING 32
SWIDTH 1000 0
DWIDTH 24 0
BBX 24 24 0 -2
BITMAP
ffffff
c7f75d
bbf75d
bbfaeb
fbfaeb
f61df7
effaeb
dffaeb
bff75d
83f75d
ffffff
ffffff
ffffff
fff75d
fff75d
fffaeb
fffaeb
fe1df7
fffaeb
fffaeb
fff75d
fff75d
ffffff
ffffff
ENDCHAR
STARTCHAR 2-01-01
ENCODING 8481
SWIDTH 1000 0
DWIDTH 24 0
BBX 24 24 0 -2
BITMAP
000000
000000
000000
000000
000000
020000
038000
030000
070000
060000
06000c
0ffffe
0c0000
180000
100000
200000
400000
000000
000000
000000
000000
000000
000000
000000
ENDCHAR
STARTCHAR 2-01-02
ENCODING 8482
SWIDTH 1000 0
DWIDTH 24 0
BBX 24 24 0 -2
BITMAP
000008
00001c
7ffffe
018000
018000
018000
038000
030000
030000
030060
07fff0
060060
060060
060060
000060
000060
0000e0
0000c0
0000c0
0001c0
000180
000380
003f00
000600
ENDCHAR
STARTCHAR 2-01-03
ENCODING 8483
SWIDTH 1000 0
DWIDTH 24 0
BBX 24 24 0 -2
BITMAP
000000
000006
ffffff
001800
001800
001800
1c180c
181ffe
18180c
18180c
18180c
18180c
1ffffc
18000c
18000c
00000c
00001c
000018
000018
000038
000030
000070
000fe0
0001c0
ENDCHAR
STARTCHAR 2-01-04
ENCODING 8484
SWIDTH 1000 0
DWIDTH 24 0
BBX 24 24 0 -2
BITMAP
00000c
7ffffe
00000c
00020c
00038c
00030c
06060c
01860c
006c0c
00380c
001c0c
00360c
00630c
00c38c
01818c
03018c
0c001c
300018
000038
0001f0
000060
000006
ffffff
000000
ENDCHAR
STARTCHAR 2-01-05
ENCODING 8485
SWIDTH 1000 0
DWIDTH 24 0
BBX 24 24 0 -2
BITMAP
0001c0
000180
000180
00e180
00c180
00c180
00c180
00c180
00c180
00c180
00c180
00c180
00c180
00c180
00c180
00c180
00c780
00d980
07e180
038180
020180
000180
000180
000180
ENDCHAR
STARTCHAR 2-01-06
ENCODING 8486
SWIDTH 1000 0
DWIDTH 24 0
BBX 24 24 0 -2
BITMAP
000040
080070
0600e0
0380c0
01c180
00e300
006200
006400
000800
001800
001800
001800
001800
001800
001800
001800
001800
001800
001800
001800
001800
001800
001800
001800
ENDCHAR
STARTCHAR 2-01-07
ENCODING 8487
SWIDTH 1000 0
DWIDTH 24 0
BBX 24 24 0 -2
BITMAP
000030
fffff8
000030
00e030
00c030
00c030
00c030
00c330
7fffb0
00c030
00c030
00c030
00c030
00c030
00c330
7fffb0
00c012
00c012
00c01a
00c00a
00c00e
00c006
00c007
00c003
ENDCHAR
STARTCHAR 2-01-08
ENCODING 8488
SWIDTH 1000 0
DWIDTH 24 0
BBX 24 24 0 -2
BITMAP
000000
100000
180000
300000
280000
680000
c80000
440000
040000
020000
020000
010000
010000
008000
00c000
006000
003000
001800
000e00
000780
0003f0
0000ff
00001e
000002
ENDCHAR
STARTCHAR 2-01-09
ENCODING 8489
SWIDTH 1000 0
DWIDTH 24 0
BBX 24 24 0 -2
BITMAP
000060
0001f0
000f80
007c00
07e000
786000
006000
006000
006000
006000
006006
ffffff
006000
006000
006000
006000
006000
006000
006000
006004
006004
006006
007ffe
003ffc
ENDCHAR
STARTCHAR 2-01-10
ENCODING 8490
SWIDTH 1000 0
DWIDTH 24 0
BBX 24 24 0 -2
BITMAP
008000
00e000
00c000
00c000
018000
018000
030000
030000
061000
0c1c00
081800
101800
203000
403000
002100
006080
004040
004060
008030
008038
010fd8
1ff81c
0f800c
08000c
ENDCHAR
STARTCHAR 2-01-11
ENCODING 8491
SWIDTH 1000 0
DWIDTH 24 0
BBX 24 24 0 -2
BITMAP
000180
0007c0
043e00
07e000
0600c0
0603e0
061f00
07f200
063200
063210
063238
063260
0632c0
063100
063100
063100
043080
0c3080
0c30c0
083060
183070
10303c
203018
400000
ENDCHAR
STARTCHAR 2-01-12
ENCODING 8492
SWIDTH 1000 0
DWIDTH 24 0
BBX 24 24 0 -2
BITMAP
000030
0001f8
001fc0
01fe00
3e1800
001800
001800
011c04
01dc0e
039c1c
031a38
061a60
0c1a80
181900
211980
41d880
0398c0
031860
061838
0c181f
18180e
201806
401800
001800
ENDCHAR
STARTCHAR 2-01-13
ENCODING 8493
SWIDTH 1000 0
DWIDTH 24 0
BBX 24 24 0 -2
BITMAP
000180
021fc0
03f800
030000
0300c0
03ffe0
0300c0
0300c0
03ffc0
0300c0
0300c0
03ffc0
0300c0
030000
030060
03fff0
060060
060060
060060
0c0060
0c00e0
1800c0
1007c0
200180
ENDCHAR
STARTCHAR 2-01-14
ENCODING 8494
SWIDTH 1000 0
DWIDTH 24 0
BBX 24 24 0 -2
BITMAP
001000
001c00
001800
082060
0ffff0
0c0060
0c0060
0c0060
0c0060
0fffe0
0c0060
0c0000
0c0000
0c0030
0ffff8
0c0030
0c0030
0c0030
0c0030
0c0030
0ffff0
0c0030
0c0000
000000
ENDCHAR
STARTCHAR 2-01-15
ENCODING 8495
SWIDTH 1000 0
DWIDTH 24 0
BBX 24 24 0 -2
BITMAP
0e0000
0c0000
0c0000
0c0000
0c0000
0c0000
0c0000
0c0000
0c0000
0c0000
0c0000
0c0000
0c0000
0c0000
0c0000
0c0000
0c0010
0c0010
0c0010
0c0018
0c0038
0ffff8
07fff0
000000
ENDCHAR
STARTCHAR 2-01-16
ENCODING 8496
SWIDTH 1000 0
DWIDTH 24 0
BBX 24 24 0 -2
BITMAP
0701c0
060180
060180
060180
060180
060180
061980
07fd80
060180
060180
060180
060180
060180
463180
7ff980
603180
603180
603180
603182
603182
603182
7ff183
6031ff
6030fe
ENDCHAR
STARTCHAR 2-01-17
ENCODING 8497
SWIDTH 1000 0
DWIDTH 24 0
BBX 24 24 0 -2
BITMAP
004000
007000
006200
00c180
0080e0
1fff70
0fc030
000000
040080
0600c0
048090
08c108
7feffc
30660c
000000
000060
0ffff0
000000
000000
000000
000000
000018
3ffffc
000000
ENDCHAR
STARTCHAR 2-01-18
ENCODING 8498
SWIDTH 1000 0
DWIDTH 24 0
BBX 24 24 0 -2
BITMAP
001c00
001800
001806
ffffff
006000
006100
00c0c0
008070
1fffb8
0fe018
080018
000000
039ce0
0318c0
0318c0
0318c0
0318c0
0318c0
0318c0
0618c4
0618c4
0c18c6
1818fe
60007c
ENDCHAR
STARTCHAR 2-01-19
ENCODING 8499
SWIDTH 1000 0
DWIDTH 24 0
BBX 24 24 0 -2
BITMAP
001c00
001800
001806
ffffff
020000
0380c0
070030
0ce39c
30c30e
cffff6
00c300
00c300
0ffff0
00c300
00c306
ffffff
01c410
038238
0f0360
3b0180
c30ce0
03f07f
3f801e
0e0006
ENDCHAR
STARTCHAR 2-01-20
ENCODING 8500
SWIDTH 1000 0
DWIDTH 24 0
BBX 24 24 0 -2
BITMAP
001800
001806
ffffff
000000
26ff7c
3c810c
30bd0c
3e817c
30bd0c
3ea57c
30bd0c
30810e
7fffff
c00006
c3ffc4
0300c8
0300c0
03ffc0
0300c0
0300c0
03ffc0
0300c0
0300c6
ffffff
ENDCHAR
STARTCHAR 2-01-21
ENCODING 8501
SWIDTH 1000 0
DWIDTH 24 0
BBX 24 24 0 -2
BITMAP
000200
000380
000300
000600
000600
000c00
001c00
001800
003800
007800
00d800
019800
021800
041800
001800
001800
001800
001800
001800
001800
001800
001800
001800
001800
ENDCHAR
STARTCHAR 2-01-22
ENCODING 8502
SWIDTH 1000 0
DWIDTH 24 0
BBX 24 24 0 -2
BITMAP
000000
000000
000000
000000
000000
001800
001800
003400
003200
006300
00c180
0180c0
030070
06003f
0c001e
300006
c00000
000000
000000
000000
000000
000000
000000
000000
ENDCHAR
STARTCHAR 2-01-23
ENCODING 8503
SWIDTH 1000 0
DWIDTH 24 0
BBX 24 24 0 -2
BITMAP
000000
001c00
001800
001800
001800
003400
003400
003400
006200
006200
004100
00c100
008080
0180c0
010060
020070
04003c
08001f
30000e
c00004
000000
000018
3ffffc
000000
ENDCHAR
STARTCHAR 2-01-24
ENCODING 8504
SWIDTH 1000 0
DWIDTH 24 0
BBX 24 24 0 -2
BITMAP
040000
070000
060006
06ffff
0c0180
0c0180
180180
180180
380180
380180
580180
980180
180180
180180
180180
180180
180180
180180
180180
180180
180180
180180
180f80
180300
ENDCHAR
STARTCHAR 2-01-25
ENCODING 8505
SWIDTH 1000 0
DWIDTH 24 0
BBX 24 24 0 -2
BITMAP
040080
073fc0
060080
060080
0c1080
0c1c80
181880
181880
3818c0
381840
581840
981840
183840
183060
183020
183020
186030
186030
184018
18c018
18801c
19000e
19000f
1a0004
ENDCHAR
STARTCHAR 2-01-26
ENCODING 8506
SWIDTH 1000 0
DWIDTH 24 0
BBX 24 24 0 -2
BITMAP
001800
001800
003400
003200
006300
00c180
0180c0
030070
061c3f
0c181e
301806
c01800
001800
001800
001818
3ffffc
001800
001800
001800
001800
001800
001800
001800
001800
ENDCHAR
STARTCHAR 2-01-27
ENCODING 8507
SWIDTH 1000 0
DWIDTH 24 0
BBX 24 24 0 -2
BITMAP
041000
071c00
061800
061800
0c3000
0c3000
183100
1861c0
386180
38c180
588300
990300
180300
180600
180600
180400
180c20
180810
181818
18100c
1810fc
18ff86
187806
184006
ENDCHAR
STARTCHAR 2-01-28
ENCODING 8508
SWIDTH 1000 0
DWIDTH 24 0
BBX 24 24 0 -2
BITMAP
001800
001800
003400
003200
006300
00c180
0180c0
030070
06003f
0c1c1e
301806
c01800
001800
1c181c
181818
181818
181818
181818
181818
181818
181818
1ffff8
180018
180018
ENDCHAR
STARTCHAR 2-01-29
ENCODING 8509
SWIDTH 1000 0
DWIDTH 24 0
BBX 24 24 0 -2
BITMAP
040600
070600
060d00
060d00
0c1880
0c10c0
183060
182030
38401c
3880cf
593fe6
980000
180000
180030
19fff8
180030
180030
180060
180060
180060
1800c0
1800c0
180180
180180
ENDCHAR
STARTCHAR 2-01-30
ENCODING 8510
SWIDTH 1000 0
DWIDTH 24 0
BBX 24 24 0 -2
BITMAP
042000
073800
063000
063000
0c6018
0c7ffc
184300
18c300
388300
390300
580300
980300
180306
1bffff
180300
180300
180300
180300
180300
180300
180300
180300
180300
180300
ENDCHAR
STARTCHAR 2-01-31
ENCODING 8511
SWIDTH 1000 0
DWIDTH 24 0
BBX 24 24 0 -2
BITMAP
040040
0707e0
060040
061040
0c1c20
0c1820
183030
183018
38601c
38400f
588406
990700
180600
180600
180400
180c00
180c20
180810
180818
18100c
1810fc
18ff86
187806
184006
ENDCHAR
STARTCHAR 2-01-32
ENCODING 8512
SWIDTH 1000 0
DWIDTH 24 0
BBX 24 24 0 -2
BITMAP
041c00
071800
061800
061800
0c1800
0c1806
19ffff
181800
381800
381830
581ff8
981830
181830
183460
183460
1832c0
186180
1861c0
184360
18c630
188c3c
19181f
19200e
1a4006
ENDCHAR
STARTCHAR 2-01-33
ENCODING 8513
SWIDTH 1000 0
DWIDTH 24 0
BBX 24 24 0 -2
BITMAP
040000
070006
06ffff
061800
0c1800
0c1800
181830
181ffc
381830
381830
581830
981a30
181930
1819b0
1819b0
1819b0
181830
181832
18181a
18181a
18187e
18ff8e
187807
184003
ENDCHAR
STARTCHAR 2-01-34
ENCODING 8514
SWIDTH 1000 0
DWIDTH 24 0
BBX 24 24 0 -2
BITMAP
040380
070300
060300
060300
0c0300
0c830c
18fffe
18c30c
38c30c
38c30c
58c30c
98c30c
18c30c
18c30c
18fffc
18c30c
18c30c
18c30c
18c30c
18c30c
18c30c
18c30c
18fffc
18c00c
ENDCHAR
STARTCHAR 2-01-35
ENCODING 8515
SWIDTH 1000 0
DWIDTH 24 0
BBX 24 24 0 -2
BITMAP
040000
07000c
067ffe
060080
0c01c0
0c0180
180300
180300
380740
380730
580f18
981b0c
18330e
186306
188306
190300
180300
180300
180300
180300
180300
180006
19ffff
180000
ENDCHAR
STARTCHAR 2-01-36
ENCODING 8516
SWIDTH 1000 0
DWIDTH 24 0
BBX 24 24 0 -2
BITMAP
040380
070300
060300
060300
0c0300
0c0306
1803ff
180300
380300
380300
580300
980300
18430c
187ffe
18600c
18600c
18600c
18600c
18600c
18600c
18600c
187ffc
18600c
18600c
ENDCHAR
STARTCHAR 2-01-37
ENCODING 8517
SWIDTH 1000 0
DWIDTH 24 0
BBX 24 24 0 -2
BITMAP
001800
003800
003400
006200
00c100
0180c0
030070
06003f
0c019e
33ffc6
c00000
000000
00000c
7ffffe
001800
041880
071860
0e1830
0c1818
18181c
30180c
401800
00f800
003000
ENDCHAR
STARTCHAR 2-01-38
ENCODING 8518
SWIDTH 1000 0
DWIDTH 24 0
BBX 24 24 0 -2
BITMAP
080000
0e000c
0dfffe
0c0300
1c0300
180300
190306
19ffff
398306
398306
598306
99b336
19b336
19b336
19b336
19b336
19b336
19bff6
19b036
19b006
198006
198006
19803e
19800c
ENDCHAR
STARTCHAR 2-01-39
ENCODING 8519
SWIDTH 1000 0
DWIDTH 24 0
BBX 24 24 0 -2
BITMAP
042018
073ffc
063018
063018
0c3018
0c3018
183ff8
183018
383018
383018
583018
983ff8
183104
183107
183086
18308c
1830d0
183040
183060
183030
183338
19fc1f
18e00e
188006
ENDCHAR
STARTCHAR 2-01-40
ENCODING 8520
SWIDTH 1000 0
DWIDTH 24 0
BBX 24 24 0 -2
BITMAP
040000
070018
0600fc
0607e0
0c7b00
0c0300
180300
180300
380306
39ffff
580300
980300
180300
180300
18430c
187ffe
18600c
18600c
18600c
18600c
18600c
18600c
187ffc
18600c
ENDCHAR
STARTCHAR 2-01-41
ENCODING 8521
SWIDTH 1000 0
DWIDTH 24 0
BBX 24 24 0 -2
BITMAP
040000
073f00
060300
060680
0c0680
0c0c40
181860
183030
38601c
38800f
593ff6
980300
180300
180300
180300
180318
187ffc
180300
180300
180300
180300
180306
19ffff
180000
ENDCHAR
STARTCHAR 2-01-42
ENCODING 8522
SWIDTH 1000 0
DWIDTH 24 0
BBX 24 24 0 -2
BITMAP
040000
070200
060380
060300
0c0300
0c0300
186606
1bf7ff
3804c6
380cc4
5808c8
9810c0
1800c0
1800c0
1871a0
1bc1a0
1901a0
180130
180310
180218
18061c
18040f
18080e
183006
ENDCHAR
STARTCHAR 2-01-43
ENCODING 8523
SWIDTH 1000 0
DWIDTH 24 0
BBX 24 24 0 -2
BITMAP
040380
070300
060300
068306
0cffff
0cc000
18c018
18c07c
38c1e0
38c780
58d980
98c180
18c186
18c19f
18c7e0
18f980
18c180
18c180
188180
188182
188182
190183
1901ff
1a00fe
ENDCHAR
STARTCHAR 2-01-44
ENCODING 8524
SWIDTH 1000 0
DWIDTH 24 0
BBX 24 24 0 -2
BITMAP
040380
070300
060300
060306
0dffff
0c0400
180700
180620
384838
383070
5818e0
980cc0
180d88
18030e
18061c
180c38
181870
1830e0
18c1c0
1b03a0
180e18
18380c
18e00e
1b0006
ENDCHAR
STARTCHAR 2-01-45
ENCODING 8525
SWIDTH 1000 0
DWIDTH 24 0
BBX 24 24 0 -2
BITMAP
040380
070300
064300
064306
0cffff
0cc006
198404
198708
380600
380e00
580c06
99ffff
181830
181830
181830
183060
183060
186cc0
1863c0
180180
180360
180638
18381c
19c00c
ENDCHAR
STARTCHAR 2-01-46
ENCODING 8526
SWIDTH 1000 0
DWIDTH 24 0
BBX 24 24 0 -2
BITMAP
041000
071c00
061800
063000
0c3006
0c7fff
184006
188006
3900c6
383fe6
5830c6
9830c6
1830c6
183fc6
1830c6
1830c6
1830c6
183fc6
1830ce
18000c
18000c
18001c
1801f8
180030
ENDCHAR
STARTCHAR 2-01-47
ENCODING 8527
SWIDTH 1000 0
DWIDTH 24 0
BBX 24 24 0 -2
BITMAP
040700
070600
060604
06fffe
0c0600
0c0608
187ffc
180600
380600
380604
58fffe
980c00
180c18
180c1a
1bffff
181818
181418
183318
182198
186198
184018
188018
1b00f8
180030
ENDCHAR
STARTCHAR 2-01-48
ENCODING 8528
SWIDTH 1000 0
DWIDTH 24 0
BBX 24 24 0 -2
BITMAP
040000
07400c
067ffe
066000
0c6000
0c6018
1867fc
186000
386000
386006
587fff
986640
186644
186647
186646
184624
184628
18c620
188630
188610
1906d8
193f0f
1a1c0e
1a1006
ENDCHAR
STARTCHAR 2-01-49
ENCODING 8529
SWIDTH 1000 0
DWIDTH 24 0
BBX 24 24 0 -2
BITMAP
040700
070600
060610
06065c
0cfff8
0c0630
180660
1806c6
39ffff
380300
580618
980ffc
181830
183060
18c1c0
1b0180
180186
19ffff
180180
180180
180180
180180
180f80
180300
ENDCHAR
STARTCHAR 2-01-50
ENCODING 8530
SWIDTH 1000 0
DWIDTH 24 0
BBX 24 24 0 -2
BITMAP
0403a0
070318
060318
060300
0c0306
0dffff
180300
180300
388308
38430e
58638c
983388
183390
180340
180340
180b20
181330
183318
18631c
19e30f
18c306
188302
181f00
180600
ENDCHAR
STARTCHAR 2-01-51
ENCODING 8531
SWIDTH 1000 0
DWIDTH 24 0
BBX 24 24 0 -2
BITMAP
044018
077ffc
066018
066018
0c6018
0c7ff8
180000
18800c
38fffe
38c30c
58c30c
98c30c
18c30c
18c30c
18fffc
18c00c
18c000
18c000
18c002
18c002
18c002
18c003
18ffff
187ffe
ENDCHAR
STARTCHAR 2-01-52
ENCODING 8532
SWIDTH 1000 0
DWIDTH 24 0
BBX 24 24 0 -2
BITMAP
040380
072300
063b20
063318
0c630c
0c4306
188306
194318
3a7ffc
386018
586018
986018
187ff8
186018
186018
186018
186018
187ff8
186018
186018
186018
186018
1860f8
186030
ENDCHAR
STARTCHAR 2-01-53
ENCODING 8533
SWIDTH 1000 0
DWIDTH 24 0
BBX 24 24 0 -2
BITMAP
040380
070300
064300
064306
0cffff
0d8006
198004
180030
387ff8
380000
580000
980000
18000c
19fffe
180cc0
180cc0
180cc0
1818c0
1818c0
1830c2
1830c2
1860c3
18c0ff
1b007e
ENDCHAR
STARTCHAR 2-01-54
ENCODING 8534
SWIDTH 1000 0
DWIDTH 24 0
BBX 24 24 0 -2
BITMAP
040380
070300
060306
06ffff
0c1060
0c1060
1808c0
180d80
380700
380de0
58307f
99c00e
183030
183030
183ff0
183030
183030
183030
183ff0
183030
186030
186030
18c030
1b0030
ENDCHAR
STARTCHAR 2-01-55
ENCODING 8535
SWIDTH 1000 0
DWIDTH 24 0
BBX 24 24 0 -2
BITMAP
083800
0e3070
0c3060
0c3060
0c3260
1bff60
180066
1891ff
38cc66
38c666
598366
991366
1a1866
189866
185866
183046
183046
1868c6
184c86
18cd86
188106
19020c
1a047c
181818
ENDCHAR
STARTCHAR 2-01-56
ENCODING 8536
SWIDTH 1000 0
DWIDTH 24 0
BBX 24 24 0 -2
BITMAP
042018
073ffc
063000
063000
0c3030
0c3ff8
183000
183000
383030
383ff8
583000
983000
183006
1bffff
183100
183108
18309c
1830b0
183040
183060
183630
19f83e
18e01c
18800c
ENDCHAR
STARTCHAR 2-01-57
ENCODING 8537
SWIDTH 1000 0
DWIDTH 24 0
BBX 24 24 0 -2
BITMAP
080400
0e0700
0c0618
0c0ffc
19cc18
199a30
199230
39a160
3981c0
598360
598638
998c1f
19f1c6
198180
198988
19899c
1999b8
19b9e0
19b340
198320
180630
180c1c
18180f
186006
ENDCHAR
STARTCHAR 2-01-58
ENCODING 8538
SWIDTH 1000 0
DWIDTH 24 0
BBX 24 24 0 -2
BITMAP
040380
070308
06230e
06230c
0c6318
0cc320
18c6c0
180630
380c1c
38180e
583006
98c380
180304
180307
18430e
184318
18c6a0
198680
198c40
180c60
181838
18301f
18600e
198006
ENDCHAR
STARTCHAR 2-01-59
ENCODING 8539
SWIDTH 1000 0
DWIDTH 24 0
BBX 24 24 0 -2
BITMAP
040000
074006
067fff
066006
0c61c6
0c6186
186186
186ff6
386186
386186
586ff6
986186
186186
186006
1867e6
186666
186666
18c666
18c666
1887e6
188006
190006
19003e
1a000c
ENDCHAR
STARTCHAR 2-01-60
ENCODING 8540
SWIDTH 1000 0
DWIDTH 24 0
BBX 24 24 0 -2
BITMAP
040380
070300
060300
060306
0dffff
0c0000
180000
184018
387ffc
386018
586018
986018
186018
187ff8
186318
180300
184320
187318
18630c
18c30e
188306
190306
1a1f00
180600
ENDCHAR
STARTCHAR 2-01-61
ENCODING 8541
SWIDTH 1000 0
DWIDTH 24 0
BBX 24 24 0 -2
BITMAP
040380
070300
06030c
06fffe
0c0300
0c0318
187ffc
180318
38031a
39ffff
580318
980318
187ff8
180318
184300
187300
18630c
1863fe
186300
185300
18cb00
188700
1903ff
1a00fe
ENDCHAR
STARTCHAR 2-01-62
ENCODING 8542
SWIDTH 1000 0
DWIDTH 24 0
BBX 24 24 0 -2
BITMAP
040000
074018
067ffc
066018
0c6018
0c6018
187ff8
180000
383800
383018
583ffc
986300
184300
188300
180306
1bffff
180680
180680
180c40
180c60
181838
18301f
18600e
198006
ENDCHAR
STARTCHAR 2-01-63
ENCODING 8543
SWIDTH 1000 0
DWIDTH 24 0
BBX 24 24 0 -2
BITMAP
041040
070870
060c60
060c40
0c0086
0dffff
180000
180000
388607
38ff66
58c666
98c666
18f666
18de66
18de66
18c666
18f666
18de66
18de66
18c666
18c606
18c606
18de1e
18cc0c
ENDCHAR
STARTCHAR 2-01-64
ENCODING 8544
SWIDTH 1000 0
DWIDTH 24 0
BBX 24 24 0 -2
BITMAP
040700
070600
06060c
06fffe
0c0600
0c0600
180610
18fff8
380c80
380c80
581846
9bffff
183020
186030
184018
18bfff
19306e
1a3066
183fe0
183060
183060
183060
183fe0
183060
ENDCHAR
STARTCHAR 2-01-65
ENCODING 8545
SWIDTH 1000 0
DWIDTH 24 0
BBX 24 24 0 -2
BITMAP
044018
077ffc
066318
066318
0c6318
0c7ff8
186318
186318
386318
387ff8
586018
980000
18000c
19fffe
183210
18321c
183138
183160
183080
1830c0
183670
19f83e
18e01c
18800c
ENDCHAR
STARTCHAR 2-01-66
ENCODING 8546
SWIDTH 1000 0
DWIDTH 24 0
BBX 24 24 0 -2
BITMAP
044006
077fff
066006
066006
0c6006
0c7ffe
186000
18600c
386ffe
386180
586190
986108
18620c
186ff6
186706
1864e0
18c0c0
18c0cc
18cffe
1880c0
1980c0
1900c6
1a3fff
180000
ENDCHAR
STARTCHAR 2-01-67
ENCODING 8547
SWIDTH 1000 0
DWIDTH 24 0
BBX 24 24 0 -2
BITMAP
040380
072300
063b20
067318
0c630e
0cc327
188373
191fc0
380780
380300
580618
983ffc
18f018
1b3018
183ff8
183018
183018
183018
183ff8
183018
183018
183018
183ff8
183018
ENDCHAR
STARTCHAR 2-01-68
ENCODING 8548
SWIDTH 1000 0
DWIDTH 24 0
BBX 24 24 0 -2
BITMAP
040380
070300
06030c
06fffe
0c2020
0c1038
181830
180c60
380c40
380c86
59ffff
980000
184018
187ffc
186018
186018
186018
187ff8
186018
186018
186018
186018
187ff8
186018
ENDCHAR
STARTCHAR 2-01-69
ENCODING 8549
SWIDTH 1000 0
DWIDTH 24 0
BBX 24 24 0 -2
BITMAP
040006
077fff
060186
062184
0c3980
0c31fe
183180
182980
386780
3843ff
58807e
990000
187ffc
18600c
18600c
187ffc
18600c
18600c
187ffc
18600c
18600c
18600c
18607c
186018
ENDCHAR
STARTCHAR 2-01-70
ENCODING 8550
SWIDTH 1000 0
DWIDTH 24 0
BBX 24 24 0 -2
BITMAP
040006
077fff
060000
060000
0c1018
0c1ffc
181818
181818
381818
381ff8
581818
980000
184006
187fff
186186
186186
186186
187ffe
186186
186186
186186
187ffe
186006
186006
ENDCHAR
STARTCHAR 2-01-71
ENCODING 8551
SWIDTH 1000 0
DWIDTH 24 0
BBX 24 24 0 -2
BITMAP
043000
073606
063eff
067866
0db066
0c3666
183e66
187846
39b0c6
38368e
583e8c
98797c
19b218
183700
180600
180606
1bffff
180d00
180c80
1818c0
181870
18303f
18c01e
1b0006
ENDCHAR
STARTCHAR 2-01-72
ENCODING 8552
SWIDTH 1000 0
DWIDTH 24 0
BBX 24 24 0 -2
BITMAP
040700
070600
06060c
06fffe
0c0c00
0c0c18
18fffc
181880
381886
3bffff
583040
982020
186330
184318
18f32f
189b36
191b62
1a0340
180fc0
183b30
19e31c
18c30c
189f00
180600
ENDCHAR
STARTCHAR 2-01-73
ENCODING 8553
SWIDTH 1000 0
DWIDTH 24 0
BBX 24 24 0 -2
BITMAP
040006
07ffff
060cc0
060cc0
0c8ccc
0cfffe
18cccc
18cccc
38cccc
38cccc
58fffc
98c30c
180300
180306
19ffff
180f80
180f40
181b20
181b30
183318
18631c
18c30f
1b0306
180300
ENDCHAR
STARTCHAR 2-01-74
ENCODING 8554
SWIDTH 1000 0
DWIDTH 24 0
BBX 24 24 0 -2
BITMAP
040018
0721fc
063fc0
063208
0c3104
0c6186
186186
184186
388200
380740
582470
9818e0
180988
180204
18fffe
187e06
180300
180300
19ffff
180680
180c60
181838
18601f
198006
ENDCHAR
STARTCHAR 2-01-75
ENCODING 8555
SWIDTH 1000 0
DWIDTH 24 0
BBX 24 24 0 -2
BITMAP
040000
070030
0683f8
06fe00
0cc000
0cc00c
18fffe
18c00c
38c00c
38fffc
58c000
98c306
18ffff
18c70e
18cf1e
18db36
18d326
18a74e
188f1e
189b36
191326
192346
1a0f1e
1a060c
ENDCHAR
STARTCHAR 2-01-76
ENCODING 8556
SWIDTH 1000 0
DWIDTH 24 0
BBX 24 24 0 -2
BITMAP
040200
072380
062306
063fff
0c6606
0ce604
18cc48
180ce0
3818c0
381184
583ffe
9870c0
18b0c0
1930c4
183ffe
1830c0
1830c0
1830c4
183ffe
1830c0
1830c0
1830c6
183fff
183000
ENDCHAR
STARTCHAR 2-01-77
ENCODING 8557
SWIDTH 1000 0
DWIDTH 24 0
BBX 24 24 0 -2
BITMAP
040300
070300
060680
060c40
0c1860
0c3030
186fdc
18800f
390006
383ff8
583018
983018
183ff8
183018
183018
183ff8
182000
18600c
187ffe
18580c
18d80c
18980c
191ffc
18180c
ENDCHAR
STARTCHAR 2-01-78
ENCODING 8558
SWIDTH 1000 0
DWIDTH 24 0
BBX 24 24 0 -2
BITMAP
040200
070380
06070c
060ffe
0c181c
0c3638
18c270
1830e0
3811c0
380700
581c00
98e000
183018
187ffc
184300
188306
1bffff
180300
180300
18e30e
18c30c
18c30c
18fffc
18c00c
ENDCHAR
STARTCHAR 2-01-79
ENCODING 8559
SWIDTH 1000 0
DWIDTH 24 0
BBX 24 24 0 -2
BITMAP
040400
070700
060620
060818
0c7fec
0c3c0c
180000
18630c
384308
389692
59f65f
988c31
181918
18338f
186706
198c40
1818e0
1861c4
18070e
18181c
180070
1801c0
180e00
187000
ENDCHAR
STARTCHAR 2-01-80
ENCODING 8560
SWIDTH 1000 0
DWIDTH 24 0
BBX 24 24 0 -2
BITMAP
04800c
06fffe
06c30c
06c30c
0cfffc
0cc30c
18c30c
18fffc
380300
383330
583330
99fffe
183330
183330
183332
1bffff
180300
180300
180304
19fffe
180300
180300
180300
180300
ENDCHAR
STARTCHAR 2-01-81
ENCODING 8561
SWIDTH 1000 0
DWIDTH 24 0
BBX 24 24 0 -2
BITMAP
044208
07738e
06630c
06430c
0cc398
0c82d4
1906b2
183423
386843
386000
58c070
98c060
19c760
1ac666
18c67f
18c660
18c660
18c660
18c660
18c660
18c560
18c4e0
18c87f
18d01e
ENDCHAR
STARTCHAR 2-01-82
ENCODING 8562
SWIDTH 1000 0
DWIDTH 24 0
BBX 24 24 0 -2
BITMAP
042000
073800
06308c
063ebe
0c628c
0c4648
18b450
191c20
3ac830
38501c
58200f
985fe6
188000
190000
18000c
18fffe
180300
184300
187320
186318
18c30c
19830e
1a1f06
180600
ENDCHAR
STARTCHAR 2-01-83
ENCODING 8563
SWIDTH 1000 0
DWIDTH 24 0
BBX 24 24 0 -2
BITMAP
040300
07460c
067ffe
06604c
0c62ec
0c618c
18630c
1864cc
38684c
387ffc
5808c0
981cc2
1830c2
1860ff
18c67e
1b0c00
180ff0
181870
1838e0
18c5c0
180300
180ee0
18787f
1b801e
ENDCHAR
STARTCHAR 2-01-84
ENCODING 8564
SWIDTH 1000 0
DWIDTH 24 0
BBX 24 24 0 -2
BITMAP
040006
06ffff
060cc0
060cc0
0c8ccc
0cfffe
18cccc
18cccc
38cccc
38cccc
58fffc
98c00c
180000
18fffc
180000
180006
19ffff
180300
182320
187318
18c30c
198306
1a1f06
180600
ENDCHAR
STARTCHAR 2-01-85
ENCODING 8565
SWIDTH 1000 0
DWIDTH 24 0
BBX 24 24 0 -2
BITMAP
040000
070606
06feff
063636
0c6666
0ccece
181e1e
183636
386666
388686
580700
980c80
181860
183038
18621f
198706
180c40
1830e0
18c188
180e1c
187070
1801c0
180700
187800
ENDCHAR
STARTCHAR 2-01-86
ENCODING 8566
SWIDTH 1000 0
DWIDTH 24 0
BBX 24 24 0 -2
BITMAP
040006
06ffff
060cc0
060cc0
0c8ccc
0cfffe
18cccc
18cccc
38cccc
38fffc
58c00c
983310
181b38
181b60
180346
19ffff
180780
180f40
180f60
181b30
18331c
18630f
198306
180300
ENDCHAR
STARTCHAR 2-01-87
ENCODING 8567
SWIDTH 1000 0
DWIDTH 24 0
BBX 24 24 0 -2
BITMAP
04800c
06fffe
06c30c
06e34c
0cd37c
0cdb6c
18db4c
18db8c
38c30c
38fffc
58c30c
980300
18030c
19fffe
180300
180300
180306
1bffff
180000
189108
1888c6
198c63
1b8c63
1b0c63
ENDCHAR
STARTCHAR 2-01-88
ENCODING 8568
SWIDTH 1000 0
DWIDTH 24 0
BBX 24 24 0 -2
BITMAP
048c8c
06fefe
06cccc
06cccc
0ccccc
0cfcfc
18c0c0
18c4c2
38c6c3
38feff
587c7e
980000
181ce0
1818c8
18fffc
1818c0
1818c0
1818c6
19ffff
182000
183860
18701c
18c00e
1b0006
ENDCHAR
STARTCHAR 2-01-89
ENCODING 8569
SWIDTH 1000 0
DWIDTH 24 0
BBX 24 24 0 -2
BITMAP
042100
0739c0
063180
062318
0c7ffc
0c6300
18e310
197ff8
386300
386310
587ff8
986300
18630c
187ffe
186000
180380
180306
1bffff
180f40
181b20
183338
18631e
19830c
180300
ENDCHAR
STARTCHAR 2-01-90
ENCODING 8570
SWIDTH 1000 0
DWIDTH 24 0
BBX 24 24 0 -2
BITMAP
040080
0713c0
061880
063040
0c2030
0c40dc
18bfef
1b0906
38fff8
38c918
58c918
98f1f8
18c018
18fff8
18c018
18fff8
180060
180066
1bffff
180060
183060
181860
181be0
1800c0
ENDCHAR
STARTCHAR 2-01-91
ENCODING 8571
SWIDTH 1000 0
DWIDTH 24 0
BBX 24 24 0 -2
BITMAP
041c70
071860
061864
06fffe
0c1860
0c1860
181fe0
180004
39fffe
380300
584318
987ffc
186318
186318
187ff8
186318
186318
187ff8
186018
181000
181c60
18381c
18600e
198006
ENDCHAR
STARTCHAR 2-01-92
ENCODING 8572
SWIDTH 1000 0
DWIDTH 24 0
BBX 24 24 0 -2
BITMAP
040380
07030c
06fffe
060300
0c7ff8
0c6318
186318
187ff8
386318
386318
587ff8
980310
180308
18fffc
187e0e
180106
180c80
184cc8
184cc6
18cc03
18cc13
198c10
198ff8
1807f0
ENDCHAR
STARTCHAR 2-01-93
ENCODING 8573
SWIDTH 1000 0
DWIDTH 24 0
BBX 24 24 0 -2
BITMAP
048686
06feff
06c6c6
06c6c6
0cfefe
0cc6c6
18c6c6
18fefe
38c6c6
38c006
58c866
98cff6
18cc66
18cc66
18cfe6
18cc66
18cc66
18cfe6
18cc66
18c866
18c9e6
18d046
18c03e
18c00c
ENDCHAR
STARTCHAR 2-01-94
ENCODING 8574
SWIDTH 1000 0
DWIDTH 24 0
BBX 24 24 0 -2
BITMAP
080cc0
0e8cc8
0c4cce
0c6ccc
0c6cd0
180cc0
19fffe
182020
381830
380840
58fffc
980300
180300
18fffc
180300
180306
1bffff
180780
180f40
180f60
181b38
18331f
18c30e
1b0306
ENDCHAR
STARTCHAR 2-03-01
ENCODING 8993
SWIDTH 1000 0
DWIDTH 24 0
BBX 24 24 0 -2
BITMAP
040300
070700
060c80
061860
0c3038
0c6fde
19800c
180000
38fffc
38c30c
58d32c
98db6c
18cb4c
18fffc
180000
184018
187ffc
186018
186018
187ff8
186018
186018
187ff8
186018
ENDCHAR
STARTCHAR 2-03-02
ENCODING 8994
SWIDTH 1000 0
DWIDTH 24 0
BBX 24 24 0 -2
BITMAP
040006
06ffff
060440
068446
0cffff
0cc446
18c446
18fffe
380000
38fffe
58c006
98dff6
18c306
18c306
18c306
18cfe6
18c306
18c336
18c336
18c306
18dff6
18c006
18fffe
18c006
ENDCHAR
STARTCHAR 2-03-03
ENCODING 8995
SWIDTH 1000 0
DWIDTH 24 0
BBX 24 24 0 -2
BITMAP
08000c
0dc7fe
0d800c
0d9908
19bcd0
19c060
318860
318c06
71ffff
70f866
b10064
318068
31f860
314260
32436c
304b7e
37ff60
304360
30e360
30b360
31b2e0
310670
320c3f
34300e
ENDCHAR
STARTCHAR 2-03-04
ENCODING 8996
SWIDTH 1000 0
DWIDTH 24 0
BBX 24 24 0 -2
BITMAP
084000
0e7000
0c600c
0cfffe
19c920
1a4920
304926
37ffff
704920
704920
b04926
33ffff
308000
30cc30
30fd34
318dfe
311930
329930
34f136
302fff
304030
308030
330030
340030
ENDCHAR
STARTCHAR 2-03-05
ENCODING 8997
SWIDTH 1000 0
DWIDTH 24 0
BBX 24 24 0 -2
BITMAP
080408
0e830e
0c618c
0c3198
183030
1a0066
1bffff
330000
337c40
731070
731060
b3ff66
33447f
3344cc
337c8c
33454c
334448
337c28
324438
324410
367c38
35e42f
38c44e
300586
ENDCHAR
STARTCHAR 2-03-06
ENCODING 8998
SWIDTH 1000 0
DWIDTH 24 0
BBX 24 24 0 -2
BITMAP
062060
063860
06b364
06ff6e
7ec378
06c360
06c360
06ff60
06c360
06c362
1ec362
f6ff7f
46c33e
000000
010700
01c600
018600
018600
018600
030602
030602
060603
1c07ff
e003fe
ENDCHAR
STARTCHAR 2-03-07
ENCODING 8999
SWIDTH 1000 0
DWIDTH 24 0
BBX 24 24 0 -2
BITMAP
000000
000000
000000
041000
071cc0
061830
0c381c
0830ce
17ffe6
206400
006400
00c206
ffffff
018180
0300c0
060070
0c003f
30001e
c00006
000000
000000
000000
000000
000000
ENDCHAR
STARTCHAR 2-03-08
ENCODING 9000
SWIDTH 1000 0
DWIDTH 24 0
BBX 24 24 0 -2
BITMAP
000080
0200e0
0180c0
00c180
00c100
00c200
0004c0
07ffe0
001800
001800
001800
001800
001830
1ffff8
001800
001800
003400
003400
006200
006300
00c1c0
0180f8
060070
380030
ENDCHAR
STARTCHAR 2-03-09
ENCODING 9001
SWIDTH 1000 0
DWIDTH 24 0
BBX 24 24 0 -2
BITMAP
20000c
3ffffe
30000c
30000c
30000c
30000c
30018c
33ffcc
30000c
30000c
30000c
30000c
30000c
30018c
33ffcc
30000c
30000c
30000c
30000c
30000c
30000c
30000c
30007c
300018
ENDCHAR
STARTCHAR 2-03-10
ENCODING 9002
SWIDTH 1000 0
DWIDTH 24 0
BBX 24 24 0 -2
BITMAP
20000c
3ffffe
30000c
30000c
30000c
30000c
31018c
31ffcc
31818c
31818c
31818c
31818c
31818c
31818c
31ff8c
31818c
31818c
30000c
30000c
30000c
30000c
30000c
30007c
300018
ENDCHAR
STARTCHAR 2-03-11
ENCODING 9003
SWIDTH 1000 0
DWIDTH 24 0
BBX 24 24 0 -2
BITMAP
01c1c0
018180
018186
ffffff
018180
018180
01ff80
001800
20180c
3ffffe
30180c
31188c
3f9fcc
31188c
31188c
3399cc
32994c
36db6c
34fa7c
385c2c
30180c
30180c
30187c
300018
ENDCHAR
STARTCHAR 2-03-12
ENCODING 9004
SWIDTH 1000 0
DWIDTH 24 0
BBX 24 24 0 -2
BITMAP
003800
003000
003000
103000
103006
1fffff
303006
703004
e03c08
c03c00
006c00
006c00
006c00
00cc00
00cc00
00cc00
018c00
018c00
030c02
030c02
060c02
0c0c03
180fff
6007fe
ENDCHAR
STARTCHAR 2-03-13
ENCODING 9005
SWIDTH 1000 0
DWIDTH 24 0
BBX 24 24 0 -2
BITMAP
100000
100006
1fffff
300006
700004
e01008
dff800
0c6000
0c600c
0c6ffe
0fe20c
0c6208
0c6118
0c6110
0fe0b0
0c60e0
0c6040
0c60e0
0fe0b0
7e6198
38611c
20620f
006406
006802
ENDCHAR
STARTCHAR 2-03-14
ENCODING 9006
SWIDTH 1000 0
DWIDTH 24 0
BBX 24 24 0 -2
BITMAP
003800
003000
003000
003006
ffffff
006200
00c100
00c180
0180c0
030060
060038
0c701f
301c0e
c00e06
000600
000000
000000
000070
0003c0
001f00
00fc00
03f000
01c000
010000
ENDCHAR
STARTCHAR 2-03-15
ENCODING 9007
SWIDTH 1000 0
DWIDTH 24 0
BBX 24 24 0 -2
BITMAP
000018
40007c
3003e0
18ff00
1c0300
0c0300
000300
000300
020300
020300
040306
05ffff
080680
080680
180680
300440
f00c40
700c60
300820
301830
301018
38201f
18400e
018006
ENDCHAR
STARTCHAR 2-03-16
ENCODING 9008
SWIDTH 1000 0
DWIDTH 24 0
BBX 24 24 0 -2
BITMAP
000380
402300
303b00
183300
1c3318
0c3ffc
006300
004300
028300
020300
040306
05ffff
0818c0
0818c0
1818c0
3018c0
f018c0
7018c0
3018c2
3030c2
3030c2
3860c3
18c0ff
03007e
ENDCHAR
STARTCHAR 2-03-17
ENCODING 9009
SWIDTH 1000 0
DWIDTH 24 0
BBX 24 24 0 -2
BITMAP
001000
401c40
301830
183018
1c200c
0c430c
008300
000680
020640
020c60
040838
04101f
08200e
084006
198000
303ff8
f03018
703018
303018
303018
303018
383ff8
183018
003018
ENDCHAR
STARTCHAR 2-03-18
ENCODING 9010
SWIDTH 1000 0
DWIDTH 24 0
BBX 24 24 0 -2
BITMAP
100030
1ffff8
180030
180030
180030
180030
180030
180030
180030
180030
180030
180030
180030
180030
180030
180030
180012
180012
10001a
30000a
20000e
200006
400007
800003
ENDCHAR
STARTCHAR 2-03-19
ENCODING 9011
SWIDTH 1000 0
DWIDTH 24 0
BBX 24 24 0 -2
BITMAP
000420
0ff670
0032c4
0c638e
06c1d8
0380f0
06ffbf
0c000e
33ffc2
c300c0
0300c0
03ffc0
00c300
00660c
7ffffe
000000
01ff80
018180
018180
030182
030182
060183
1801ff
6000fe
ENDCHAR
STARTCHAR 2-03-20
ENCODING 9012
SWIDTH 1000 0
DWIDTH 24 0
BBX 24 24 0 -2
BITMAP
004030
407ff8
306100
186100
187ff0
006100
026100
047ff0
0c6100
18610c
f87ffe
70000c
30a48c
31924c
39921c
180078
01ff90
018180
018180
030182
030182
060183
1801ff
6000fe
ENDCHAR
STARTCHAR 2-03-21
ENCODING 9013
SWIDTH 1000 0
DWIDTH 24 0
BBX 24 24 0 -2
BITMAP
0001c0
000180
01c180
018180
018180
018180
018180
018180
018180
018180
018180
018180
018180
018180
018180
018180
018180
000180
000180
000180
000180
000180
001f80
000300
ENDCHAR
STARTCHAR 2-03-22
ENCODING 9014
SWIDTH 1000 0
DWIDTH 24 0
BBX 24 24 0 -2
BITMAP
070007
064006
0630e6
0618c6
0618c6
0600c6
060cc6
fffec6
0600c6
0600c6
0610c6
031cc6
0338c6
0330c6
0160c6
01c0c6
0080c6
01c406
034406
066406
0c3406
183e06
201e3e
400c0c
ENDCHAR
STARTCHAR 2-03-23
ENCODING 9015
SWIDTH 1000 0
DWIDTH 24 0
BBX 24 24 0 -2
BITMAP
103007
1ff806
1831c6
183186
183186
183186
183186
1ff186
183186
183186
183186
183186
183186
1ff186
183186
183186
183186
183006
183006
103006
303006
203006
41f03e
80600c
ENDCHAR
STARTCHAR 2-03-24
ENCODING 9016
SWIDTH 1000 0
DWIDTH 24 0
BBX 24 24 0 -2
BITMAP
030000
030006
0687ff
0660c6
0c30c6
1818c6
30d8c6
dfe0c6
0300c6
2330c6
3ff0c6
3330c6
3330c6
3330c6
3330c6
3ff0c6
333186
068186
064186
0c6306
0c330e
18360c
30047c
c00818
ENDCHAR
STARTCHAR 2-03-25
ENCODING 9017
SWIDTH 1000 0
DWIDTH 24 0
BBX 24 24 0 -2
BITMAP
077007
066006
066066
066066
066666
fe7f66
066066
066066
066066
066666
fe7f66
066066
066066
066066
066066
1e6666
f67f66
466006
066006
046006
0c6006
086006
10603e
20600c
ENDCHAR
STARTCHAR 2-03-26
ENCODING 9018
SWIDTH 1000 0
DWIDTH 24 0
BBX 24 24 0 -2
BITMAP
01c007
018006
218066
218666
3fff66
600666
600466
1c0066
188c66
18fe66
1ecc66
12cc66
32cc66
2acc66
2acc66
46cc66
04dc66
0ccc06
08c006
18c206
10c206
20c306
40ff3e
807e0c
ENDCHAR
STARTCHAR 2-03-27
ENCODING 9019
SWIDTH 1000 0
DWIDTH 24 0
BBX 24 24 0 -2
BITMAP
030007
030006
6318e6
6318c6
6318c6
6318c6
7ff8c6
6018c6
0000c6
000cc6
fffec6
0600c6
0600c6
4418c6
7ffcc6
6498c6
6498c6
649806
649806
649806
649806
649806
64983e
60380c
ENDCHAR
STARTCHAR 2-03-28
ENCODING 9020
SWIDTH 1000 0
DWIDTH 24 0
BBX 24 24 0 -2
BITMAP
01c007
018c06
7ffee6
0060c6
0ec0c6
0180c6
0360c6
4c24c6
7ffec6
6000c6
64e0c6
66c0c6
64c8c6
6ffcc6
68c0c6
70c0c6
60c8c6
6ffc06
60c006
60c006
40ce06
5ff006
8f803e
8c000c
ENDCHAR
STARTCHAR 2-03-29
ENCODING 9021
SWIDTH 1000 0
DWIDTH 24 0
BBX 24 24 0 -2
BITMAP
183007
102006
3264e6
3f7ec6
68d0c6
4c98c6
8c18c6
0180c6
0180c6
0360c6
0618c6
0c0cc6
1866c6
37f6c6
c000c6
1018c6
1ffcc6
181806
181806
181806
181806
1ff806
18183e
18000c
ENDCHAR
STARTCHAR 2-03-30
ENCODING 9022
SWIDTH 1000 0
DWIDTH 24 0
BBX 24 24 0 -2
BITMAP
400607
7fff06
402066
513866
49b066
493066
422666
7fff66
442666
446666
555466
559066
551066
551066
551066
551066
5f3066
442806
442806
446406
4c4606
884606
90863e
a1000c
ENDCHAR
STARTCHAR 2-03-31
ENCODING 9023
SWIDTH 1000 0
DWIDTH 24 0
BBX 24 24 0 -2
BITMAP
020007
470606
7cff06
606606
646666
636666
6d6666
f85e66
f08c66
400066
000c66
7ffe66
066066
066066
3e7c66
300c66
300c66
300c06
3e7c06
066006
067e06
ffc006
7c003e
40000c
ENDCHAR
STARTCHAR 2-03-32
ENCODING 9024
SWIDTH 1000 0
DWIDTH 24 0
BBX 24 24 0 -2
BITMAP
00e007
40c606
7fff66
620866
620866
7fff66
620866
6aaa66
6aaa66
6a2ae6
724b66
600066
619c66
619866
6f9f66
619866
6f9866
619f06
47d806
5d1906
4b1f86
861806
84183e
88180c
ENDCHAR
STARTCHAR 2-03-33
ENCODING 9025
SWIDTH 1000 0
DWIDTH 24 0
BBX 24 24 0 -2
BITMAP
0001c0
018180
3fc180
000180
00018c
001ffe
00018c
00618c
fff18c
19818c
19818c
19830c
19830c
19830c
19860c
19861c
198c18
198838
3191f2
31a062
218003
61ffff
40fffe
800000
ENDCHAR
STARTCHAR 2-03-34
ENCODING 9026
SWIDTH 1000 0
DWIDTH 24 0
BBX 24 24 0 -2
BITMAP
0061c0
00f180
238180
3c0180
300180
300186
301fff
306186
3ff186
318186
318186
318186
318186
318186
318186
318306
318306
218306
21860e
61860c
418c0c
41881c
8190f8
01a030
ENDCHAR
STARTCHAR 2-03-35
ENCODING 9027
SWIDTH 1000 0
DWIDTH 24 0
BBX 24 24 0 -2
BITMAP
001800
001800
001830
1ffff8
003030
003030
003030
006030
006060
00c060
0180c0
0607c0
180180
0c00c0
0c00c0
0c60c6
7ff7ff
0c60c6
0c60c6
0c60c6
186186
18c18c
33c33c
418418
ENDCHAR
STARTCHAR 2-03-36
ENCODING 9028
SWIDTH 1000 0
DWIDTH 24 0
BBX 24 24 0 -2
BITMAP
0001c0
006180
fff180
0c0180
0c0180
0c0186
0c1fff
180186
180186
10c186
3fe186
38c186
78c186
58c186
98c186
18c306
18c306
18c306
1fc60e
18c60c
180c0c
00081c
0010f8
002030
ENDCHAR
STARTCHAR 2-03-37
ENCODING 9029
SWIDTH 1000 0
DWIDTH 24 0
BBX 24 24 0 -2
BITMAP
0801c0
0e0180
0c0180
090180
088180
10c186
ff6fff
786186
400186
070186
260186
366186
3ff186
660186
460186
860306
063306
fffb06
06060e
06060c
060c0c
06081c
0610f8
062030
ENDCHAR
STARTCHAR 2-03-38
ENCODING 9030
SWIDTH 1000 0
DWIDTH 24 0
BBX 24 24 0 -2
BITMAP
0000e0
4018c0
7ffcc0
6000c0
6030c0
6ff8c6
6187ff
6180c6
6180c6
6180c6
61b0c6
6ff8c6
6180c6
6180c6
6180c6
618186
618186
61b186
6ffb0e
60030c
60160c
7ffc1c
600878
001030
ENDCHAR
STARTCHAR 2-03-39
ENCODING 9031
SWIDTH 1000 0
DWIDTH 24 0
BBX 24 24 0 -2
BITMAP
0701c0
060180
063180
fff980
06018c
061ffe
26618c
3ff18c
30618c
30618c
30618c
30630c
3fe30c
0d830c
0d860c
0d861c
0d8c18
198838
1991f2
11a062
318003
21ffff
40fffe
800000
ENDCHAR
STARTCHAR 2-03-40
ENCODING 9032
SWIDTH 1000 0
DWIDTH 24 0
BBX 24 24 0 -2
BITMAP
2601c0
360180
664180
7fe198
460ffc
860198
064198
3fe518
06031a
06019a
0672ca
1f84ca
fc1806
600007
003803
003030
1ffff8
003030
006030
006030
00c030
018060
0603e0
3800c0
ENDCHAR
STARTCHAR 2-03-41
ENCODING 9033
SWIDTH 1000 0
DWIDTH 24 0
BBX 24 24 0 -2
BITMAP
0300e0
0300c0
0300c0
0318c0
fffcc0
0300c6
0307ff
3330c6
2320c6
3330c6
6b68c6
4f4cc6
8f8cc6
0300c6
0700c6
078186
0fc186
0b6186
1b330e
33330c
63060c
83041c
0308f8
031030
ENDCHAR
STARTCHAR 2-03-42
ENCODING 9034
SWIDTH 1000 0
DWIDTH 24 0
BBX 24 24 0 -2
BITMAP
0380e0
0300c0
4318c0
7ffcc0
6000c0
6660c6
7ffbff
6660c6
67e0c6
6000c6
7ff8c6
6180c6
6180c6
6ff8c6
6998c6
6998c6
6ff8c6
499886
499886
4ff986
840106
86610e
8c327c
181418
ENDCHAR
STARTCHAR 2-03-43
ENCODING 9035
SWIDTH 1000 0
DWIDTH 24 0
BBX 24 24 0 -2
BITMAP
0380e0
030cc0
fffec0
0000c0
3ef8c0
2698c6
269bff
3ef8c6
0c60c6
3ff8c6
0c60c6
3ff8c6
0c60c6
0c6cc6
fffec6
0608c6
1d8cc6
78d886
987086
186186
1f3106
fc310e
70027c
400418
ENDCHAR
STARTCHAR 2-03-44
ENCODING 9036
SWIDTH 1000 0
DWIDTH 24 0
BBX 24 24 0 -2
BITMAP
020000
038000
030000
06000c
07fffe
0c000c
0c380c
18310c
1431cc
23318c
41b30c
81b40c
0030cc
1fffec
00300c
00780c
00f60c
01b38c
0331cc
0630dc
083018
103038
0031f0
000060
ENDCHAR
STARTCHAR 2-03-45
ENCODING 9037
SWIDTH 1000 0
DWIDTH 24 0
BBX 24 24 0 -2
BITMAP
020000
038000
030000
06000c
07fffe
0c000c
0dc00c
19800c
11810c
23ff8c
42300c
84300c
00304c
1fffec
00300c
00300c
06318c
06318c
06318c
07ff9c
060198
060038
0001f0
000060
ENDCHAR
STARTCHAR 2-03-46
ENCODING 9038
SWIDTH 1000 0
DWIDTH 24 0
BBX 24 24 0 -2
BITMAP
000000
20000c
3ffffe
300000
300000
300030
33fff8
300c00
300c00
300c00
300c60
31fff0
300c00
300cc0
300c60
300c60
300c18
37fffc
300000
300000
300006
3fffff
300000
300000
ENDCHAR
STARTCHAR 2-03-47
ENCODING 9039
SWIDTH 1000 0
DWIDTH 24 0
BBX 24 24 0 -2
BITMAP
20000c
3ffffe
300600
33fffc
300600
31fff8
300000
33fffc
33190c
3331fc
33400c
33fffc
30c030
30fff0
30c030
30fff0
30c030
30fff0
302080
307070
30e038
33801a
3fffff
300000
ENDCHAR
STARTCHAR 2-03-48
ENCODING 9040
SWIDTH 1000 0
DWIDTH 24 0
BBX 24 24 0 -2
BITMAP
000000
000006
ffffff
300000
300060
3107f0
31fe00
318000
31fff0
318030
31fff0
318000
31fff8
316498
316498
317ff8
326498
326498
346478
306030
380000
3ffffe
1ffffe
000000
ENDCHAR
STARTCHAR 2-03-49
ENCODING 9041
SWIDTH 1000 0
DWIDTH 24 0
BBX 24 24 0 -2
BITMAP
000030
fffff8
000030
00e030
00c030
00c030
00c030
00c030
00c030
00c030
00c030
00c330
7fffb0
00c030
00c030
00c030
00c012
00c012
00c01a
00c00a
00c00e
00c006
00c007
00c003
ENDCHAR
STARTCHAR 2-03-50
ENCODING 9042
SWIDTH 1000 0
DWIDTH 24 0
BBX 24 24 0 -2
BITMAP
0001c0
000180
038180
030180
030180
030180
033180
7ff980
030180
030180
030180
030180
030180
030186
0001bf
001fc0
07e180
f80180
000180
000180
000180
000180
000180
000180
ENDCHAR
STARTCHAR 2-03-51
ENCODING 9043
SWIDTH 1000 0
DWIDTH 24 0
BBX 24 24 0 -2
BITMAP
001c00
001800
001860
0ffff0
001800
001800
0218c0
03ffe0
0300c0
0300c0
03ffc0
0300c0
0300c0
0300c0
03ffc0
0318c0
001800
001860
0ffff0
001800
001800
001800
001800
001800
ENDCHAR
STARTCHAR 2-03-52
ENCODING 9044
SWIDTH 1000 0
DWIDTH 24 0
BBX 24 24 0 -2
BITMAP
0001c0
403180
7ff980
630180
630180
630180
630180
630180
7fe180
6061c0
6061b0
606198
60618c
7fe18e
630186
630180
630180
630180
630180
633180
7ff980
600180
000180
000180
ENDCHAR
STARTCHAR 2-03-53
ENCODING 9045
SWIDTH 1000 0
DWIDTH 24 0
BBX 24 24 0 -2
BITMAP
006000
00f000
138406
1c07ff
180606
180606
180606
180606
180606
180606
180606
180606
180606
180606
180606
187606
1bc606
1f0606
fc067e
70061c
400600
000600
000600
000600
ENDCHAR
STARTCHAR 2-03-54
ENCODING 9046
SWIDTH 1000 0
DWIDTH 24 0
BBX 24 24 0 -2
BITMAP
000180
07ffc0
000300
000610
01981c
7fdc38
019e60
031b80
0619e0
0c1878
30181f
c0f806
00300c
7ffffe
000000
0fffe0
0c0060
0c0060
0c03e0
0c00c0
0c0008
0c0008
0ffffc
07fff8
ENDCHAR
STARTCHAR 2-03-55
ENCODING 9047
SWIDTH 1000 0
DWIDTH 24 0
BBX 24 24 0 -2
BITMAP
100006
1fffff
180000
181818
187c7c
19e1e0
1e6660
186060
186060
1ffffe
186060
18e060
18f0e0
18e8f0
19edf0
196d78
396368
33626c
326466
366467
246862
686060
406060
806060
ENDCHAR
STARTCHAR 2-03-56
ENCODING 9048
SWIDTH 1000 0
DWIDTH 24 0
BBX 24 24 0 -2
BITMAP
200006
3fffff
300000
37f0c0
3630d8
37f0cc
3630cc
37f0c2
3007ff
37f0a0
3630a0
37f190
363118
37f10c
36320f
366406
300000
33fffc
23060c
63fffc
63060c
43fffc
800600
000600
ENDCHAR
STARTCHAR 2-03-57
ENCODING 9049
SWIDTH 1000 0
DWIDTH 24 0
BBX 24 24 0 -2
BITMAP
000000
000000
000000
001c00
001800
001800
001800
001806
ffffff
006000
006000
004000
00c080
008060
010030
0103d8
01fe1c
3fe00c
1e000c
100000
000000
000000
000000
000000
ENDCHAR
STARTCHAR 2-03-58
ENCODING 9050
SWIDTH 1000 0
DWIDTH 24 0
BBX 24 24 0 -2
BITMAP
004000
007000
006000
006000
006000
00c006
ffffff
00c000
00c000
018800
018e00
030c00
030c00
061800
041800
0c1880
083040
103060
206030
406030
8041f8
07fe18
03e018
020000
ENDCHAR
STARTCHAR 2-03-59
ENCODING 9051
SWIDTH 1000 0
DWIDTH 24 0
BBX 24 24 0 -2
BITMAP
001c00
001800
00180c
7ffffe
001800
001800
081830
0ffff8
0c1830
0c1830
0c1830
0ffff0
0c1830
0c1830
0c1830
0ffff0
003000
006100
00c0c0
018060
030030
3ffff8
1ff018
100018
ENDCHAR
STARTCHAR 2-03-60
ENCODING 9052
SWIDTH 1000 0
DWIDTH 24 0
BBX 24 24 0 -2
BITMAP
020180
03ffc0
030180
030180
030180
030180
030f80
030300
030000
0300c0
03ffe0
0320c0
0320c0
031180
031180
030b00
030b00
030600
030600
030b00
030980
0310c0
0320f0
034060
ENDCHAR
STARTCHAR 2-03-61
ENCODING 9053
SWIDTH 1000 0
DWIDTH 24 0
BBX 24 24 0 -2
BITMAP
001c00
001800
001806
ffffff
001800
001800
081830
0ffff8
0c0030
0c0030
0c0030
0ffff0
0c0030
000000
000060
1ffff0
0201c0
018380
00ee00
003800
006f00
01c3f0
0e00ff
f0001e
ENDCHAR
STARTCHAR 2-03-62
ENCODING 9054
SWIDTH 1000 0
DWIDTH 24 0
BBX 24 24 0 -2
BITMAP
403000
7ff806
6037ff
603106
603106
603106
7ff106
60308c
60008c
61c08c
618088
699058
6ff858
699050
699030
699020
699070
499050
4990d8
899098
89b18c
09930f
018606
019806
ENDCHAR
STARTCHAR 2-03-63
ENCODING 9055
SWIDTH 1000 0
DWIDTH 24 0
BBX 24 24 0 -2
BITMAP
006006
7ff7ff
006006
30c30c
0cc0cc
078078
030030
058058
0cc0cc
18e18e
206206
c00c00
006006
7ff7ff
006106
30c18c
0cc08c
0780d8
030070
058070
0cc0d8
18e18c
206207
c00c02
ENDCHAR
STARTCHAR 2-03-64
ENCODING 9056
SWIDTH 1000 0
DWIDTH 24 0
BBX 24 24 0 -2
BITMAP
000000
40600c
7ff7fe
60600c
60600c
60600c
60600c
7fe7fc
60600c
600000
600000
60c00c
7feffe
60020c
60020c
600118
60c118
7fe0b0
600060
6000e0
6001b0
60031c
600c0f
603006
ENDCHAR
STARTCHAR 2-03-65
ENCODING 9057
SWIDTH 1000 0
DWIDTH 24 0
BBX 24 24 0 -2
BITMAP
000100
007f80
020100
038100
030080
030080
060040
060060
0c0030
08001c
10000f
240066
47fff2
860060
060060
060060
060060
060060
060060
060060
060060
07ffe0
060060
060000
ENDCHAR
STARTCHAR 2-03-66
ENCODING 9058
SWIDTH 1000 0
DWIDTH 24 0
BBX 24 24 0 -2
BITMAP
007000
006000
006000
0060c0
7fffe0
0060c0
0060c0
00c0c0
00c0c2
0180c2
0300c3
0600ff
18007e
e00000
040060
07fff0
060060
060060
060060
060060
060060
060060
07ffe0
060060
ENDCHAR
STARTCHAR 2-03-67
ENCODING 9059
SWIDTH 1000 0
DWIDTH 24 0
BBX 24 24 0 -2
BITMAP
000000
20000c
3ffffe
300000
300000
300000
3080c0
30ffe0
30c0c0
30c0c0
30c0c0
30c0c0
30c0c0
30c0c0
30c0c0
30ffc0
30c0c0
30c000
300000
300000
300006
3fffff
300000
300000
ENDCHAR
STARTCHAR 2-03-68
ENCODING 9060
SWIDTH 1000 0
DWIDTH 24 0
BBX 24 24 0 -2
BITMAP
000000
00200c
003ffe
433000
7fb010
63301c
633418
633218
633130
6331b0
6330a0
6330e0
633040
6330e0
6330b0
7f31b0
633118
603218
003418
003800
003006
003fff
003000
003000
ENDCHAR
STARTCHAR 2-03-69
ENCODING 9061
SWIDTH 1000 0
DWIDTH 24 0
BBX 24 24 0 -2
BITMAP
000180
000180
000340
430340
7f8620
630430
630c18
63181c
63100f
632006
634e38
630c30
630c30
630c30
630c30
7f0c30
630c30
600c30
000830
000830
001830
001030
002030
00c030
ENDCHAR
STARTCHAR 2-03-70
ENCODING 9062
SWIDTH 1000 0
DWIDTH 24 0
BBX 24 24 0 -2
BITMAP
0001c0
000180
000186
43019f
7f81f0
637f80
630180
630180
63398e
63318c
63318c
63318c
63318c
63318c
63318c
7f3ffc
63318c
603180
000182
000182
000182
000183
0001ff
0000fe
ENDCHAR
STARTCHAR 2-03-71
ENCODING 9063
SWIDTH 1000 0
DWIDTH 24 0
BBX 24 24 0 -2
BITMAP
000820
000e18
000c0c
431806
7f9806
631003
632013
632418
634418
630c18
631a30
630a30
630230
630160
630160
7f01c0
630080
6001c0
000360
000630
000c38
00181c
00600f
018006
ENDCHAR
STARTCHAR 2-03-72
ENCODING 9064
SWIDTH 1000 0
DWIDTH 24 0
BBX 24 24 0 -2
BITMAP
002006
003fff
003000
433000
7fb000
63320c
6333fe
63330c
63330c
63330c
63330c
63330c
63330c
63330c
63333c
7f3318
632300
606300
006302
004302
00c302
008303
0103ff
0001fe
ENDCHAR
STARTCHAR 2-03-73
ENCODING 9065
SWIDTH 1000 0
DWIDTH 24 0
BBX 24 24 0 -2
BITMAP
00200c
003ffe
00300c
43300c
7fb00c
63300c
633ffc
63300c
633000
633380
633300
633308
63330e
63331c
633330
7f33c0
632300
606300
006302
004302
00c302
008303
0103ff
0001fe
ENDCHAR
STARTCHAR 2-03-74
ENCODING 9066
SWIDTH 1000 0
DWIDTH 24 0
BBX 24 24 0 -2
BITMAP
002070
003860
003060
463060
7e2060
662066
6649ff
664e66
670c66
668c66
66d866
66d866
661066
663066
662066
7e2866
6644c6
6044c6
009ec6
03e68e
01c18c
01010c
00027c
000418
ENDCHAR
STARTCHAR 2-03-75
ENCODING 9067
SWIDTH 1000 0
DWIDTH 24 0
BBX 24 24 0 -2
BITMAP
000000
008006
00ffff
46ccc6
7eccc6
66ccc6
66ccc6
66ccc6
66ccc6
66ccc6
66ccc6
66ccc6
66c8c6
66d8fe
66d07e
7ee006
66c006
60c006
00c006
00c006
00fffe
00c006
00c000
000000
ENDCHAR
STARTCHAR 2-03-76
ENCODING 9068
SWIDTH 1000 0
DWIDTH 24 0
BBX 24 24 0 -2
BITMAP
000030
0000f8
0003c0
431f80
7f8180
630180
630180
630186
637fff
630180
630180
6303c0
6303c0
6307a0
6305a0
7f0db0
630998
60199c
00118f
00218e
004186
008180
000180
000180
ENDCHAR
STARTCHAR 2-03-77
ENCODING 9069
SWIDTH 1000 0
DWIDTH 24 0
BBX 24 24 0 -2
BITMAP
000200
000380
000300
430300
7f8600
630620
630418
630c0c
630876
637f87
633c03
632003
630000
63100c
631ffe
7f180c
63180c
60180c
00180c
00180c
00180c
00180c
001ffc
00180c
ENDCHAR
STARTCHAR 2-03-78
ENCODING 9070
SWIDTH 1000 0
DWIDTH 24 0
BBX 24 24 0 -2
BITMAP
0001c0
000180
000180
430180
7f8186
637fff
630180
630180
630180
630180
630180
630180
63218c
633ffe
63300c
7f300c
63300c
60300c
00300c
00300c
00300c
003ffc
00300c
00300c
ENDCHAR
STARTCHAR 2-03-79
ENCODING 9071
SWIDTH 1000 0
DWIDTH 24 0
BBX 24 24 0 -2
BITMAP
0200c0
03ffe0
0300c0
0300c0
0300c0
03ffc0
0300c0
00000c
7ffffe
0300c0
0300c0
03ffc0
0300c0
0300c0
0300c0
03ffc0
0300c0
0300c0
0300f8
7fffc0
3f80c0
2000c0
0000c0
0000c0
ENDCHAR
STARTCHAR 2-03-80
ENCODING 9072
SWIDTH 1000 0
DWIDTH 24 0
BBX 24 24 0 -2
BITMAP
000380
000300
000306
46ffff
7f0300
660318
66fffc
660318
664318
667ff8
666318
666300
666306
66ffff
66c686
7e0686
660646
600c4e
000c64
001830
001838
00301f
00600e
018006
ENDCHAR
STARTCHAR 2-03-81
ENCODING 9073
SWIDTH 1000 0
DWIDTH 24 0
BBX 24 24 0 -2
BITMAP
0001c0
000180
000180
430180
7f8186
637fff
630180
630180
630180
630180
63018c
633ffe
630000
630000
63200c
7f3ffe
63300c
60300c
00300c
00300c
00300c
00300c
003ffc
00300c
ENDCHAR
STARTCHAR 2-03-82
ENCODING 9074
SWIDTH 1000 0
DWIDTH 24 0
BBX 24 24 0 -2
BITMAP
0001c0
000180
001180
431d80
7f9980
63198c
631ffe
633180
632180
634180
630180
630186
637fff
6307a0
6307a0
7f0590
630d90
600998
00198c
00118f
002186
00c186
000180
000180
ENDCHAR
STARTCHAR 2-03-83
ENCODING 9075
SWIDTH 1000 0
DWIDTH 24 0
BBX 24 24 0 -2
BITMAP
000ce0
000cc0
000cc0
460cc0
7f0cc4
668cc7
664cc6
666ccc
666cd0
666ce0
660cc0
660cc0
660cd0
661ccc
67ecc6
7eccc3
668cc3
600cc0
0018c2
0018c2
0030c3
0060ff
00c07e
030000
ENDCHAR
STARTCHAR 2-03-84
ENCODING 9076
SWIDTH 1000 0
DWIDTH 24 0
BBX 24 24 0 -2
BITMAP
000000
00000c
00fffe
460000
7f0000
660000
662018
663ffc
663018
663018
663018
663018
663ff8
663018
663018
7e3018
663018
603ff8
003018
000000
000000
000006
03ffff
000000
ENDCHAR
STARTCHAR 2-03-85
ENCODING 9077
SWIDTH 1000 0
DWIDTH 24 0
BBX 24 24 0 -2
BITMAP
001000
00180c
001bfe
4630cc
7f30cc
6630cc
6660cc
6660cc
66efff
66e0cc
6760cc
6660cc
6660cc
6660cc
6667fc
7e60cc
6660c0
6060c0
006180
006180
006300
006200
006400
006800
ENDCHAR
STARTCHAR 2-03-86
ENCODING 9078
SWIDTH 1000 0
DWIDTH 24 0
BBX 24 24 0 -2
BITMAP
008006
00ffff
00c006
46c006
7ec066
66dff6
66c006
66c006
66c006
66c866
66cff6
66cc66
66cc66
66cc66
66cc66
7ecc66
66cfe6
60cc66
00cc66
00c006
00c006
00c006
00c03e
00c00c
ENDCHAR
STARTCHAR 2-03-87
ENCODING 9079
SWIDTH 1000 0
DWIDTH 24 0
BBX 24 24 0 -2
BITMAP
000e70
000c60
000c60
460c66
7effff
660c60
660c60
660c60
660000
660800
660ee0
660cc4
661cc7
6618ce
6638cc
7e38d8
6658e0
6098c0
0019c0
001ac2
0018c2
0018c3
0018ff
00187e
ENDCHAR
STARTCHAR 2-03-88
ENCODING 9080
SWIDTH 1000 0
DWIDTH 24 0
BBX 24 24 0 -2
BITMAP
001000
001806
001fff
46300c
7f300c
66300c
6664cc
6667ec
66e4cc
66e4cc
6764cc
6664cc
6664cc
6664cc
6667cc
7e64cc
66600c
60600c
00600c
00600c
00600c
00600c
00607c
006018
ENDCHAR
STARTCHAR 2-03-89
ENCODING 9081
SWIDTH 1000 0
DWIDTH 24 0
BBX 24 24 0 -2
BITMAP
00200c
003ffe
43300c
7fb00c
63300c
633ffc
63300c
63300c
63300c
633ffc
63300c
63300c
63300c
63300c
633ffc
7f346c
630760
600660
000e62
000c62
001862
003063
00c07f
03003e
ENDCHAR
STARTCHAR 2-03-90
ENCODING 9082
SWIDTH 1000 0
DWIDTH 24 0
BBX 24 24 0 -2
BITMAP
0001c0
000180
000186
437fff
7f8180
632180
632186
633fff
636006
636004
636018
631ffc
630030
630020
630140
7f0186
637fff
600180
000180
000180
000180
000180
000f80
000300
ENDCHAR
STARTCHAR 2-03-91
ENCODING 9083
SWIDTH 1000 0
DWIDTH 24 0
BBX 24 24 0 -2
BITMAP
00380c
00301e
003138
4631e0
7f3180
663580
66ff80
663186
6631ff
663198
663198
663198
663598
663998
667198
7ef198
663198
603118
003118
003318
003218
003218
00f418
006418
ENDCHAR
STARTCHAR 2-03-92
ENCODING 9084
SWIDTH 1000 0
DWIDTH 24 0
BBX 24 24 0 -2
BITMAP
000030
0001f8
001f80
430180
7f8186
633fff
6303a0
630790
630598
63098c
63118f
636186
630030
633ff8
630630
7f0636
63067f
600c66
000c06
000806
00180e
00100c
00207c
004018
ENDCHAR
STARTCHAR 2-03-93
ENCODING 9085
SWIDTH 1000 0
DWIDTH 24 0
BBX 24 24 0 -2
BITMAP
000018
003ffc
000000
430000
7f8006
637fff
630000
630000
630018
633ffc
630000
630000
630018
633ffc
630000
7f0000
63200c
603ffe
00300c
00300c
00300c
00300c
003ffc
00300c
ENDCHAR
STARTCHAR 2-03-94
ENCODING 9086
SWIDTH 1000 0
DWIDTH 24 0
BBX 24 24 0 -2
BITMAP
000400
000700
000620
460410
7f0818
667ffc
663e0c
66200c
660000
661c00
661818
663ffc
662300
664300
660306
7effff
660680
600680
000c40
000c60
001838
00301f
00c00e
030006
ENDCHAR
STARTCHAR 2-04-01
ENCODING 9249
SWIDTH 1000 0
DWIDTH 24 0
BBX 24 24 0 -2
BITMAP
0001c0
000180
00018c
433ffe
7f8820
630438
630630
630620
630046
637fff
630000
630400
630700
630606
637fff
7f0c18
631830
601830
003760
0030c0
0001e0
000338
000c1c
00700c
ENDCHAR
STARTCHAR 2-04-02
ENCODING 9250
SWIDTH 1000 0
DWIDTH 24 0
BBX 24 24 0 -2
BITMAP
000000
004006
007fff
466006
7f61c6
666186
666186
666ff6
666186
666186
666ff6
666186
666186
666006
6667e6
7e6666
666666
60c666
00c666
0087e6
008006
010006
01003e
02000c
ENDCHAR
STARTCHAR 2-04-03
ENCODING 9251
SWIDTH 1000 0
DWIDTH 24 0
BBX 24 24 0 -2
BITMAP
0001c0
000180
000186
46ffff
7f0180
66218c
663ffe
66318c
66318c
66318c
663ffc
66318c
66318c
66318c
663ffc
7e33cc
6607a0
6007a0
000d90
001998
00318c
00618f
018186
000180
ENDCHAR
STARTCHAR 2-04-04
ENCODING 9252
SWIDTH 1000 0
DWIDTH 24 0
BBX 24 24 0 -2
BITMAP
001c00
001800
001806
ffffff
020100
0101c0
018180
018100
20020c
3ffffe
30000c
30180c
3018cc
37ffec
30180c
31198c
31ffcc
31818c
31818c
31818c
31ff8c
31818c
30007c
300018
ENDCHAR
STARTCHAR 2-04-05
ENCODING 9253
SWIDTH 1000 0
DWIDTH 24 0
BBX 24 24 0 -2
BITMAP
008c06
00ffff
00cc0c
46cc0c
7ec80c
66c80c
66d00c
66d1ec
66c92c
66c92c
66cd2c
66cd2c
66cd2c
66cd2c
66cdec
7ecc0c
66fc0c
60d80c
00c00c
00c00c
00c00c
00c00c
00c07c
00c018
ENDCHAR
STARTCHAR 2-04-06
ENCODING 9254
SWIDTH 1000 0
DWIDTH 24 0
BBX 24 24 0 -2
BITMAP
000e00
000c60
000ff0
461860
7f1860
661860
663fc0
6630c0
6600c6
66ffff
660300
664308
66330c
661b98
661ba0
7e03c0
660340
600f60
003b30
01e33e
00c31c
00830c
001f00
000600
ENDCHAR
STARTCHAR 2-04-07
ENCODING 9255
SWIDTH 1000 0
DWIDTH 24 0
BBX 24 24 0 -2
BITMAP
00c00c
23e23e
3f03f0
300300
300300
306306
3ff3ff
318318
318318
318318
618618
618618
418418
818818
000000
080030
0ffff8
0c0030
0c0030
0c0030
0c0030
0c0030
0ffff0
0c0030
ENDCHAR
STARTCHAR 2-04-08
ENCODING 9256
SWIDTH 1000 0
DWIDTH 24 0
BBX 24 24 0 -2
BITMAP
000670
000660
000660
460660
7f0666
667e7f
660660
660660
660660
66066c
667e7e
660660
660660
660660
660760
7efe66
66767f
604660
000660
000c60
000c60
001860
003060
00c060
ENDCHAR
STARTCHAR 2-04-09
ENCODING 9257
SWIDTH 1000 0
DWIDTH 24 0
BBX 24 24 0 -2
BITMAP
000100
0001c0
000180
43220c
7fbffe
63318c
63318c
63318c
633ffc
63318c
63330c
63330c
633ffc
630600
630ce0
7f18c0
6320c6
60ffff
0000c0
0000c0
0000c0
0000c0
0000c0
0000c0
ENDCHAR
STARTCHAR 2-04-10
ENCODING 9258
SWIDTH 1000 0
DWIDTH 24 0
BBX 24 24 0 -2
BITMAP
000006
ffffff
003000
086030
0ffff8
0c0030
0c0030
0ffff0
0c0030
0c0030
0ffff0
0c3830
007400
00e200
018180
0600f0
19ff3f
e00006
040060
07fff0
060060
060060
07ffe0
060060
ENDCHAR
STARTCHAR 2-04-11
ENCODING 9259
SWIDTH 1000 0
DWIDTH 24 0
BBX 24 24 0 -2
BITMAP
000300
000380
000640
460c60
7f1830
66301c
666fef
678006
663ff8
663018
663018
663ff8
663018
660000
660c30
7e0c32
66ffff
600c30
000c30
001830
001830
003030
006030
018030
ENDCHAR
STARTCHAR 2-04-12
ENCODING 9260
SWIDTH 1000 0
DWIDTH 24 0
BBX 24 24 0 -2
BITMAP
004018
007ffc
006318
466318
7f6318
667ff8
666318
666318
666318
667ff8
666018
660000
66000c
67fffe
663210
7e321c
663138
603160
003080
0030c0
003670
01f83e
00e01c
00800c
ENDCHAR
STARTCHAR 2-04-13
ENCODING 9261
SWIDTH 1000 0
DWIDTH 24 0
BBX 24 24 0 -2
BITMAP
001c70
001860
001864
431867
7f9f6e
631870
631862
631862
631b63
637c7f
63303e
632100
6301c0
63118c
631ffe
7f180c
63180c
60180c
001ffc
00180c
00180c
00180c
001ffc
00180c
ENDCHAR
STARTCHAR 2-04-14
ENCODING 9262
SWIDTH 1000 0
DWIDTH 24 0
BBX 24 24 0 -2
BITMAP
0001c0
000180
00018c
433ffe
7f8020
630838
630430
630660
630640
630086
637fff
630000
631018
631ffc
631818
7f1818
631818
601ff8
001818
001818
001818
001818
001ff8
001818
ENDCHAR
STARTCHAR 2-04-15
ENCODING 9263
SWIDTH 1000 0
DWIDTH 24 0
BBX 24 24 0 -2
BITMAP
003886
0030ff
0030c6
4630c6
7f36c6
66ffc6
6630c6
6630fe
6630c6
6630c6
6630c6
6630c6
66fcc6
66ccfe
66ccc6
7eccc6
66ccc6
60ccc6
00ccc6
00fd86
00cd86
00c106
00023e
00040c
ENDCHAR
STARTCHAR 2-04-16
ENCODING 9264
SWIDTH 1000 0
DWIDTH 24 0
BBX 24 24 0 -2
BITMAP
001c70
001860
001866
46ffff
7f1860
661860
660300
660700
660680
660c60
661838
66301f
666fe6
678000
660000
7e2018
663ffc
603018
003018
003018
003018
003ff8
003018
003018
ENDCHAR
STARTCHAR 2-04-17
ENCODING 9265
SWIDTH 1000 0
DWIDTH 24 0
BBX 24 24 0 -2
BITMAP
000c00
005e06
0071ff
466066
7f6066
666866
666466
666646
667ec6
67e69e
66c10c
668200
660000
662018
663ffc
7e3118
663118
603118
003ff8
003118
003118
003118
003ff8
003018
ENDCHAR
STARTCHAR 2-04-18
ENCODING 9266
SWIDTH 1000 0
DWIDTH 24 0
BBX 24 24 0 -2
BITMAP
000006
007fff
000018
430018
7f9f98
631198
631198
631f98
630018
6300f8
630030
630006
637fff
630018
630018
7f1f98
631198
601198
001198
001f98
000018
000018
0000f8
000030
ENDCHAR
STARTCHAR 2-04-19
ENCODING 9267
SWIDTH 1000 0
DWIDTH 24 0
BBX 24 24 0 -2
BITMAP
0200c0
03ffe0
0300c0
0300c0
0300c0
03ffc0
0300c0
40c206
7fe3ff
60c306
60c306
60c306
7fc3fe
60db00
001806
ffffff
007c00
00fa00
01d900
0318c0
0c1870
30183f
c0181e
001806
ENDCHAR
STARTCHAR 2-04-20
ENCODING 9268
SWIDTH 1000 0
DWIDTH 24 0
BBX 24 24 0 -2
BITMAP
000180
00018c
007ffe
430180
7f818c
633ffe
630180
630186
637fff
630100
632620
631838
630c70
630ec0
63030c
7ffff6
637d83
604183
0011a0
001d98
00398c
00618e
00c186
010180
ENDCHAR
STARTCHAR 2-04-21
ENCODING 9269
SWIDTH 1000 0
DWIDTH 24 0
BBX 24 24 0 -2
BITMAP
000010
0007f8
001010
461808
7f300c
662067
664ff2
668000
660000
660010
6613f8
661810
663008
66200c
664007
7e7ffa
66a498
602498
002498
002498
002498
00249a
01ffff
000000
ENDCHAR
STARTCHAR 2-04-22
ENCODING 9270
SWIDTH 1000 0
DWIDTH 24 0
BBX 24 24 0 -2
BITMAP
000380
000300
000318
467ffc
7f0300
660300
660306
66ffff
660c00
660820
661810
661018
66fffc
667c0c
66400c
7e0000
667ff8
606498
006498
006498
006498
00649a
03ffff
000000
ENDCHAR
STARTCHAR 2-04-23
ENCODING 9271
SWIDTH 1000 0
DWIDTH 24 0
BBX 24 24 0 -2
BITMAP
000006
007fff
000000
431018
7f9ffc
631818
631818
631818
631ff8
630000
634006
637fff
636666
636666
636666
7f6c3e
637006
606006
006ff6
006186
006186
006186
00619e
00618c
ENDCHAR
STARTCHAR 2-04-24
ENCODING 9272
SWIDTH 1000 0
DWIDTH 24 0
BBX 24 24 0 -2
BITMAP
000006
01ffff
000cc0
460cc0
7e8ccc
66fffe
66cccc
66cccc
66cccc
66cccc
66fffc
66c30c
660300
660306
67ffff
7e0f80
660f40
601b20
001b30
003318
00631c
00c30f
030306
000300
ENDCHAR
STARTCHAR 2-04-25
ENCODING 9273
SWIDTH 1000 0
DWIDTH 24 0
BBX 24 24 0 -2
BITMAP
000000
004018
007ffc
466018
7f6398
666318
666618
666dd8
6668d8
666018
667ff8
666018
660000
66800c
66fffe
7ecccc
66cccc
60cccc
00cccc
00cccc
00cccc
00cccc
03ffff
000000
ENDCHAR
STARTCHAR 2-04-26
ENCODING 9274
SWIDTH 1000 0
DWIDTH 24 0
BBX 24 24 0 -2
BITMAP
000180
00018c
007ffe
460180
7f0180
660186
66ffff
660000
660180
66018c
667ffe
660180
660180
660186
66ffff
7e0000
660100
600d88
002cc4
002cd6
004c13
01cc1b
018ff8
0007f0
ENDCHAR
STARTCHAR 2-04-27
ENCODING 9275
SWIDTH 1000 0
DWIDTH 24 0
BBX 24 24 0 -2
BITMAP
0011c0
001db0
43199c
7fb18e
632186
634180
633ffc
63300c
63300c
63300c
633ffc
63300c
63300c
63300c
633ffc
7f300c
63300c
60300c
003ffc
001000
001c30
00380e
006007
018003
ENDCHAR
STARTCHAR 2-04-28
ENCODING 9276
SWIDTH 1000 0
DWIDTH 24 0
BBX 24 24 0 -2
BITMAP
0001c0
00018c
463ffe
7f018c
66018c
667fff
66018c
66018c
663ffc
660180
667187
666996
666db6
6665a6
666186
7e7ffe
666386
6063c6
0065a6
0045b6
004996
00d196
008186
010186
ENDCHAR
STARTCHAR 2-04-29
ENCODING 9277
SWIDTH 1000 0
DWIDTH 24 0
BBX 24 24 0 -2
BITMAP
000308
00ff1c
0006b0
468642
7e4c47
666c2c
667830
661018
66239c
66430f
668306
674318
667ffc
666318
666318
7e6318
667ff8
606318
000300
000310
000308
01fffc
00fc06
008006
ENDCHAR
STARTCHAR 2-04-30
ENCODING 9278
SWIDTH 1000 0
DWIDTH 24 0
BBX 24 24 0 -2
BITMAP
000400
000700
000620
460818
7f7fec
663c0c
660000
66630c
664308
669692
67f65f
668c31
661918
66338f
666706
7e8c40
6618e0
6061c4
00070e
00181c
006070
0001c0
000e00
007000
ENDCHAR
STARTCHAR 2-04-31
ENCODING 9279
SWIDTH 1000 0
DWIDTH 24 0
BBX 24 24 0 -2
BITMAP
000000
000606
00feff
463636
7e6666
66cece
661e1e
663636
666666
668686
660700
660c80
661860
663038
66621f
7f8706
660c40
6030e0
00c188
000e1c
007070
0001c0
000700
007800
ENDCHAR
STARTCHAR 2-04-32
ENCODING 9280
SWIDTH 1000 0
DWIDTH 24 0
BBX 24 24 0 -2
BITMAP
0011c8
00198c
003198
46c1e0
7f69b4
662d96
66198c
661188
662592
66ffff
6672b9
6640a4
660082
667fff
666080
7e6088
6670cc
606c58
006670
006622
004072
00c0da
00830f
010c03
ENDCHAR
STARTCHAR 2-04-33
ENCODING 9281
SWIDTH 1000 0
DWIDTH 24 0
BBX 24 24 0 -2
BITMAP
000200
000380
00230c
433ffe
7fb00c
633ffc
63300c
633ffc
63300c
63300c
633ffc
63300c
6301c0
637dbe
630180
7f7dbe
630180
600186
00ffff
000180
000180
000180
000180
000180
ENDCHAR
STARTCHAR 2-04-34
ENCODING 9282
SWIDTH 1000 0
DWIDTH 24 0
BBX 24 24 0 -2
BITMAP
008686
00feff
00c6c6
46c6c6
7efefe
66c6c6
66c6c6
66c6c6
66fefe
66c006
66c006
66c866
66cff6
66cc66
66cc66
7ecfe6
66cc66
60cc66
00cfe6
00cc66
00c006
00c006
00c03e
00c00c
ENDCHAR
STARTCHAR 2-04-35
ENCODING 9283
SWIDTH 1000 0
DWIDTH 24 0
BBX 24 24 0 -2
BITMAP
004646
007f7f
004646
464646
7f4646
667e7e
660000
663ffc
66318c
66318c
66318c
663ffc
66318c
66318c
66318c
7e3ffc
660180
600180
000186
007fff
000180
000180
000180
000180
ENDCHAR
STARTCHAR 2-04-36
ENCODING 9284
SWIDTH 1000 0
DWIDTH 24 0
BBX 24 24 0 -2
BITMAP
00400c
007ffe
00630c
46734c
7f7b7c
666f6c
666f4c
66678c
66630c
667ffc
66630c
660300
66030c
667ffe
660300
7e0300
660306
60ffff
000000
009108
0088c6
018c63
038c63
030c63
ENDCHAR
STARTCHAR 2-04-37
ENCODING 9285
SWIDTH 1000 0
DWIDTH 24 0
BBX 24 24 0 -2
BITMAP
004646
007f7f
006666
466666
7f7e7e
666060
666262
666262
667f7f
663e3e
660000
660c60
660c64
667ffe
660c60
7e0c60
660c62
60ffff
000000
001000
001c70
00381c
00600e
018006
ENDCHAR
STARTCHAR 2-04-38
ENCODING 9286
SWIDTH 1000 0
DWIDTH 24 0
BBX 24 24 0 -2
BITMAP
000380
000300
000318
467ffc
7f1040
660c60
660440
66008c
66fffe
660000
667ff8
666318
666318
667ff8
666318
7e6318
667ff8
600300
000318
007ffc
000300
00030c
01fffe
000000
ENDCHAR
STARTCHAR 2-04-39
ENCODING 9287
SWIDTH 1000 0
DWIDTH 24 0
BBX 24 24 0 -2
BITMAP
000300
000300
000680
430640
7f8c60
631838
63301f
636fee
638006
630000
63264c
633f7e
63264c
63264c
63264c
7f3e7c
630000
601020
001c38
001830
003668
002244
004086
008106
ENDCHAR
STARTCHAR 2-04-40
ENCODING 9288
SWIDTH 1000 0
DWIDTH 24 0
BBX 24 24 0 -2
BITMAP
000070
004060
002060
4637fe
7f3060
660060
664fff
662108
66308c
663088
663010
6603fe
663060
67f860
6633fe
7e3060
663060
6037ff
003060
003060
003060
01e800
00c7ff
0081fe
ENDCHAR
STARTCHAR 2-04-41
ENCODING 9289
SWIDTH 1000 0
DWIDTH 24 0
BBX 24 24 0 -2
BITMAP
002080
0030e0
0060c0
46fcc0
7eccc0
66ccc6
66fcff
66cc8c
66cd8c
66fd4c
66024c
66304c
663058
67ff58
666058
7e6030
667e30
606620
006670
00c650
00ccd8
018c8f
023d0e
001a06
ENDCHAR
STARTCHAR 2-04-42
ENCODING 9290
SWIDTH 1000 0
DWIDTH 24 0
BBX 24 24 0 -2
BITMAP
006300
006304
00c29e
4c8680
7d04c0
6e0460
6c6860
6c6802
6cd7bf
6cc30c
6dc30c
6ec3cc
6cdfec
6cc30c
6cc34c
7cd36c
6ccb6c
60cf4c
00cf8c
00c30c
00c3ec
00df0c
00dc1c
00d018
ENDCHAR
STARTCHAR 2-04-43
ENCODING 9291
SWIDTH 1000 0
DWIDTH 24 0
BBX 24 24 0 -2
BITMAP
010006
01ffff
018000
4da31c
7dbf98
6db31a
6dbf1b
6db319
6db318
6dbf7f
6d8018
6da318
6dbf98
6db314
6db334
7dbf34
6db334
613336
033f26
033326
023363
023343
043342
003680
ENDCHAR
STARTCHAR 2-04-44
ENCODING 9292
SWIDTH 1000 0
DWIDTH 24 0
BBX 24 24 0 -2
BITMAP
0001c0
000180
000186
46ffff
7f0440
660266
66fb5c
662994
662994
666996
66499a
6659b3
668181
66300c
66300c
7e3ffc
66300c
60300c
003ffc
00300c
00600c
00600c
00c00c
01000c
ENDCHAR
STARTCHAR 2-04-45
ENCODING 9293
SWIDTH 1000 0
DWIDTH 24 0
BBX 24 24 0 -2
BITMAP
001000
001860
003ff0
4630c0
7f6186
66ffff
666186
666186
667ffe
666186
666186
667ffe
664884
664ce6
66cc63
7ec003
663ffc
60300c
00300c
003ffc
00300c
00300c
003ffc
00300c
ENDCHAR
STARTCHAR 2-04-46
ENCODING 9294
SWIDTH 1000 0
DWIDTH 24 0
BBX 24 24 0 -2
BITMAP
20c418
3fe7fc
30c618
30c618
3fc7f8
30c618
000004
3ffffe
301800
301830
3ffff8
300030
300030
3ffff0
301830
301806
3fffff
300000
00c418
3fe7fc
30c618
30c618
3fc7f8
30c618
ENDCHAR
STARTCHAR 2-04-47
ENCODING 9295
SWIDTH 1000 0
DWIDTH 24 0
BBX 24 24 0 -2
BITMAP
0001c0
000180
004186
467fff
7f6000
666318
666ffe
666318
6663f8
666002
667fff
666040
666ffe
666c46
666c46
7e6ffe
666c46
60cc46
00cffe
008000
018210
01030c
020606
001806
ENDCHAR
STARTCHAR 2-04-48
ENCODING 9296
SWIDTH 1000 0
DWIDTH 24 0
BBX 24 24 0 -2
BITMAP
001ce0
0018c6
0018ff
46ffc0
7e44c0
6626fe
662406
661006
66fe86
6600fe
6600c0
66fec4
66c6fe
66c6c0
66fec4
7ec6fe
66c6c0
60fec4
00c6fe
00c6c0
00c6c2
00c6c3
00deff
00cc7e
ENDCHAR
STARTCHAR 2-04-49
ENCODING 9297
SWIDTH 1000 0
DWIDTH 24 0
BBX 24 24 0 -2
BITMAP
070000
060001
0617ff
fff830
060030
062060
7ff070
0000ec
0001e6
7fe263
606c63
606060
7fe060
20c206
1883ff
191306
fffb06
000306
000306
7fe306
606306
6063fe
7fe306
606306
ENDCHAR
STARTCHAR 2-04-50
ENCODING 9298
SWIDTH 1000 0
DWIDTH 24 0
BBX 24 24 0 -2
BITMAP
0e1326
0c1fbf
0cd326
fff326
001f3e
000000
7f880c
618ffe
618ccc
7f8ccc
000ccc
000ffc
7fcccc
018ccc
0a0ccc
0c0ffc
0cc0c0
ff00c6
7c1fff
4c00c0
0c00c0
0c00c0
7c00c0
1800c0
ENDCHAR
STARTCHAR 2-04-51
ENCODING 9299
SWIDTH 1000 0
DWIDTH 24 0
BBX 24 24 0 -2
BITMAP
4a5006
7bdfff
4a5806
4a5806
4a5806
7bdffe
001806
001888
7f9888
4c9888
4c9bfe
4c9888
7f9888
4c9888
4c9fff
4c9920
7f9922
0c1937
0c511c
fff110
0c2118
0c47ef
0c038e
0c0206
ENDCHAR
STARTCHAR 2-04-52
ENCODING 9300
SWIDTH 1000 0
DWIDTH 24 0
BBX 24 24 0 -2
BITMAP
0e0070
0c0060
0c4062
ffefff
0c0060
0c8064
7fc7fe
000000
40c406
7fe7ff
60c606
60c606
7fc7fe
21820c
110188
120190
ffefff
000000
40c406
7fe7ff
60c606
60c606
7fc7fe
60c606
ENDCHAR
STARTCHAR 2-04-53
ENCODING 9301
SWIDTH 1000 0
DWIDTH 24 0
BBX 24 24 0 -2
BITMAP
008000
00c000
018000
21000c
3ffffe
30000c
30010c
3001cc
33018c
30c30c
30630c
30360c
301c0c
301c0c
30360c
30630c
30c18c
3181cc
3300cc
3c00cc
30000c
3ffffc
30000c
300000
ENDCHAR
STARTCHAR 2-04-54
ENCODING 9302
SWIDTH 1000 0
DWIDTH 24 0
BBX 24 24 0 -2
BITMAP
400006
7fffff
600006
600066
6ffff6
600e06
600c06
601806
601806
603006
607b06
60d9c6
6198e6
631876
6c1836
601806
601806
601806
601806
601806
601806
600006
7ffffe
600006
ENDCHAR
STARTCHAR 2-04-55
ENCODING 9303
SWIDTH 1000 0
DWIDTH 24 0
BBX 24 24 0 -2
BITMAP
400006
7fffff
600006
600206
607f06
610206
61c106
618186
6300e6
66007e
6c1c36
701816
601806
601986
63ffc6
601806
601806
601806
601866
6ffff6
600006
600006
7ffffe
600006
ENDCHAR
STARTCHAR 2-04-56
ENCODING 9304
SWIDTH 1000 0
DWIDTH 24 0
BBX 24 24 0 -2
BITMAP
400006
7fffff
600006
600306
600f86
607806
639806
601806
6018c6
67ffe6
603c06
603c06
607a06
607a06
60d906
60d986
6198c6
6318f6
6c1866
601806
601806
600006
7ffffe
600006
ENDCHAR
STARTCHAR 2-04-57
ENCODING 9305
SWIDTH 1000 0
DWIDTH 24 0
BBX 24 24 0 -2
BITMAP
400006
7fffff
602006
603806
613186
61ffc6
618186
618186
61ff86
618186
618186
61ff86
600006
600186
63ffc6
601806
601986
63ffc6
601806
601866
6ffff6
600006
7ffffe
600006
ENDCHAR
STARTCHAR 2-04-58
ENCODING 9306
SWIDTH 1000 0
DWIDTH 24 0
BBX 24 24 0 -2
BITMAP
400006
7fffff
600006
601c06
6018c6
63ffe6
6018c6
6ffff6
6018c6
63ffc6
601806
67ffe6
601806
6ffff6
600006
63ffc6
6300c6
63ffc6
6300c6
63ffc6
6300c6
600006
7ffffe
600006
ENDCHAR
STARTCHAR 2-04-59
ENCODING 9307
SWIDTH 1000 0
DWIDTH 24 0
BBX 24 24 0 -2
BITMAP
000060
1ffff0
010060
0080c0
004180
006300
003600
001c00
003700
0063e0
0180ff
0e003e
f01c0c
001800
001800
001830
1ffff8
001800
001800
001800
001800
001806
ffffff
000000
ENDCHAR
STARTCHAR 2-04-60
ENCODING 9308
SWIDTH 1000 0
DWIDTH 24 0
BBX 24 24 0 -2
BITMAP
000e00
1c0c00
180c00
180c00
180c00
180c30
18fff8
1a0c30
ff0c30
180c30
180c30
184c30
182c30
181c30
180c30
198e30
1e0b30
f81bb0
6019b0
403032
003032
006033
00c03f
03001e
ENDCHAR
STARTCHAR 2-04-61
ENCODING 9309
SWIDTH 1000 0
DWIDTH 24 0
BBX 24 24 0 -2
BITMAP
000000
1c000c
187ffe
180180
180180
180180
1b0180
ff8180
180180
180186
18ffff
180180
180180
180180
180180
198180
1e0180
f80180
600180
400180
000180
000180
000f80
000300
ENDCHAR
STARTCHAR 2-04-62
ENCODING 9310
SWIDTH 1000 0
DWIDTH 24 0
BBX 24 24 0 -2
BITMAP
000700
1c0600
180600
180630
187ff8
180630
1b0630
ff8632
180432
180c33
18083f
18101e
1861c0
180180
198180
1e0186
f8ffff
600180
400180
000180
000180
000180
000180
000180
ENDCHAR
STARTCHAR 2-04-63
ENCODING 9311
SWIDTH 1000 0
DWIDTH 24 0
BBX 24 24 0 -2
BITMAP
000300
1c0300
180680
180680
180c40
180c40
1b1820
ff9030
18201c
1840cf
189fe6
180000
180000
180030
183ff8
198030
1e0030
f80060
600060
400060
0000c0
0000c0
000180
000180
ENDCHAR
STARTCHAR 2-04-64
ENCODING 9312
SWIDTH 1000 0
DWIDTH 24 0
BBX 24 24 0 -2
BITMAP
000800
1c0e00
180c00
180c00
181800
181806
1b1fff
ffb020
182838
184830
188830
180460
180460
180640
1802c0
198380
1e0180
f803c0
6006e0
400c70
001838
00301f
00c00e
070006
ENDCHAR
STARTCHAR 2-04-65
ENCODING 9313
SWIDTH 1000 0
DWIDTH 24 0
BBX 24 24 0 -2
BITMAP
000100
007f80
010100
01c0c0
038070
06003f
0fffde
3060c6
c060c0
00c0c0
00c1c0
018180
030f80
0c0300
700000
001c00
001800
001830
1ffff8
001800
001800
00180c
7ffffe
000000
ENDCHAR
STARTCHAR 2-04-66
ENCODING 9314
SWIDTH 1000 0
DWIDTH 24 0
BBX 24 24 0 -2
BITMAP
002018
1c3ffc
183018
183018
183418
183318
1b3198
ffb198
183198
183018
183018
18301a
19ffff
183018
183018
19b018
1e3018
f83018
606018
406018
004018
00c018
0080f8
010030
ENDCHAR
STARTCHAR 2-04-67
ENCODING 9315
SWIDTH 1000 0
DWIDTH 24 0
BBX 24 24 0 -2
BITMAP
000000
1c0018
1821fc
183f00
183000
183000
1b300c
ffbffe
18300c
18300c
18300c
18300c
18300c
183ffc
18300c
19b00c
1e3000
f83000
606000
406000
004000
00c000
008000
010000
ENDCHAR
STARTCHAR 2-04-68
ENCODING 9316
SWIDTH 1000 0
DWIDTH 24 0
BBX 24 24 0 -2
BITMAP
000380
1c0300
180300
181300
181306
183fff
1a3006
ff6004
186008
180e00
180c00
180c18
180c3c
180c70
180dc0
198e00
1e0c00
f80c00
600c04
400c04
000c04
000c06
000ffe
0007fc
ENDCHAR
STARTCHAR 2-04-69
ENCODING 9317
SWIDTH 1000 0
DWIDTH 24 0
BBX 24 24 0 -2
BITMAP
000000
1c000c
187ffe
180180
1801c0
180380
1b0300
ff8700
180740
180f30
181b18
18330c
186306
188306
180300
198300
1e0300
f80300
600300
400300
000300
000006
01ffff
000000
ENDCHAR
STARTCHAR 2-04-70
ENCODING 9318
SWIDTH 1000 0
DWIDTH 24 0
BBX 24 24 0 -2
BITMAP
002070
383860
303060
303060
302060
302066
3049ff
354e66
fe8c66
30cc66
30d866
30d866
301066
303066
302066
302866
3644c6
f844c6
609ec6
43e68e
01c18c
01010c
00027c
000418
ENDCHAR
STARTCHAR 2-04-71
ENCODING 9319
SWIDTH 1000 0
DWIDTH 24 0
BBX 24 24 0 -2
BITMAP
001c00
001800
001830
1ffff8
001800
001800
00180c
7ffffe
00c300
00c300
018304
018304
0303fe
0601fc
381c00
001800
001830
1ffff8
001800
001800
001800
00180c
7ffffe
000000
ENDCHAR
STARTCHAR 2-04-72
ENCODING 9320
SWIDTH 1000 0
DWIDTH 24 0
BBX 24 24 0 -2
BITMAP
000018
1c007c
1823e0
183e00
183000
183000
1b3000
ffb000
183000
183004
183ffe
183060
183060
183060
183060
19b060
1e3060
f83060
603060
403060
003060
003066
03ffff
000000
ENDCHAR
STARTCHAR 2-04-73
ENCODING 9321
SWIDTH 1000 0
DWIDTH 24 0
BBX 24 24 0 -2
BITMAP
000018
1c41fc
187f80
186180
186180
186180
1a6180
ff6180
18618c
187ffe
186180
186180
186180
1860c0
1860c0
1b60c0
fc60c0
706662
43f862
01e032
01003a
00031f
01ff8f
000006
ENDCHAR
STARTCHAR 2-04-74
ENCODING 9322
SWIDTH 1000 0
DWIDTH 24 0
BBX 24 24 0 -2
BITMAP
000000
1c2018
183ffc
183018
183018
183018
1b3018
ffbff8
183098
183080
183080
183040
183040
186460
186320
1b61b0
fc4198
70c01c
40980f
010606
000380
0001c0
0000e0
000060
ENDCHAR
STARTCHAR 2-04-75
ENCODING 9323
SWIDTH 1000 0
DWIDTH 24 0
BBX 24 24 0 -2
BITMAP
000300
1c0300
180680
180640
180c60
180c30
1b181c
ffb00f
186006
188030
181ff8
180000
180000
18000c
187ffe
180300
1b0600
fc0600
700420
400c10
000818
007fec
003e0c
00200c
ENDCHAR
STARTCHAR 2-04-76
ENCODING 9324
SWIDTH 1000 0
DWIDTH 24 0
BBX 24 24 0 -2
BITMAP
000e70
1c0c60
180c60
180c60
180c60
180c6c
187ffe
1b0c60
ff8c60
180c60
180c60
180c60
180c60
180c66
18ffff
180000
1b0000
fc0840
700e30
401c18
00180c
00300e
006006
018006
ENDCHAR
STARTCHAR 2-04-77
ENCODING 9325
SWIDTH 1000 0
DWIDTH 24 0
BBX 24 24 0 -2
BITMAP
001c00
001800
001800
0018c0
07ffe0
001800
001800
001800
00180c
7ffffe
000000
0700e0
0600c0
0600c0
0600c0
0640cc
7feffe
0600c0
0600c0
0600c0
06e0c0
ff00c6
781fff
400000
ENDCHAR
STARTCHAR 2-04-78
ENCODING 9326
SWIDTH 1000 0
DWIDTH 24 0
BBX 24 24 0 -2
BITMAP
000800
1c0e00
180c30
180ff8
181860
1810c0
1b3080
ffa106
187fff
18b000
183000
183218
1833fc
183318
183318
19b318
1e3318
f83378
603330
402302
002302
004303
0043ff
0081fe
ENDCHAR
STARTCHAR 2-04-79
ENCODING 9327
SWIDTH 1000 0
DWIDTH 24 0
BBX 24 24 0 -2
BITMAP
0001c0
1c0180
180180
182186
183fff
186006
1b6004
ff8020
1800f0
1807f8
183f00
180300
180300
180306
18ffff
180300
1b0300
fc0300
700300
400304
000304
000306
0003fe
0001fc
ENDCHAR
STARTCHAR 2-04-80
ENCODING 9328
SWIDTH 1000 0
DWIDTH 24 0
BBX 24 24 0 -2
BITMAP
0001c0
1c0180
180180
182186
183fff
186006
1b6004
ff8070
180060
180060
180066
187fff
180060
180060
181060
198c60
1e0660
f80660
600060
400060
000060
000060
0003e0
0000c0
ENDCHAR
STARTCHAR 2-04-81
ENCODING 9329
SWIDTH 1000 0
DWIDTH 24 0
BBX 24 24 0 -2
BITMAP
0001c0
1c0180
180180
18398c
1831fe
183180
1a3180
ff3180
183186
19ffff
180180
182180
183988
18318e
18619c
1b4198
fc8fb8
710330
400060
0000c0
000180
000600
001800
00e000
ENDCHAR
STARTCHAR 2-04-82
ENCODING 9330
SWIDTH 1000 0
DWIDTH 24 0
BBX 24 24 0 -2
BITMAP
0001c0
1c0180
180180
18018c
183ffe
180180
180180
1b0180
ff8186
187fff
180660
180660
184668
187664
186666
186663
1b4663
fcce63
708c60
410c60
001860
001060
0023e0
0040c0
ENDCHAR
STARTCHAR 2-04-83
ENCODING 9331
SWIDTH 1000 0
DWIDTH 24 0
BBX 24 24 0 -2
BITMAP
000380
1c0300
180300
184318
187ffc
186018
1a6018
ff6018
187ff8
186018
186018
186018
187ff8
186204
18620e
1b6118
fc6160
706080
4060c0
006060
006738
03f81f
01c00e
010006
ENDCHAR
STARTCHAR 2-04-84
ENCODING 9332
SWIDTH 1000 0
DWIDTH 24 0
BBX 24 24 0 -2
BITMAP
000010
1c101c
180c18
180630
180620
18004c
1b3ffe
ff8660
180660
180660
188664
184667
186666
182666
18366c
19b66c
1e3668
f83668
600660
400660
000660
000666
007fff
000000
ENDCHAR
STARTCHAR 2-04-85
ENCODING 9333
SWIDTH 1000 0
DWIDTH 24 0
BBX 24 24 0 -2
BITMAP
00200c
1c3ffe
18300c
18300c
18300c
18300c
1b3ffc
ffb00c
1830e0
1830c0
1830c6
183fff
1830c0
1830c0
19b0c0
1e28cc
f86ffe
606c0c
404c0c
00cc0c
008c0c
010c0c
000ffc
000c0c
ENDCHAR
STARTCHAR 2-04-86
ENCODING 9334
SWIDTH 1000 0
DWIDTH 24 0
BBX 24 24 0 -2
BITMAP
0001c0
1c0180
180180
182186
183fff
186006
1b6004
ff8000
180006
187fff
180180
180180
180180
18218c
1839fe
19b180
1e3180
f83180
603180
406980
006780
0043e0
0080ff
01001e
ENDCHAR
STARTCHAR 2-04-87
ENCODING 9335
SWIDTH 1000 0
DWIDTH 24 0
BBX 24 24 0 -2
BITMAP
0001c0
1c0180
182180
182186
183fff
186006
186004
1b0008
ffb000
18368c
183ffe
1826cc
1866cc
1876cc
185ecc
189ecc
180cdc
1b0ccc
fc18c0
7018c2
4030c2
0060c3
00c0ff
03007e
ENDCHAR
STARTCHAR 2-04-88
ENCODING 9336
SWIDTH 1000 0
DWIDTH 24 0
BBX 24 24 0 -2
BITMAP
000018
1c10fc
181f80
181800
181908
181884
1b30c6
ffb0c6
1820c6
184000
1801c0
180180
180186
187fff
1803c0
1987a0
1e07a0
f80d90
600d98
40198c
00318f
006186
018182
000180
ENDCHAR
STARTCHAR 2-04-89
ENCODING 9337
SWIDTH 1000 0
DWIDTH 24 0
BBX 24 24 0 -2
BITMAP
001018
1c1ffc
181800
181800
181830
181ff8
1b1800
ff9800
181830
181ff8
181800
181800
181806
19ffff
181908
19990c
1e1888
f81890
601840
401860
001b30
00fc3e
00701c
00400c
ENDCHAR
STARTCHAR 2-04-90
ENCODING 9338
SWIDTH 1000 0
DWIDTH 24 0
BBX 24 24 0 -2
BITMAP
002018
1c3ffc
183018
183018
183018
183ff8
1b3018
ffb018
183018
183ff8
183418
180600
180c06
181fff
183336
1b6336
fc8666
710c66
4018c6
003186
00c30e
00060c
000c7c
000018
ENDCHAR
STARTCHAR 2-04-91
ENCODING 9339
SWIDTH 1000 0
DWIDTH 24 0
BBX 24 24 0 -2
BITMAP
000380
1c0300
180306
19ffff
180000
180000
1b3ff0
ffb030
183030
183ff0
180000
180018
18fffc
180030
198060
1e0280
f80306
63ffff
400300
000300
000300
000300
001f00
000600
ENDCHAR
STARTCHAR 2-04-92
ENCODING 9340
SWIDTH 1000 0
DWIDTH 24 0
BBX 24 24 0 -2
BITMAP
000018
1c1ffc
180018
18001a
187fff
180018
1b0018
ff9ff8
180000
184006
187fff
18c184
18c180
18218c
183ffe
19b18c
1e318c
f8318c
60318c
40318c
0031bc
003198
000180
000180
ENDCHAR
STARTCHAR 2-04-93
ENCODING 9341
SWIDTH 1000 0
DWIDTH 24 0
BBX 24 24 0 -2
BITMAP
000300
1c278c
183c3e
18300c
18300c
18300c
1b3e7c
ffb00c
18300c
18300c
18300c
183ffc
18306c
180860
180e60
198c60
1e0c60
f80c60
601862
401862
003062
002063
00407f
01803e
ENDCHAR
STARTCHAR 2-04-94
ENCODING 9342
SWIDTH 1000 0
DWIDTH 24 0
BBX 24 24 0 -2
BITMAP
001998
1c1998
181998
18199a
187fff
181998
1b1998
ff9998
1819f8
181800
181802
181fff
181800
1801c0
180186
1b7fff
fc03a0
7007a0
400590
000d98
00198f
00318e
004186
000180
ENDCHAR
STARTCHAR 2-05-01
ENCODING 9505
SWIDTH 1000 0
DWIDTH 24 0
BBX 24 24 0 -2
BITMAP
002018
1c3bfc
183018
183018
18301a
186fff
1a6000
ff6200
186380
18e30c
18e3fe
196660
186460
186860
186066
1b6fff
fc60d0
7060d0
4060d8
006088
00618c
00610e
006207
006c06
ENDCHAR
STARTCHAR 2-05-02
ENCODING 9506
SWIDTH 1000 0
DWIDTH 24 0
BBX 24 24 0 -2
BITMAP
000002
1cffff
180180
184106
187fff
186666
1a6666
ff6666
186666
186666
186666
18666e
186004
1801c0
180180
1b0186
fc7fff
700180
400340
000320
000630
000c1c
00180f
006006
ENDCHAR
STARTCHAR 2-05-03
ENCODING 9507
SWIDTH 1000 0
DWIDTH 24 0
BBX 24 24 0 -2
BITMAP
06020c
2c33fe
3ffb0c
30330c
3ff30c
30330c
30330c
3ff30c
00030c
30637c
31f318
3e0300
302300
303300
1fe300
001c00
001800
001830
1ffff8
001800
001800
00180c
7ffffe
000000
ENDCHAR
STARTCHAR 2-05-04
ENCODING 9508
SWIDTH 1000 0
DWIDTH 24 0
BBX 24 24 0 -2
BITMAP
000018
1c01fc
183f80
180180
180186
18ffff
1b0180
ff8180
183ffc
18318c
18318c
183ffc
18318c
18318c
18318c
19bffc
1e0180
f8018c
607ffe
400180
000180
000186
00ffff
000000
ENDCHAR
STARTCHAR 2-05-05
ENCODING 9509
SWIDTH 1000 0
DWIDTH 24 0
BBX 24 24 0 -2
BITMAP
018818
3fcffc
000c18
00cc18
7fec18
060ff8
36cc18
36cc18
36cc18
36cff8
36cc18
26cc18
260c1a
467fff
060000
001c00
001800
001830
1ffff8
001800
001800
00180c
7ffffe
000000
ENDCHAR
STARTCHAR 2-05-06
ENCODING 9510
SWIDTH 1000 0
DWIDTH 24 0
BBX 24 24 0 -2
BITMAP
000380
1c0300
180300
18f31e
180680
180680
18f65e
1b0c60
ff8c30
18181c
18300f
18dffe
181818
181818
181ff8
199818
1e1818
f81818
601ff8
401818
001818
001818
0018f8
001830
ENDCHAR
STARTCHAR 2-05-07
ENCODING 9511
SWIDTH 1000 0
DWIDTH 24 0
BBX 24 24 0 -2
BITMAP
002018
1c3ffc
183018
183018
183ff8
183018
1b3018
ffb018
183ff8
183018
180000
180606
18feff
181616
183e3e
1b3636
fc6666
70cece
411e1e
003636
006666
008686
003e3e
000c0c
ENDCHAR
STARTCHAR 2-05-08
ENCODING 9512
SWIDTH 1000 0
DWIDTH 24 0
BBX 24 24 0 -2
BITMAP
000010
1c03f8
180810
180c08
18180c
181067
1b27f2
ff8000
180000
180010
1809f8
180c10
181808
18100c
182007
19bffa
1e5248
f81248
601248
401248
001248
00124a
00ffff
000000
ENDCHAR
STARTCHAR 2-05-09
ENCODING 9513
SWIDTH 1000 0
DWIDTH 24 0
BBX 24 24 0 -2
BITMAP
0701c0
060180
7fe180
060198
060ffc
fff198
30c598
108398
fff11a
06038a
0602ce
7fe6c6
060407
060803
063000
001c00
001800
001830
1ffff8
001800
001800
00180c
7ffffe
000000
ENDCHAR
STARTCHAR 2-05-10
ENCODING 9514
SWIDTH 1000 0
DWIDTH 24 0
BBX 24 24 0 -2
BITMAP
000400
1c0700
180620
180818
187fec
183c0c
1a0000
ff630c
184308
189692
19f65f
188c31
181918
18338f
186706
1b0c40
fc18e0
7061c4
40070e
00181c
006070
0001c0
000e00
007000
ENDCHAR
STARTCHAR 2-05-11
ENCODING 9515
SWIDTH 1000 0
DWIDTH 24 0
BBX 24 24 0 -2
BITMAP
0c040c
58c7fe
7fc660
60c660
7fc660
60c666
60dfff
7fc0c0
0000f0
6181b0
67c1b2
7c0332
604233
7fe43f
3fc81e
001c00
001800
001830
1ffff8
001800
001800
00180c
7ffffe
000000
ENDCHAR
STARTCHAR 2-05-12
ENCODING 9516
SWIDTH 1000 0
DWIDTH 24 0
BBX 24 24 0 -2
BITMAP
01c100
39818c
3183fe
318e18
31b9b0
3f84e0
318780
019e38
018030
7fbfff
198430
118630
318630
2180f0
418060
801c00
001800
001830
1ffff8
001800
001800
00180c
7ffffe
000000
ENDCHAR
STARTCHAR 2-05-13
ENCODING 9517
SWIDTH 1000 0
DWIDTH 24 0
BBX 24 24 0 -2
BITMAP
001c70
1c1860
181864
19fffe
181860
181860
1b1fe0
ff8300
184318
187ffc
186318
186318
186318
187ff8
186318
1b0304
fcfffe
700300
400308
007ffc
000300
000302
03ffff
000000
ENDCHAR
STARTCHAR 2-05-14
ENCODING 9518
SWIDTH 1000 0
DWIDTH 24 0
BBX 24 24 0 -2
BITMAP
0001c0
1c398e
18318c
18318c
18318c
183ffc
181080
1b1ce0
ff98c0
18310c
183ffe
187180
18b180
193188
183ffc
19b180
1e3180
f83188
603ffc
403180
003180
003186
003fff
003000
ENDCHAR
STARTCHAR 2-05-15
ENCODING 9519
SWIDTH 1000 0
DWIDTH 24 0
BBX 24 24 0 -2
BITMAP
0001c0
1c0188
183ffc
180180
180184
187ffe
1b0000
ff9818
181010
18fefe
181010
181010
181c12
18f1ff
184000
1b0000
fc7ffe
700c60
400c60
001862
001862
003063
00607f
01803e
ENDCHAR
STARTCHAR 2-05-16
ENCODING 9520
SWIDTH 1000 0
DWIDTH 24 0
BBX 24 24 0 -2
BITMAP
030100
0319c0
fffd80
000306
1fe3ff
18661c
1fe518
000918
3fe110
00c0b0
0380a0
033840
ffc0b0
73011c
43020f
1f1c06
061800
001830
1ffff8
001800
001800
00180c
7ffffe
000000
ENDCHAR
STARTCHAR 2-05-17
ENCODING 9521
SWIDTH 1000 0
DWIDTH 24 0
BBX 24 24 0 -2
BITMAP
000188
1c3f8c
180358
186352
183627
18362c
180c10
1b0818
ff97ec
18200f
184006
181ff8
181818
181818
181818
199ff8
1e0010
f8201c
601818
400c30
000c20
000046
00ffff
000000
ENDCHAR
STARTCHAR 2-05-18
ENCODING 9522
SWIDTH 1000 0
DWIDTH 24 0
BBX 24 24 0 -2
BITMAP
000300
1c0300
180680
180c60
181838
1837de
18c00c
1a0000
ff7ffc
18610c
18692c
18654c
18610c
187ffc
180000
19a018
1e3ffc
f83018
603018
403ff8
003018
003018
003ff8
003018
ENDCHAR
STARTCHAR 2-05-19
ENCODING 9523
SWIDTH 1000 0
DWIDTH 24 0
BBX 24 24 0 -2
BITMAP
000006
1cffff
180000
183ffc
18318c
18318c
183ffc
1b318c
ffb18c
183ffc
180000
18ffff
180000
183ffc
18318c
19b18c
1e3ffc
f8318c
60318c
403ffc
000000
000006
00ffff
000000
ENDCHAR
STARTCHAR 2-05-20
ENCODING 9524
SWIDTH 1000 0
DWIDTH 24 0
BBX 24 24 0 -2
BITMAP
406006
30669f
1ffff8
1860c0
83fcc0
636cc6
336cff
33fccc
0b6ccc
0b6ccc
13fccc
30608c
e7ff8c
60610c
60620c
001c00
001800
001830
1ffff8
001800
001800
00180c
7ffffe
000000
ENDCHAR
STARTCHAR 2-05-21
ENCODING 9525
SWIDTH 1000 0
DWIDTH 24 0
BBX 24 24 0 -2
BITMAP
004006
1c7fff
186108
18639c
186e70
186292
187fff
1b6210
ffe7b8
1866b8
186a54
187297
186212
186210
1860e0
1b60c0
fccecc
70ccfe
408cc0
018cc0
010cc0
020cc6
047fff
000000
ENDCHAR
STARTCHAR 2-05-22
ENCODING 9526
SWIDTH 1000 0
DWIDTH 24 0
BBX 24 24 0 -2
BITMAP
001c00
00180c
7ffffe
001800
001830
0ffff8
200000
200006
7fffff
60000c
c00188
c7ffd0
000000
010300
01ff80
018300
018300
018300
030302
030302
060303
0c03ff
3001fe
c00000
ENDCHAR
STARTCHAR 2-05-23
ENCODING 9527
SWIDTH 1000 0
DWIDTH 24 0
BBX 24 24 0 -2
BITMAP
001c00
001800
00180c
7ffffe
001800
001800
001830
1ffff8
000000
040060
07fff0
060060
060060
060060
07ffe0
060060
000100
0101c0
018180
00c300
00c200
000406
ffffff
000000
ENDCHAR
STARTCHAR 2-05-24
ENCODING 9528
SWIDTH 1000 0
DWIDTH 24 0
BBX 24 24 0 -2
BITMAP
004000
0060c0
00ffe0
0181c0
034380
062700
181c00
603e00
006380
0181f0
06007f
18071e
e00606
020630
03fff8
030600
030600
03060c
7ffffe
000600
000600
000600
000600
000600
ENDCHAR
STARTCHAR 2-05-25
ENCODING 9529
SWIDTH 1000 0
DWIDTH 24 0
BBX 24 24 0 -2
BITMAP
004000
0060c0
00ffe0
0181c0
034380
062700
181c00
603600
00e3c0
0300ff
1c1c3e
e0180e
001830
1ffff8
001800
001860
0ffff0
001800
001818
3ffffc
001800
001800
001800
001800
ENDCHAR
STARTCHAR 2-05-26
ENCODING 9530
SWIDTH 1000 0
DWIDTH 24 0
BBX 24 24 0 -2
BITMAP
004000
007000
00e100
00c0c0
018070
3fffb8
1fe318
10631a
00c302
018303
0303ff
0c41fe
707000
00e0c0
00ffe0
0181c0
034380
0c2700
301c00
003600
00e3c0
0380ff
1e003e
e00006
ENDCHAR
STARTCHAR 2-05-27
ENCODING 9531
SWIDTH 1000 0
DWIDTH 24 0
BBX 24 24 0 -2
BITMAP
010000
01c000
018060
03fff0
030000
060000
09ffc0
0180c0
0180c0
01ffc0
0180c0
0180c0
01ffc0
003000
006000
007fc0
00c180
01a300
031600
0c1c00
003700
0063f8
0180f0
0e0030
ENDCHAR
STARTCHAR 2-05-28
ENCODING 9532
SWIDTH 1000 0
DWIDTH 24 0
BBX 24 24 0 -2
BITMAP
00c1c0
006180
006306
7fffff
001800
0e107e
0c7f66
0c6366
0f7f7e
6c6360
6c7f60
6f6362
7c7f7e
70223c
c06208
00dbf8
033000
047fe0
00c1c0
032380
1c1e00
006780
0380fe
3c001c
ENDCHAR
STARTCHAR 2-05-29
ENCODING 9533
SWIDTH 1000 0
DWIDTH 24 0
BBX 24 24 0 -2
BITMAP
006000
00c0c0
01ffe0
0781c0
38c700
007c00
01f000
7e1c00
101806
1fffff
300006
77ffe4
601800
0ffff0
0c1830
0c1830
0ffff0
0c1830
0c1830
0ffff0
010000
03c1e0
0f007c
78001c
ENDCHAR
STARTCHAR 2-05-30
ENCODING 9534
SWIDTH 1000 0
DWIDTH 24 0
BBX 24 24 0 -2
BITMAP
000000
000000
003800
003000
003018
3ffffc
003000
006000
006030
1ffff8
00c200
00c200
018106
ffffff
0300c0
020060
060070
0c003c
18001f
30000e
c00006
000000
000000
000000
ENDCHAR
STARTCHAR 2-05-31
ENCODING 9535
SWIDTH 1000 0
DWIDTH 24 0
BBX 24 24 0 -2
BITMAP
000030
1ffff8
000030
000030
000036
ffffff
000030
000030
000030
1ffff0
000030
001c00
001800
001806
ffffff
003400
006200
006300
00c180
0180e0
030078
06003f
18001e
e00006
ENDCHAR
STARTCHAR 2-05-32
ENCODING 9536
SWIDTH 1000 0
DWIDTH 24 0
BBX 24 24 0 -2
BITMAP
003800
003000
007000
006006
ffffff
00c100
018080
0300c0
060060
0c0338
1bff9f
300006
c00000
000000
000018
3ffffc
006000
006100
00c0c0
008070
0103b8
3ffc1c
1f800c
10000c
ENDCHAR
STARTCHAR 2-05-33
ENCODING 9537
SWIDTH 1000 0
DWIDTH 24 0
BBX 24 24 0 -2
BITMAP
070000
060000
063206
7ffbff
063306
063306
0c3306
0c7306
186306
1863fe
33e306
60c000
801c00
001800
001806
ffffff
003400
006200
006300
00c180
0180e0
07007f
1c001e
e00006
ENDCHAR
STARTCHAR 2-05-34
ENCODING 9538
SWIDTH 1000 0
DWIDTH 24 0
BBX 24 24 0 -2
BITMAP
003800
003000
007000
006006
ffffff
00c100
018080
0300c0
060360
0fffb8
1e001f
360006
c60060
07fff0
060060
060060
060060
07ffe0
060060
060000
060000
06000c
7ffffe
000000
ENDCHAR
STARTCHAR 2-05-35
ENCODING 9539
SWIDTH 1000 0
DWIDTH 24 0
BBX 24 24 0 -2
BITMAP
002000
003800
083030
0ffff8
0c0030
0c0030
0c0030
0ffff0
0c0030
0c0030
0c0030
0ffff0
0c1c30
001800
001806
ffffff
003400
006200
006300
00c180
0180e0
07007f
1c001e
e00006
ENDCHAR
STARTCHAR 2-05-36
ENCODING 9540
SWIDTH 1000 0
DWIDTH 24 0
BBX 24 24 0 -2
BITMAP
00e380
00c300
00c330
0ffff8
00c300
00c300
0200c0
03ffe0
0318c0
0318c0
0318c0
03ffc0
0318c0
001800
07ffe0
001800
001800
1ffff8
003400
006200
006380
00c1f8
0300f0
1c0030
ENDCHAR
STARTCHAR 2-05-37
ENCODING 9541
SWIDTH 1000 0
DWIDTH 24 0
BBX 24 24 0 -2
BITMAP
003800
003000
007000
006006
ffffff
00c100
018080
0300c0
060060
0c0038
18641f
3ff7fe
d86618
186618
1fe7f8
186618
186618
1867f8
1fe618
186618
180418
000418
0008f8
001030
ENDCHAR
STARTCHAR 2-05-38
ENCODING 9542
SWIDTH 1000 0
DWIDTH 24 0
BBX 24 24 0 -2
BITMAP
003800
003000
007000
006006
ffffff
00c100
018080
0300c0
060060
0c0038
18641f
3ff7fe
d86618
1e6798
1b66d8
196658
186618
1e6798
1b66d8
196658
106418
106418
23e8f8
40d030
ENDCHAR
STARTCHAR 2-05-39
ENCODING 9543
SWIDTH 1000 0
DWIDTH 24 0
BBX 24 24 0 -2
BITMAP
0060e0
03f0c0
3f00c0
0300c0
0300cc
0317fe
7ff8cc
1b60cc
1b60cc
1b68cc
fffccc
1b60cc
1b60cc
1b6fff
1b60c0
7ff8c0
0300a0
0301a0
030190
033118
03c31c
3f020f
1c040e
101806
ENDCHAR
STARTCHAR 2-05-40
ENCODING 9544
SWIDTH 1000 0
DWIDTH 24 0
BBX 24 24 0 -2
BITMAP
0e0000
0c0006
0cffff
0c0180
0c0180
0d8180
ffc180
198180
198180
198180
198180
198180
310180
310180
330180
330180
6a0180
660180
070180
0d8180
098180
100180
201f80
c00300
ENDCHAR
STARTCHAR 2-05-41
ENCODING 9545
SWIDTH 1000 0
DWIDTH 24 0
BBX 24 24 0 -2
BITMAP
0e0000
0c0030
0c7ff8
0c0c30
0c0c30
0d8c30
ffcc60
198c60
198c66
198cff
198cc6
198cc6
310c06
310c06
330c06
330c06
6a1806
661806
071806
0d900e
09b00c
10201c
2040f8
c08030
ENDCHAR
STARTCHAR 2-05-42
ENCODING 9546
SWIDTH 1000 0
DWIDTH 24 0
BBX 24 24 0 -2
BITMAP
0e0018
0c007c
0c03e0
0c3f00
0c0300
0d8300
ffc300
198300
198300
198300
198306
19bfff
310300
310300
330300
330300
6a0300
660300
070302
0d8302
098302
100303
2003ff
c001fe
ENDCHAR
STARTCHAR 2-05-43
ENCODING 9547
SWIDTH 1000 0
DWIDTH 24 0
BBX 24 24 0 -2
BITMAP
080030
0ffff8
0c0030
0c0030
0c0030
0ffff0
0c0030
0c0030
0c0030
0ffff0
0c4030
007000
00e000
00c006
ffffff
018180
030180
070300
0ee600
0c1c00
003380
00c0f0
070038
780018
ENDCHAR
STARTCHAR 2-05-44
ENCODING 9548
SWIDTH 1000 0
DWIDTH 24 0
BBX 24 24 0 -2
BITMAP
1c200c
183ffe
18300c
18300c
18300c
1b300c
ffbffc
33300c
333000
333380
333300
333308
62330e
62331c
663330
6633c0
d42300
cc6300
0e6302
1b4302
13c302
208303
4103ff
8001fe
ENDCHAR
STARTCHAR 2-05-45
ENCODING 9549
SWIDTH 1000 0
DWIDTH 24 0
BBX 24 24 0 -2
BITMAP
1c0400
180300
180188
1800ce
1800cc
1b0e1c
ff8c18
330c18
330c30
330c30
332c60
332c68
622cc4
626c86
664d83
66cf03
d4ce03
cc0c00
0e0c10
1b1c10
132c10
204c18
408ff8
8007f0
ENDCHAR
STARTCHAR 2-05-46
ENCODING 9550
SWIDTH 1000 0
DWIDTH 24 0
BBX 24 24 0 -2
BITMAP
1c0300
180300
180680
180680
180c40
1b0c60
ff9838
33101f
3320ce
335fe6
338000
330000
620018
627ffc
660618
660618
d40618
cc0618
0e0618
1b0618
1306f8
200630
400600
800600
ENDCHAR
STARTCHAR 2-05-47
ENCODING 9551
SWIDTH 1000 0
DWIDTH 24 0
BBX 24 24 0 -2
BITMAP
1c200c
183ffe
18324c
18324c
18324c
1b324c
ffb24c
33324c
33324c
33324c
33324c
33ffff
63324c
62324c
66324c
66324c
d4324c
cc324c
0e324c
1b324c
13324c
20324c
40327c
803018
ENDCHAR
STARTCHAR 2-05-48
ENCODING 9552
SWIDTH 1000 0
DWIDTH 24 0
BBX 24 24 0 -2
BITMAP
1c01c0
180180
180180
180180
180186
1b7fff
ff8180
330180
330180
330180
33018c
333ffe
620000
620000
66100c
661ffe
d4180c
cc180c
0e180c
1b180c
13180c
201ffc
40180c
80180c
ENDCHAR
STARTCHAR 2-05-49
ENCODING 9553
SWIDTH 1000 0
DWIDTH 24 0
BBX 24 24 0 -2
BITMAP
1c01c0
180180
180180
180186
18ffff
1b0000
ff9020
331c18
33180c
333006
332006
334020
620838
620830
661470
663460
d402e0
cc03c0
0e0180
1b03c0
130670
200c3f
40301e
80c006
ENDCHAR
STARTCHAR 2-05-50
ENCODING 9554
SWIDTH 1000 0
DWIDTH 24 0
BBX 24 24 0 -2
BITMAP
1c000c
18003e
1821f0
183f00
183000
1b3000
ffb000
333006
333fff
333000
333000
333000
62340c
6237fe
66360c
66360c
d4360c
cc360c
0e360c
1b260c
13260c
2047fc
40460c
80860c
ENDCHAR
STARTCHAR 2-05-51
ENCODING 9555
SWIDTH 1000 0
DWIDTH 24 0
BBX 24 24 0 -2
BITMAP
0e0000
0c000c
18dffe
ffe0c0
18c0c0
3180c0
7180c0
6f00c0
03c0c0
06c0c0
1800c6
e03fff
0e00c0
0c00c0
18c0c0
ffe0c0
18c0c0
3180c0
7180c0
6f00c0
03c0c0
06e0c0
1860c0
e000c0
ENDCHAR
STARTCHAR 2-05-52
ENCODING 9556
SWIDTH 1000 0
DWIDTH 24 0
BBX 24 24 0 -2
BITMAP
1c0000
18000c
18fffe
180000
180000
1b0000
ffa018
333ffc
333018
333018
333018
333018
623ff8
623018
663018
663018
d43018
cc3ff8
0e3018
1b0000
130000
200006
41ffff
800000
ENDCHAR
STARTCHAR 2-05-53
ENCODING 9557
SWIDTH 1000 0
DWIDTH 24 0
BBX 24 24 0 -2
BITMAP
1c0018
187ffc
180618
180618
180618
1b0438
ff8c30
3309f0
33106c
333ffe
33f18c
33318c
62318c
62318c
66318c
663ffc
d4300c
cc3000
0e3000
1b3002
133002
203003
403fff
801ffe
ENDCHAR
STARTCHAR 2-05-54
ENCODING 9558
SWIDTH 1000 0
DWIDTH 24 0
BBX 24 24 0 -2
BITMAP
181c70
18d860
189860
189860
189860
1a9860
fe9860
329860
32f866
329fff
321860
221860
621860
65f860
645860
645860
d45860
c85860
0c5860
165860
169860
209864
411bfe
801800
ENDCHAR
STARTCHAR 2-05-55
ENCODING 9559
SWIDTH 1000 0
DWIDTH 24 0
BBX 24 24 0 -2
BITMAP
1c01d8
18018c
18018c
180180
180186
1b7fff
ff8180
330180
332188
33118e
3319cc
3319c8
6219d0
6201a0
6601a0
6605a0
d40990
cc1998
0e319c
1b718f
13618e
202186
400f80
800300
ENDCHAR
STARTCHAR 2-05-56
ENCODING 9560
SWIDTH 1000 0
DWIDTH 24 0
BBX 24 24 0 -2
BITMAP
1c0000
18200c
183ffe
18318c
18318c
1b318c
ffb18c
333ffc
33318c
33318c
33318c
33318c
623ffc
62318c
660180
660180
d40198
cc3ffc
0e0180
1b0180
130180
200186
40ffff
800000
ENDCHAR
STARTCHAR 2-05-57
ENCODING 9561
SWIDTH 1000 0
DWIDTH 24 0
BBX 24 24 0 -2
BITMAP
1801c0
180190
18018c
180184
180180
1a8186
feffff
32c180
32c180
32c088
32c68e
22ff8c
62cccc
64cc48
64cc58
64cc50
d4cc70
c8cc22
0c8c72
16bc52
16989a
21010e
410207
820c03
ENDCHAR
STARTCHAR 2-05-58
ENCODING 9562
SWIDTH 1000 0
DWIDTH 24 0
BBX 24 24 0 -2
BITMAP
18000c
18183e
19fdf0
181830
181830
1a3030
ff3030
323030
326036
3263ff
32fc30
22cc30
620c30
640830
649830
649830
d55030
c97036
0c23ff
163000
165800
204f00
4083ff
81007e
ENDCHAR
STARTCHAR 2-05-59
ENCODING 9563
SWIDTH 1000 0
DWIDTH 24 0
BBX 24 24 0 -2
BITMAP
1c0020
1807f0
181020
181c20
181810
1b3018
ff200c
337fff
33b01e
333018
333018
333018
623018
623ff8
6600c0
660ec0
d40cc0
cc0cc0
0e0cc4
1b18c4
1318c4
2030c6
4060fe
81807c
ENDCHAR
STARTCHAR 2-05-60
ENCODING 9564
SWIDTH 1000 0
DWIDTH 24 0
BBX 24 24 0 -2
BITMAP
1c0400
180700
180620
180410
180818
1b7ffc
ffbe0c
33200c
330000
331c00
331818
333ffc
622300
624300
660306
66ffff
d40680
cc0680
0e0c40
1b0c60
131838
20301f
40600e
818006
ENDCHAR
STARTCHAR 2-05-61
ENCODING 9565
SWIDTH 1000 0
DWIDTH 24 0
BBX 24 24 0 -2
BITMAP
1c0380
180300
18030c
187ffe
180300
1b0318
ffbffc
330318
33031a
337fff
330318
330318
623ff8
620318
662300
663b00
d4330c
cc33fe
0e3300
1b2b00
136700
2043c0
4080ff
81003e
ENDCHAR
STARTCHAR 2-05-62
ENCODING 9566
SWIDTH 1000 0
DWIDTH 24 0
BBX 24 24 0 -2
BITMAP
1c01c0
180180
18018c
1801fe
180180
1b0180
ffa18c
333ffe
33300c
33300c
333ffc
33300c
62300c
623ffc
66318c
660180
d40186
ccffff
0e0180
1b0180
130180
200180
400180
800180
ENDCHAR
STARTCHAR 2-05-63
ENCODING 9567
SWIDTH 1000 0
DWIDTH 24 0
BBX 24 24 0 -2
BITMAP
004100
3fe180
00c306
0983ff
060618
032918
fff130
0760b0
0f4060
1b00c0
3301b8
6f061f
861806
006000
006006
ffffff
00c180
01c180
038300
077600
060fc0
0038f8
01e03c
7e000c
ENDCHAR
STARTCHAR 2-05-64
ENCODING 9568
SWIDTH 1000 0
DWIDTH 24 0
BBX 24 24 0 -2
BITMAP
1c0380
180300
18030c
183ffe
180300
1b0300
ff8308
333ffc
330640
330640
330c26
337fff
621810
621018
66200c
663fff
d45836
cc9832
0e1ff0
1b1830
131830
201830
401ff0
801830
ENDCHAR
STARTCHAR 2-05-65
ENCODING 9569
SWIDTH 1000 0
DWIDTH 24 0
BBX 24 24 0 -2
BITMAP
1c01c0
180180
180186
1801ff
180180
1b218c
ffbffe
33300c
33300c
33300c
333ffc
33300c
62300c
62300c
663ffc
66300c
d4300c
cc300c
0e3ffc
1b1000
131c30
20380e
406007
818003
ENDCHAR
STARTCHAR 2-05-66
ENCODING 9570
SWIDTH 1000 0
DWIDTH 24 0
BBX 24 24 0 -2
BITMAP
1c1998
181998
181998
18199a
187fff
1b1998
ff9998
331998
3319f8
331800
331802
331fff
621800
6201c0
660186
667fff
d403a0
cc07a0
0e0590
1b0d98
13198f
20318e
404186
800180
ENDCHAR
STARTCHAR 2-05-67
ENCODING 9571
SWIDTH 1000 0
DWIDTH 24 0
BBX 24 24 0 -2
BITMAP
1c0400
180700
180606
187fff
180c00
1b0818
ff9ffc
331180
33218c
335ffe
338000
33100c
621ffe
62180c
66180c
661ffc
d4180c
cc180c
0e1ffc
1b180c
13180c
20180c
40187c
801818
ENDCHAR
STARTCHAR 2-05-68
ENCODING 9572
SWIDTH 1000 0
DWIDTH 24 0
BBX 24 24 0 -2
BITMAP
1c4006
187fff
186006
186026
186ff6
1b6006
ff6006
336026
336ff6
336006
330000
33200c
623ffe
62300c
66300c
663ffc
d4300c
cc300c
0e3ffc
1b300c
13300c
20300c
403ffc
80300c
ENDCHAR
STARTCHAR 2-05-69
ENCODING 9573
SWIDTH 1000 0
DWIDTH 24 0
BBX 24 24 0 -2
BITMAP
1c0100
1801c0
18038c
1807fe
180c1c
1b1b38
ff6170
3318e0
330980
330700
331c00
337018
621ffc
621180
662180
660186
d4ffff
cc0180
0e0180
1b7187
136186
206186
407ffe
806006
ENDCHAR
STARTCHAR 2-05-70
ENCODING 9574
SWIDTH 1000 0
DWIDTH 24 0
BBX 24 24 0 -2
BITMAP
1c0200
180380
18230c
183ffe
18300c
1b300c
ffbffc
33300c
33300c
333ffc
33300c
33300c
62300c
623ffc
66300c
660100
d40cc8
cc0c64
0e2c66
1b2c13
132c13
206c18
41cff8
8187f0
ENDCHAR
STARTCHAR 2-05-71
ENCODING 9575
SWIDTH 1000 0
DWIDTH 24 0
BBX 24 24 0 -2
BITMAP
2311d0
3f1d8c
331986
333183
332ffb
334340
3b0340
3f0626
377fff
330c18
33180c
33338f
3b4306
3f0600
37ffff
330c30
331830
331860
333e60
3331c0
2301f0
630318
4f0e0c
86700c
ENDCHAR
STARTCHAR 2-05-72
ENCODING 9576
SWIDTH 1000 0
DWIDTH 24 0
BBX 24 24 0 -2
BITMAP
181020
181038
189230
189230
189220
1a9262
fe927f
32fec8
32008e
32014c
32004c
23ff4c
624c4c
644c28
644c28
644c38
d44c10
c84d38
0c8e28
16bc6c
16984e
211087
410106
820602
ENDCHAR
STARTCHAR 2-05-73
ENCODING 9577
SWIDTH 1000 0
DWIDTH 24 0
BBX 24 24 0 -2
BITMAP
1c0200
180380
18230c
183ffe
18310c
1b310c
ffb10c
333ffc
33310c
33310c
33310c
333ffc
6200c8
6208cc
660ec8
660cd8
d40cd2
cc18ff
0e18d9
1b10c0
1330c2
2020c3
4040ff
81807e
ENDCHAR
STARTCHAR 2-05-74
ENCODING 9578
SWIDTH 1000 0
DWIDTH 24 0
BBX 24 24 0 -2
BITMAP
1c1030
181ff8
181830
181830
181ff0
1b1830
ff9830
331ff0
330000
337ffc
334444
334444
627ffc
620000
660030
667ff8
d41030
cc0860
0e06c0
1b0380
1306e0
200c7f
40301e
81c006
ENDCHAR
STARTCHAR 2-05-75
ENCODING 9579
SWIDTH 1000 0
DWIDTH 24 0
BBX 24 24 0 -2
BITMAP
1c01c0
180180
18018c
183ffe
180820
1b0430
ff8620
330246
337fff
330000
333ffc
33300c
62300c
623ffc
66300c
66300c
d43ffc
cc0180
0e0186
1b7fff
130180
200180
400180
800180
ENDCHAR
STARTCHAR 2-05-76
ENCODING 9580
SWIDTH 1000 0
DWIDTH 24 0
BBX 24 24 0 -2
BITMAP
070380
064306
7fe3ff
060618
fff518
0e08b0
1f8060
36e0b8
c6631f
060c06
200000
3ffffe
301800
303000
30300c
37fffe
3060c0
30c180
30c180
21fb00
218700
401de0
407038
838018
ENDCHAR
STARTCHAR 2-05-77
ENCODING 9581
SWIDTH 1000 0
DWIDTH 24 0
BBX 24 24 0 -2
BITMAP
1c01c0
180186
18ffff
180180
18218c
1b3ffe
ffb18c
33318c
333ffc
33318c
33318c
333ffc
620188
620186
66fffb
663c03
d40018
ccffff
0e1018
1b0c18
130618
200618
4000f8
800030
ENDCHAR
STARTCHAR 2-05-78
ENCODING 9582
SWIDTH 1000 0
DWIDTH 24 0
BBX 24 24 0 -2
BITMAP
181c20
181838
181930
19ffb0
181823
1a187f
fe9b43
32ff82
32db34
32db30
32db30
22db30
62ff30
64db30
643830
643c30
d43a28
c87b68
0c5b68
16d84c
16984c
2118ce
421887
801906
ENDCHAR
STARTCHAR 2-05-79
ENCODING 9583
SWIDTH 1000 0
DWIDTH 24 0
BBX 24 24 0 -2
BITMAP
180018
181ffc
184180
184183
187fff
1ac183
fec182
323dbc
320180
323dbc
320180
220000
623ffc
640000
640000
64ffff
d40c00
c80c18
0c1ffc
161818
160038
200030
4003f0
8000e0
ENDCHAR
STARTCHAR 2-05-80
ENCODING 9584
SWIDTH 1000 0
DWIDTH 24 0
BBX 24 24 0 -2
BITMAP
180800
180e00
180c00
181800
181006
1a3fff
ff7248
325248
329248
32124a
32ffff
221248
621248
641248
641248
64124a
d4ffff
c80000
0c0000
162488
162444
204666
41c663
818663
ENDCHAR
STARTCHAR 2-05-81
ENCODING 9585
SWIDTH 1000 0
DWIDTH 24 0
BBX 24 24 0 -2
BITMAP
1c0030
1811f8
181f80
181a10
18318c
1b2084
ffa000
331ff0
331830
331830
331830
331ffc
62180c
62180c
66180c
661fff
d43003
cc3023
0e2093
1b2a53
134946
205906
40983e
80000c
ENDCHAR
STARTCHAR 2-05-82
ENCODING 9586
SWIDTH 1000 0
DWIDTH 24 0
BBX 24 24 0 -2
BITMAP
1801c0
180188
183ffc
180180
180184
1a7ffe
ff0000
321818
321010
32fefe
321010
221010
621c12
64f1ff
644000
640000
d47ffe
c80c60
0c0c60
161862
161862
203063
40607f
81803e
ENDCHAR
STARTCHAR 2-05-83
ENCODING 9587
SWIDTH 1000 0
DWIDTH 24 0
BBX 24 24 0 -2
BITMAP
1c01c0
180186
187fff
180000
183ffc
1b300c
ffb7ec
33366c
33366c
3337ec
33300c
333ffc
620000
621ff8
661818
661818
d41ff8
cc1818
0e1818
1b1ff8
131818
200002
407fff
800000
ENDCHAR
STARTCHAR 2-05-84
ENCODING 9588
SWIDTH 1000 0
DWIDTH 24 0
BBX 24 24 0 -2
BITMAP
201c00
301806
3fffff
300000
300000
1ffff8
000000
0ffff0
0c0030
0c0030
0ffff0
000000
3e23f8
222098
22fc98
3e2898
224bf8
224898
3ed09a
22b09a
22189a
622d1a
4e451f
86820f
ENDCHAR
STARTCHAR 2-05-85
ENCODING 9589
SWIDTH 1000 0
DWIDTH 24 0
BBX 24 24 0 -2
BITMAP
180000
180006
19ffff
181100
183910
1a310c
ff6106
32ffff
334107
324104
325554
224924
624924
645554
644104
644104
d45554
c84924
0c4924
165554
164104
204104
40413c
804118
ENDCHAR
STARTCHAR 2-05-86
ENCODING 9590
SWIDTH 1000 0
DWIDTH 24 0
BBX 24 24 0 -2
BITMAP
080008
0c7e0c
580058
64ff64
260026
0c7e0c
120012
ff7eff
690069
087e08
6a424c
49426a
897e4b
082089
003000
006006
ffffff
018180
030300
06e600
041f00
0071e0
038078
3c0018
ENDCHAR
STARTCHAR 2-05-87
ENCODING 9591
SWIDTH 1000 0
DWIDTH 24 0
BBX 24 24 0 -2
BITMAP
000000
000030
1ffff8
000070
0000e0
000180
000300
001400
001800
001800
001806
001fff
001800
001800
001800
001800
001800
001800
001800
001800
001800
001800
00f800
003000
ENDCHAR
STARTCHAR 2-05-88
ENCODING 9592
SWIDTH 1000 0
DWIDTH 24 0
BBX 24 24 0 -2
BITMAP
0000c0
07ffe0
000180
000600
001818
3ffffc
001800
001800
001800
00f800
003000
00c00c
7fe7fe
00c00c
010010
063060
07c066
ff0fff
660060
060060
060060
060060
3e03e0
0c00c0
ENDCHAR
STARTCHAR 2-05-89
ENCODING 9593
SWIDTH 1000 0
DWIDTH 24 0
BBX 24 24 0 -2
BITMAP
20300c
3ffbfe
31010c
31010c
3ff098
303098
303070
3ff060
3100f8
31019f
3ff30e
300c06
0000c0
07ffe0
000180
000600
001806
ffffff
001800
001800
001800
001800
00f800
003000
ENDCHAR
STARTCHAR 2-05-90
ENCODING 9594
SWIDTH 1000 0
DWIDTH 24 0
BBX 24 24 0 -2
BITMAP
0c00e0
6cc0c4
6cdffe
7fc418
1b0230
360322
7fdfff
e0c0c0
7fc0c4
601ffe
7fc0c0
60c0c0
7fc0c0
000000
07ffe0
000180
000600
001806
ffffff
001800
001800
001800
00f800
003000
ENDCHAR
STARTCHAR 2-05-91
ENCODING 9595
SWIDTH 1000 0
DWIDTH 24 0
BBX 24 24 0 -2
BITMAP
080008
0c7e0c
580058
64ff64
260026
0c7e0c
120012
ff7eff
690069
087e08
6a424c
49426a
897e4b
080089
07ffe0
000180
000600
001806
ffffff
001800
001800
001800
00f800
003000
ENDCHAR
STARTCHAR 2-05-92
ENCODING 9596
SWIDTH 1000 0
DWIDTH 24 0
BBX 24 24 0 -2
BITMAP
001c00
001800
101800
10180c
3ffffe
30000c
600008
600010
000000
00000c
7ffffe
001800
001800
001800
001800
001800
001800
001800
001800
001800
001800
001800
00f800
003000
ENDCHAR
STARTCHAR 2-05-93
ENCODING 9597
SWIDTH 1000 0
DWIDTH 24 0
BBX 24 24 0 -2
BITMAP
001c00
001800
201800
201806
7fffff
600006
c00004
c07008
006000
006000
0060c0
3fffe0
0060c0
0060c0
0060c0
0060c0
0060c0
00c0c0
00c0c0
0180c2
0300c2
0600c3
1800ff
60007e
ENDCHAR
STARTCHAR 2-05-94
ENCODING 9598
SWIDTH 1000 0
DWIDTH 24 0
BBX 24 24 0 -2
BITMAP
001c00
101800
101806
3fffff
300006
600004
600008
000060
0ffff0
000000
000000
000000
000006
ffffff
001800
001800
001800
001800
001800
001800
001800
001800
00f800
003000
ENDCHAR
STARTCHAR 2-08-01
ENCODING 10273
SWIDTH 1000 0
DWIDTH 24 0
BBX 24 24 0 -2
BITMAP
001c00
201800
201806
7fffff
600006
c00004
c0c088
3fe0e0
00c0c0
00c0c0
20c0c0
3fc180
30c180
300180
30c100
7fe300
60c310
60c208
00c60c
00c406
01c43e
01bfe7
0f9e03
031003
ENDCHAR
STARTCHAR 2-08-02
ENCODING 10274
SWIDTH 1000 0
DWIDTH 24 0
BBX 24 24 0 -2
BITMAP
001c00
201800
201806
7fffff
600006
c01cc4
c01868
001860
20180c
3ffffe
300c00
300c00
300c20
306638
3ff630
30c660
30c360
30c3c4
31c184
2183c4
2f86e4
43187e
40603e
80000c
ENDCHAR
STARTCHAR 2-08-03
ENCODING 10275
SWIDTH 1000 0
DWIDTH 24 0
BBX 24 24 0 -2
BITMAP
001c00
201800
201806
7fffff
600006
c00004
c00c08
3ffe00
0c6000
0c600c
0c6ffe
0fe20c
0c620c
0c6208
0c6118
0fe110
0c60b0
0c6060
0c6040
0fe0e0
7e61b0
38631c
20660f
006806
ENDCHAR
STARTCHAR 2-08-04
ENCODING 10276
SWIDTH 1000 0
DWIDTH 24 0
BBX 24 24 0 -2
BITMAP
001c00
101800
101806
3fffff
300006
600084
6007c8
043fe0
07e080
063040
0c1860
081830
100030
001800
00180c
7ffffe
007a00
00d900
01d8c0
039870
0e183f
38181e
c01806
001800
ENDCHAR
STARTCHAR 2-08-05
ENCODING 10277
SWIDTH 1000 0
DWIDTH 24 0
BBX 24 24 0 -2
BITMAP
001c00
101800
101806
3fffff
300006
6003c4
603fe8
0ff800
001800
081830
0ffff8
0c1830
0c1830
0ffff0
001800
20180c
3ffffe
30180c
301a0c
30198c
33fecc
31e0cc
31003c
300018
ENDCHAR
STARTCHAR 2-08-06
ENCODING 10278
SWIDTH 1000 0
DWIDTH 24 0
BBX 24 24 0 -2
BITMAP
001c00
101800
101806
3fffff
300006
600004
670018
067ffc
660300
660300
660300
66430c
7e7ffe
66630c
06630c
06668c
fe66cc
666c6c
66686c
66700c
46600c
46600c
86607c
866018
ENDCHAR
STARTCHAR 2-08-07
ENCODING 10279
SWIDTH 1000 0
DWIDTH 24 0
BBX 24 24 0 -2
BITMAP
001c00
101800
101806
3fffff
300006
600004
603ff0
180030
0cfffe
0c0030
000030
623ff0
320000
34ffff
058006
0d8064
087ff0
181060
3808c0
f00780
700dc0
3018fe
30603c
31800c
ENDCHAR
STARTCHAR 2-08-08
ENCODING 10280
SWIDTH 1000 0
DWIDTH 24 0
BBX 24 24 0 -2
BITMAP
0700e0
4600c0
4660c0
7ff0c0
c060cc
c64ffe
06c0c0
07e0c0
7e00c0
0600c0
7fe0c0
0600c6
060fff
fff1a0
0601a0
0601a0
40c330
7fe310
60c218
60c618
60c40c
60cc0f
7fc806
60d002
ENDCHAR
STARTCHAR 2-08-09
ENCODING 10281
SWIDTH 1000 0
DWIDTH 24 0
BBX 24 24 0 -2
BITMAP
001c00
201800
201806
7fffff
600006
c00004
c30e00
3f8c30
331ff8
321860
3634c0
34c300
340780
320cf0
33303f
33efce
332000
373300
367ff8
304300
309ff8
300306
31ffff
300000
ENDCHAR
STARTCHAR 2-08-10
ENCODING 10282
SWIDTH 1000 0
DWIDTH 24 0
BBX 24 24 0 -2
BITMAP
001c00
101800
101806
3fffff
300206
600384
672318
063ffc
663018
663ff8
663018
663ff8
7e3018
663018
063ff8
063198
fe0186
66ffff
6603c0
6607a0
460d90
46199c
86318f
86c186
ENDCHAR
STARTCHAR 2-08-11
ENCODING 10283
SWIDTH 1000 0
DWIDTH 24 0
BBX 24 24 0 -2
BITMAP
000020
0000f0
040ff8
07fe00
060020
061010
0c1818
0c0c0c
080c0c
180c0c
1000e0
2000c0
0000c6
ffffff
0000c0
0200c0
0100c0
0180c0
00c0c0
00c0c0
00c0c0
0000c0
0007c0
000180
ENDCHAR
STARTCHAR 2-08-12
ENCODING 10284
SWIDTH 1000 0
DWIDTH 24 0
BBX 24 24 0 -2
BITMAP
040060
07fff0
060060
060060
07ffe0
060060
060060
060060
07ffe0
060060
00000c
3ffffe
000000
000180
000186
ffffff
000180
040180
030180
018180
00c180
00c180
000f80
000300
ENDCHAR
STARTCHAR 2-08-13
ENCODING 10285
SWIDTH 1000 0
DWIDTH 24 0
BBX 24 24 0 -2
BITMAP
001cc0
001860
00182c
7ffffe
001800
081830
0ffff8
0c1830
0c1830
0ffff0
0c1830
0c1830
0ffff0
0c1830
0c19b0
000186
ffffff
000180
060180
018180
00c180
00c180
000f80
000300
ENDCHAR
STARTCHAR 2-08-14
ENCODING 10286
SWIDTH 1000 0
DWIDTH 24 0
BBX 24 24 0 -2
BITMAP
220030
393ff8
318300
318300
60c300
60c300
40c300
800300
b70320
363ff0
360300
360300
360300
360300
360300
360300
360300
260332
267ffa
660002
460003
47ffff
83fffe
000000
ENDCHAR
STARTCHAR 2-08-15
ENCODING 10287
SWIDTH 1000 0
DWIDTH 24 0
BBX 24 24 0 -2
BITMAP
180060
1803f0
183f00
180318
1b7ffc
ff8300
180300
183ff0
183330
183330
1e3ff0
1e3330
163330
163ff0
360300
360330
267ff8
260302
66031a
46fffe
460003
87ffff
83fffe
000000
ENDCHAR
STARTCHAR 2-08-16
ENCODING 10288
SWIDTH 1000 0
DWIDTH 24 0
BBX 24 24 0 -2
BITMAP
10000c
1ffffe
18000c
18000c
18000c
1ffffc
18000c
180700
188600
18e600
18c618
19fffc
198600
190600
1a060c
33fffe
301e80
303640
203660
606630
40c61c
81860f
060606
000600
ENDCHAR
STARTCHAR 2-08-17
ENCODING 10289
SWIDTH 1000 0
DWIDTH 24 0
BBX 24 24 0 -2
BITMAP
10000c
1ffffe
18000c
18000c
18000c
1ffffc
18000c
198c60
198c6c
1ffffe
198c60
198fe0
198000
198018
19fffc
318600
30060c
37fffe
200f00
601e80
403660
806638
01861e
06060c
ENDCHAR
STARTCHAR 2-08-18
ENCODING 10290
SWIDTH 1000 0
DWIDTH 24 0
BBX 24 24 0 -2
BITMAP
10000c
1ffffe
18000c
18000c
18000c
1ffffc
1840cc
1860c0
18cecc
198cfe
190cc0
1a4cc0
1c6cc6
18dfff
1980c0
318ec0
338ccc
358cfe
218cc0
618ac0
4193c0
8191ff
01a07e
018000
ENDCHAR
STARTCHAR 2-08-19
ENCODING 10291
SWIDTH 1000 0
DWIDTH 24 0
BBX 24 24 0 -2
BITMAP
10000c
1ffffe
18000c
18000c
18000c
1ffffc
18000c
184db0
186db6
18dfff
198db0
190db0
1a4df0
1c6c00
18cc0c
318ffe
318cc0
3380c6
25bfff
6181e0
4183d0
8186cc
018cc7
01b0c2
ENDCHAR
STARTCHAR 2-08-20
ENCODING 10292
SWIDTH 1000 0
DWIDTH 24 0
BBX 24 24 0 -2
BITMAP
10000c
1ffffe
18000c
18000c
18000c
1ffffc
1840c0
1867f8
18c4ca
199fff
1904c8
1a47f8
1c60c0
18cffc
198ccc
318ffc
338182
35bfff
218318
618630
4187f0
8180d8
01838e
019c06
ENDCHAR
STARTCHAR 2-08-21
ENCODING 10293
SWIDTH 1000 0
DWIDTH 24 0
BBX 24 24 0 -2
BITMAP
10000c
1ffffe
18000c
18000c
18000c
1ffffc
184060
1861f0
18cf80
19818c
191ffe
1a4320
1c67fc
18ce1f
1993f6
31a000
339ffe
359806
2199e6
619926
4199e6
819806
01983e
01980c
ENDCHAR
STARTCHAR 2-08-22
ENCODING 10294
SWIDTH 1000 0
DWIDTH 24 0
BBX 24 24 0 -2
BITMAP
000080
0200e0
0180c0
00c180
00c100
00020c
7ffffe
001800
001800
0e1838
0c1830
0c1830
0c1830
0c1830
0ffff0
0c1830
0c1830
001800
003000
003000
006000
00c000
030000
1c0000
ENDCHAR
STARTCHAR 2-08-23
ENCODING 10295
SWIDTH 1000 0
DWIDTH 24 0
BBX 24 24 0 -2
BITMAP
000000
0e0030
0c3ff8
0c0030
0c0060
6d8060
6d80c0
6d80c0
6d8180
6d8180
6d8300
6d8300
6d8600
6d8600
6d8c00
6d8c00
7f9804
619804
603004
003006
00300e
003ffc
001ff8
000000
ENDCHAR
STARTCHAR 2-08-24
ENCODING 10296
SWIDTH 1000 0
DWIDTH 24 0
BBX 24 24 0 -2
BITMAP
001c00
38180e
30180c
30180c
30180c
30180c
3ffffc
30000c
000000
1c1c1c
181818
181818
181818
181818
181818
181818
181818
181818
181818
101818
301818
200018
400018
800018
ENDCHAR
STARTCHAR 2-08-25
ENCODING 10297
SWIDTH 1000 0
DWIDTH 24 0
BBX 24 24 0 -2
BITMAP
000000
0e000c
0c7ffe
0c0000
0c0e70
6d8c60
6d8c60
6d8c60
6d8c60
6d8c60
6d8c60
6d8c60
6d8c60
6d8c60
6d8c60
6d8c60
7f9860
619860
603062
003062
006063
00c07f
03003e
000000
ENDCHAR
STARTCHAR 2-08-26
ENCODING 10298
SWIDTH 1000 0
DWIDTH 24 0
BBX 24 24 0 -2
BITMAP
00100c
0e1ffe
0c180c
0c180c
0c180c
6d980c
6d980c
6d980c
6d9ffc
6d988c
6d9880
6d9880
6d98c0
6d9840
6d9840
6d9860
7f9020
619030
603030
002018
00601c
00400f
00800e
010006
ENDCHAR
STARTCHAR 2-08-27
ENCODING 10299
SWIDTH 1000 0
DWIDTH 24 0
BBX 24 24 0 -2
BITMAP
001c00
38180e
30180c
30180c
30180c
3ffffc
30000c
007000
006000
006006
ffffff
006000
00c000
00c0c0
01ffe0
0180c0
034180
036300
063600
0c1c00
183700
30e3e0
c380ff
0c001e
ENDCHAR
STARTCHAR 2-08-28
ENCODING 10300
SWIDTH 1000 0
DWIDTH 24 0
BBX 24 24 0 -2
BITMAP
000000
0e040c
0c07fe
0c0630
0c0630
6d8630
6d8630
6d8630
6d8630
6d8636
6dbfff
6d8070
6d80f0
6d80f0
6d81b0
6d81b0
7f8330
618330
600630
000c30
001830
006030
0181f0
000060
ENDCHAR
STARTCHAR 2-08-29
ENCODING 10301
SWIDTH 1000 0
DWIDTH 24 0
BBX 24 24 0 -2
BITMAP
100018
1ffffc
181818
181818
181818
181818
1ffff8
180018
180002
180002
180003
1fffff
0ffffe
000000
001c00
001800
38180e
30180c
30180c
30180c
30180c
30180c
3ffffc
30000c
ENDCHAR
STARTCHAR 2-08-30
ENCODING 10302
SWIDTH 1000 0
DWIDTH 24 0
BBX 24 24 0 -2
BITMAP
000000
0e100c
0c1ffe
0c1800
0c1800
6d9800
6d980c
6d9bfe
6d9860
6d9860
6d9860
6d9860
6d9866
6d9fff
6d9860
6d9860
7f9860
619860
601860
003060
003060
002060
004060
008060
ENDCHAR
STARTCHAR 2-08-31
ENCODING 10303
SWIDTH 1000 0
DWIDTH 24 0
BBX 24 24 0 -2
BITMAP
0001c0
0e0190
0c119c
0c0998
0c0d90
6d8da0
6d8180
6d818c
6dbffe
6d8180
6d8180
6d8180
6d8180
6d8186
6dbfff
6d8180
7f8180
618180
600180
000180
000180
000180
000180
000180
ENDCHAR
STARTCHAR 2-08-32
ENCODING 10304
SWIDTH 1000 0
DWIDTH 24 0
BBX 24 24 0 -2
BITMAP
000018
0e007c
0c11e0
0c1f00
0c1800
6d9800
6d9800
6d9806
6d9fff
6d9860
6d9860
6d9860
6d9b60
6d98e0
6d9870
6d907c
7fb06e
61b066
602060
006060
004060
008060
010060
000060
ENDCHAR
STARTCHAR 2-08-33
ENCODING 10305
SWIDTH 1000 0
DWIDTH 24 0
BBX 24 24 0 -2
BITMAP
0e000c
0c7ffe
0c1800
0c1800
0c1800
6d9800
6d980c
6d9ffe
6d980c
6d980c
6d980c
6d980c
6d980c
6d980c
6d9ffc
6d980c
6d9800
7f9800
619800
601800
001800
001806
00ffff
000000
ENDCHAR
STARTCHAR 2-08-34
ENCODING 10306
SWIDTH 1000 0
DWIDTH 24 0
BBX 24 24 0 -2
BITMAP
001c00
1c181c
181818
181818
181818
181818
1ffff8
180018
000000
000006
ffffff
000060
000060
081860
0ffc60
0c1860
0c1860
0c1860
0ff860
0c1860
0c0060
000060
0003e0
0000c0
ENDCHAR
STARTCHAR 2-08-35
ENCODING 10307
SWIDTH 1000 0
DWIDTH 24 0
BBX 24 24 0 -2
BITMAP
001c00
38180e
30180c
30180c
30180c
30180c
3ffffc
30000c
001c00
001800
001800
00180c
7ffffe
000080
0200e0
0100c0
0180c0
008080
00c180
00c100
00c100
000206
ffffff
000000
ENDCHAR
STARTCHAR 2-08-36
ENCODING 10308
SWIDTH 1000 0
DWIDTH 24 0
BBX 24 24 0 -2
BITMAP
001c00
38180e
30180c
30180c
30180c
3ffffc
30000c
000000
3ffffc
00300c
00300c
00600c
00c018
018018
0601f0
380060
100018
1ffffc
180018
180018
180018
180018
1ffff8
180018
ENDCHAR
STARTCHAR 2-08-37
ENCODING 10309
SWIDTH 1000 0
DWIDTH 24 0
BBX 24 24 0 -2
BITMAP
000670
0e0660
0c0660
0c0664
0c3ffe
6d8664
6d8664
6d8664
6da664
6dbffc
6da664
6da660
6da660
6da666
6dbfff
6d8666
7f8666
618666
600666
00047c
000c68
000860
001060
006060
ENDCHAR
STARTCHAR 2-08-38
ENCODING 10310
SWIDTH 1000 0
DWIDTH 24 0
BBX 24 24 0 -2
BITMAP
000180
0e0180
0c0340
0c0340
0c0620
6d8630
6d8c1c
6d880f
6d9036
6daffa
6dc000
6d8000
6d8018
6dbffc
6d8618
6d8618
7f8618
618618
600618
000618
0006f8
000630
000600
000600
ENDCHAR
STARTCHAR 2-08-39
ENCODING 10311
SWIDTH 1000 0
DWIDTH 24 0
BBX 24 24 0 -2
BITMAP
0001c0
0e0180
0c0180
0c0180
0c0180
6d8186
6dbfff
6d8180
6d8180
6d8180
6d8180
6d8180
6d918c
6d9ffe
6d980c
6d980c
7f980c
61980c
60180c
00180c
00180c
001ffc
00180c
00180c
ENDCHAR
STARTCHAR 2-08-40
ENCODING 10312
SWIDTH 1000 0
DWIDTH 24 0
BBX 24 24 0 -2
BITMAP
001c00
38180e
30180c
30180c
30180c
30180c
3ffffc
30000c
080070
0e0060
0c6064
1ffffe
186c60
30cc60
68cc60
cd8c60
0d8c66
033fff
060060
0c0060
180060
300060
600060
800060
ENDCHAR
STARTCHAR 2-08-41
ENCODING 10313
SWIDTH 1000 0
DWIDTH 24 0
BBX 24 24 0 -2
BITMAP
001c00
38180e
30180c
30180c
30180c
3ffffc
30600c
00c180
01ffc0
030380
0c8700
304c00
003800
006e00
01c3e0
0700ff
1c001e
e7ffe0
060060
060060
060060
060060
07ffe0
060060
ENDCHAR
STARTCHAR 2-08-42
ENCODING 10314
SWIDTH 1000 0
DWIDTH 24 0
BBX 24 24 0 -2
BITMAP
001c00
38180e
30180c
30180c
30180c
3ffffc
30000c
0e0860
0c0ff0
0c0c62
0d8c62
ffcc63
0c187f
0c303e
0d8000
fe3ff8
7c0830
4c0460
0c02c0
0c0180
0c03e0
0c0678
7c181f
18e006
ENDCHAR
STARTCHAR 2-08-43
ENCODING 10315
SWIDTH 1000 0
DWIDTH 24 0
BBX 24 24 0 -2
BITMAP
0001c0
0e0180
0c018c
0c3ffe
0c0180
6d8180
6d8db0
6d8c30
6d8c36
6dbfff
6d8c30
6d8c30
6d8c30
6d8c36
6dbfff
6d8660
7f8660
618660
600660
000c62
000c62
001863
00307f
00c03e
ENDCHAR
STARTCHAR 2-08-44
ENCODING 10316
SWIDTH 1000 0
DWIDTH 24 0
BBX 24 24 0 -2
BITMAP
0000e0
0e00c0
0c10c0
0c10c3
0c1fff
6db333
6db332
6db334
6d8630
6d8631
6d843f
6d881e
6d9000
6d8000
6d800c
6d8ffe
7f80c0
6180c0
6000c0
0000c0
0000c0
0000c6
003fff
000000
ENDCHAR
STARTCHAR 2-08-45
ENCODING 10317
SWIDTH 1000 0
DWIDTH 24 0
BBX 24 24 0 -2
BITMAP
001018
0e1ffc
0c1818
0c1818
0c1818
6d9ff8
6d9818
6d9818
6d9818
6d9ff8
6d9818
6d8000
6d9c70
6d9862
6d9867
6d9f6e
7f9878
619860
601860
001862
001f62
00fc63
00707f
00403e
ENDCHAR
STARTCHAR 2-08-46
ENCODING 10318
SWIDTH 1000 0
DWIDTH 24 0
BBX 24 24 0 -2
BITMAP
001c00
38180e
30180c
30180c
3ffffc
30000c
000000
1ffffc
18000c
18000c
1ffffc
18000c
180700
19c61c
198618
198618
19fff8
198618
300600
33860e
63060c
43060c
83fffc
03000c
ENDCHAR
STARTCHAR 2-08-47
ENCODING 10319
SWIDTH 1000 0
DWIDTH 24 0
BBX 24 24 0 -2
BITMAP
0001c0
0e0180
0c0184
0c3ffe
0c0180
6d8188
6d9ffc
6d8180
6d8182
6dffff
6d8000
6d9018
6d9ffc
6d9998
6d9998
6d9998
7f9998
619ff8
601818
001818
001818
001818
0018f8
001830
ENDCHAR
STARTCHAR 2-08-48
ENCODING 10320
SWIDTH 1000 0
DWIDTH 24 0
BBX 24 24 0 -2
BITMAP
0001c0
0e0180
0c0186
0c7fff
0c0180
6da18c
6dbffe
6db18c
6db18c
6db18c
6dbffc
6db18c
6db18c
6db18c
6dbffc
6db3cc
7f87a0
6187a0
600d90
001998
00318c
00618f
018186
000180
ENDCHAR
STARTCHAR 2-08-49
ENCODING 10321
SWIDTH 1000 0
DWIDTH 24 0
BBX 24 24 0 -2
BITMAP
000010
0e183c
0c0670
0c01c0
0c0370
6d8c1c
6db00c
6d8380
6d8306
6dffff
6d8600
6d8c00
6d8ffc
6d9c0c
6dac0c
6dcffc
7f8c0c
618c0c
600ffc
000c0c
000c0c
000c0c
000c7c
000c18
ENDCHAR
STARTCHAR 2-08-50
ENCODING 10322
SWIDTH 1000 0
DWIDTH 24 0
BBX 24 24 0 -2
BITMAP
000200
0e0380
0c0300
0c0306
0c7fff
6d8240
6d8620
6d8430
6d8d9c
6d998f
6dbffe
6dd998
6d9998
6d9998
6d9ff8
6d9998
7f9998
619998
601ff8
001982
000182
000183
0001ff
0000fe
ENDCHAR
STARTCHAR 2-08-51
ENCODING 10323
SWIDTH 1000 0
DWIDTH 24 0
BBX 24 24 0 -2
BITMAP
001c00
38180e
30180c
30180c
30180c
3ffffc
30000c
000000
3ff00e
3031cc
30318c
3ff18c
30318c
30318c
3ff18c
30318c
30318c
30318c
3ff00c
08000c
0e400c
1c300c
30187c
c01818
ENDCHAR
STARTCHAR 2-08-52
ENCODING 10324
SWIDTH 1000 0
DWIDTH 24 0
BBX 24 24 0 -2
BITMAP
0001c0
0e0180
0c018c
0c3ffe
0c0820
6d8438
6d8630
6da642
6dbfff
6de006
6de1c8
6d8180
6da18c
6dbffe
6db18c
6db18c
7fb18c
61b18c
60318c
00318c
0031bc
003198
000180
000180
ENDCHAR
STARTCHAR 2-08-53
ENCODING 10325
SWIDTH 1000 0
DWIDTH 24 0
BBX 24 24 0 -2
BITMAP
001c00
38180e
30180c
30180c
3ffffc
30000c
080380
0e0318
1c7ffc
180318
32031a
63ffff
870318
060318
0c7ff8
180300
380308
58fffc
980302
19ffff
180300
180300
180300
180300
ENDCHAR
STARTCHAR 2-08-54
ENCODING 10326
SWIDTH 1000 0
DWIDTH 24 0
BBX 24 24 0 -2
BITMAP
0001c0
0e3987
0c3186
0c3186
0c3186
6db186
6dbffe
6db006
6d8000
6d8006
6dffff
6d8180
6d8100
6da206
6dbfff
6db246
7fb246
61b246
603246
003246
003246
003246
00325e
00300c
ENDCHAR
STARTCHAR 2-08-55
ENCODING 10327
SWIDTH 1000 0
DWIDTH 24 0
BBX 24 24 0 -2
BITMAP
001c00
38180e
30180c
30180c
3ffffc
30008c
027fc0
030080
063060
0c6238
30419f
c7fec6
0380c0
000000
7ff7fe
04608c
0e61cc
18e31c
61ec3c
03606c
0c618c
10620c
03e07c
00c018
ENDCHAR
STARTCHAR 2-08-56
ENCODING 10328
SWIDTH 1000 0
DWIDTH 24 0
BBX 24 24 0 -2
BITMAP
0001c0
0e0180
0c0186
0c7fff
0c0000
6d8000
6d8ff8
6d8c18
6d8c18
6d8ff8
6d8000
6da006
6dbfff
6db006
6db006
6db7f6
7fb636
61b636
603636
0037f6
003006
003006
00301e
00300c
ENDCHAR
STARTCHAR 2-08-57
ENCODING 10329
SWIDTH 1000 0
DWIDTH 24 0
BBX 24 24 0 -2
BITMAP
000200
0e0380
0c0300
0c240c
0c3ffe
6db10c
6db10c
6db10c
6dbffc
6db10c
6db10c
6db10c
6dbffc
6d80c8
6d88cc
6d8ec8
7f8cd2
618cd3
600cfd
0018d0
0018c2
0030c3
0060ff
01807e
ENDCHAR
STARTCHAR 2-08-58
ENCODING 10330
SWIDTH 1000 0
DWIDTH 24 0
BBX 24 24 0 -2
BITMAP
000188
0e031c
0c1ef0
0c0660
0c7ffe
6d8660
6d8664
6dbffe
6d8664
6d8664
6dffff
6d8664
6d8664
6dbffc
6d8664
6d8e60
7f8e70
619e70
601668
00366c
002667
004666
008662
000660
ENDCHAR
STARTCHAR 2-08-59
ENCODING 10331
SWIDTH 1000 0
DWIDTH 24 0
BBX 24 24 0 -2
BITMAP
001c00
38180e
30180c
30180c
3ffffc
30000c
070100
0611fe
06dd86
7ff98c
06318c
066198
06cd90
ffffa0
030198
06318c
1ff984
383186
d83186
1ff186
1831be
18318c
1ff180
183180
ENDCHAR
STARTCHAR 2-08-60
ENCODING 10332
SWIDTH 1000 0
DWIDTH 24 0
BBX 24 24 0 -2
BITMAP
00000c
0e7ffe
0c0240
0c0240
0c224c
6dbffe
6db24c
6db24c
6db24c
6db24c
6dbffc
6db00c
6d8000
6d9ff8
6d8000
6d8006
7fffff
618180
601180
001990
00318c
002186
004f86
000300
ENDCHAR
STARTCHAR 2-08-61
ENCODING 10333
SWIDTH 1000 0
DWIDTH 24 0
BBX 24 24 0 -2
BITMAP
001c00
38180e
30180c
30180c
3ffffc
30000c
0300c0
73018c
6303fe
63071c
631db8
7f6cf0
6306c0
0307b8
033c30
ff0036
337fff
331030
330c30
330630
630630
630030
4301f0
830060
ENDCHAR
STARTCHAR 2-08-62
ENCODING 10334
SWIDTH 1000 0
DWIDTH 24 0
BBX 24 24 0 -2
BITMAP
001800
0430c0
07ffe0
0600c0
07ffc0
0600c0
07ffc0
060018
07fffc
060000
07fffe
10020c
12218c
23189c
630818
6000f8
001c30
38180e
30180c
30180c
30180c
30180c
3ffffc
30000c
ENDCHAR
STARTCHAR 2-08-63
ENCODING 10335
SWIDTH 1000 0
DWIDTH 24 0
BBX 24 24 0 -2
BITMAP
000fe0
0e0020
0c0c30
0c0c18
0c180e
6d9007
6dbfff
6df18c
6db9bc
6db5ac
6db7cc
6db18c
6dbffc
6d8000
6d9018
6d9ffc
7f9818
619818
601ff8
001818
001818
001818
001ff8
001818
ENDCHAR
STARTCHAR 2-08-64
ENCODING 10336
SWIDTH 1000 0
DWIDTH 24 0
BBX 24 24 0 -2
BITMAP
001c00
38180e
30180c
30180c
3ffffc
30040c
060700
070600
0cc60c
0867fe
10658c
3f8988
460990
86d180
7fe180
060180
466340
26c340
368220
370620
066410
ff881c
78100f
406006
ENDCHAR
STARTCHAR 2-08-65
ENCODING 10337
SWIDTH 1000 0
DWIDTH 24 0
BBX 24 24 0 -2
BITMAP
00060c
0e14a9
0c15ab
0c356a
0c2c58
6d8a16
6d9323
6da141
6d9006
6d9fff
6db006
6db1c4
6d8180
6d818c
6d9ffe
6d818c
7f830c
61830c
60060c
00060c
000c1c
001818
0030f8
00c030
ENDCHAR
STARTCHAR 2-08-66
ENCODING 10338
SWIDTH 1000 0
DWIDTH 24 0
BBX 24 24 0 -2
BITMAP
0010e8
0e08ce
0c0ccc
0c0cd0
0c00c2
6d9fff
6d83d0
6d82d0
6d86c8
6d84ce
6d88c7
6db0c2
6d880c
6d8f4c
6d897f
6d994c
7f934c
61aa4c
604e4c
0005ff
000c0c
00180c
00300c
00c00c
ENDCHAR
STARTCHAR 2-08-67
ENCODING 10339
SWIDTH 1000 0
DWIDTH 24 0
BBX 24 24 0 -2
BITMAP
004006
1064ff
107e26
104426
10cc26
528826
529266
52ff5e
52928c
529200
52921c
52fe58
529258
52927f
529298
529218
7efe18
4282ff
408218
008218
018218
010218
011e18
020618
ENDCHAR
STARTCHAR 2-08-68
ENCODING 10340
SWIDTH 1000 0
DWIDTH 24 0
BBX 24 24 0 -2
BITMAP
001c00
38180e
30180c
30180c
3ffffc
34080c
070e00
0e0c18
1ffffc
381800
dffff0
181800
1ffff0
181804
1ffffe
180000
00c20c
3fe3fe
30c30c
30ff0c
30c30c
30000c
30007c
300018
ENDCHAR
STARTCHAR 2-08-69
ENCODING 10341
SWIDTH 1000 0
DWIDTH 24 0
BBX 24 24 0 -2
BITMAP
00e000
10c018
1ffffc
180718
19ff98
189b18
18da18
1bffd8
183c18
187b18
18d998
1b1998
003002
ffffff
006100
01c0c0
070078
1c1c1f
e01806
181818
181818
181818
1ffff8
180018
ENDCHAR
STARTCHAR 2-08-70
ENCODING 10342
SWIDTH 1000 0
DWIDTH 24 0
BBX 24 24 0 -2
BITMAP
000100
0e0998
0c0ffc
0c0c18
0c0ff8
6d8c18
6d8ff8
6d8c18
6d8ff8
6d8000
6d9ffc
6d988c
6d988c
6d9ffc
6d988c
6d988c
7f9ffc
618630
607fff
000630
000630
000c30
001830
006030
ENDCHAR
STARTCHAR 2-08-71
ENCODING 10343
SWIDTH 1000 0
DWIDTH 24 0
BBX 24 24 0 -2
BITMAP
0001c0
0e0188
0c3ffc
0c0180
0c0190
6d9ff8
6d8002
6dffff
6d8002
6d9ff4
6d8180
6d8190
6dbff8
6d8002
6dffff
6d800c
6d800c
7fbeff
61b60c
6036cc
00364c
003e0c
00003c
000018
ENDCHAR
STARTCHAR 2-08-72
ENCODING 10344
SWIDTH 1000 0
DWIDTH 24 0
BBX 24 24 0 -2
BITMAP
002c58
0e2850
0c7efe
0c4890
0c0810
6dffff
6d9428
6d952a
6db64b
6da48f
6dc000
6d9ffc
6d980c
6d9ffc
6d980c
6d980c
7f9ffc
61980c
60180c
001ffc
000400
000e38
001c0e
006006
ENDCHAR
STARTCHAR 2-08-73
ENCODING 10345
SWIDTH 1000 0
DWIDTH 24 0
BBX 24 24 0 -2
BITMAP
00468c
107efe
10468c
10468c
107efc
540000
550006
55ffff
558020
55be38
558830
55ff62
55a27f
55a2c6
55be86
55a344
55a24c
7dbe28
452238
412210
013e3c
02f22f
024246
040282
ENDCHAR
STARTCHAR 2-08-74
ENCODING 10346
SWIDTH 1000 0
DWIDTH 24 0
BBX 24 24 0 -2
BITMAP
003838
103030
103e34
113136
11ffb6
55a130
55fc36
55a2ff
559e30
558030
55ff30
558038
55be28
55a228
55be28
558028
7d7f28
455524
417724
014144
025d46
024947
044982
004b82
ENDCHAR
STARTCHAR 2-08-75
ENCODING 10347
SWIDTH 1000 0
DWIDTH 24 0
BBX 24 24 0 -2
BITMAP
00000c
7ffffe
000000
071c70
061860
0c30c0
186180
30c300
186180
0c30c0
061860
071c70
030c30
030c30
000008
3ffffc
001800
001800
001800
001800
001800
001806
ffffff
000000
ENDCHAR
STARTCHAR 2-08-76
ENCODING 10348
SWIDTH 1000 0
DWIDTH 24 0
BBX 24 24 0 -2
BITMAP
020820
038e38
030c30
061860
041040
082080
041040
061860
030c30
030c30
004000
086030
0ffff8
0c0030
0c01b0
0c8330
0c6630
0c1830
0c1c30
0c6730
0d8330
0c0030
0ffff0
0c0030
ENDCHAR
STARTCHAR 2-08-77
ENCODING 10349
SWIDTH 1000 0
DWIDTH 24 0
BBX 24 24 0 -2
BITMAP
061860
0c30c0
186180
0e38e0
061860
100018
1ffffc
18e398
181e18
187c18
19c318
1ffff8
000000
1c3870
1a3460
19b360
18b160
1a3460
19b362
18b132
183032
fefe1a
70700f
404007
ENDCHAR
STARTCHAR 2-08-78
ENCODING 10350
SWIDTH 1000 0
DWIDTH 24 0
BBX 24 24 0 -2
BITMAP
000000
000030
007ff8
030030
ff8c30
180c30
180c30
180c30
180c30
180c30
180db0
187ff0
180c30
180c30
180c30
198c30
1e0830
f81812
60181a
40101a
00300e
00200e
004007
008003
ENDCHAR
STARTCHAR 2-08-79
ENCODING 10351
SWIDTH 1000 0
DWIDTH 24 0
BBX 24 24 0 -2
BITMAP
000000
200030
3ffff8
300030
300030
300030
300030
300030
3ffff0
300030
300030
300000
300000
30000c
3ffffe
30000c
30000c
30000c
30000c
30000c
30000c
3ffffc
30000c
300000
ENDCHAR
STARTCHAR 2-08-80
ENCODING 10352
SWIDTH 1000 0
DWIDTH 24 0
BBX 24 24 0 -2
BITMAP
000000
000006
7fffff
001800
001800
001800
20180c
3ffffe
30180c
30180c
30180c
30180c
30180c
30180c
30180c
30180c
30180c
30180c
30187c
301818
001800
001800
001800
001800
ENDCHAR
STARTCHAR 2-08-81
ENCODING 10353
SWIDTH 1000 0
DWIDTH 24 0
BBX 24 24 0 -2
BITMAP
0e0380
0c0300
0c1230
0c1ff8
4d9830
7fd830
6d9830
6d9830
6d9830
6d9830
6d9830
6d9830
6d9830
6d9830
6d9830
6f9830
6d1830
6c1830
0c3032
0c3032
0c6032
0c4033
0c803f
0d001e
ENDCHAR
STARTCHAR 2-08-82
ENCODING 10354
SWIDTH 1000 0
DWIDTH 24 0
BBX 24 24 0 -2
BITMAP
041c80
071860
0e1820
0c180c
180ffe
39fc00
580600
980700
180382
1801c2
1800f3
18003f
181c0e
001800
101818
1ffffc
181818
181818
181818
181818
181818
1818f8
181830
001800
ENDCHAR
STARTCHAR 2-08-83
ENCODING 10355
SWIDTH 1000 0
DWIDTH 24 0
BBX 24 24 0 -2
BITMAP
0e0100
0c01c0
0c0180
0c0180
4d8100
7fd206
6d9fff
6d9806
6d9806
6d9806
6d9806
6d9806
6d9806
6d9ffe
6d9806
6f9806
6d1806
6c1806
0c1806
0c1806
0c1806
0c1ffe
0c1806
0c1806
ENDCHAR
STARTCHAR 2-08-84
ENCODING 10356
SWIDTH 1000 0
DWIDTH 24 0
BBX 24 24 0 -2
BITMAP
001c00
0218c0
079830
0f181c
1c180e
301807
601803
a0180c
3ffffe
30180c
30180c
30180c
311a0c
31d98c
3198cc
3318ec
33186c
32186c
34180c
30180c
30180c
30180c
30187c
301818
ENDCHAR
STARTCHAR 2-08-85
ENCODING 10357
SWIDTH 1000 0
DWIDTH 24 0
BBX 24 24 0 -2
BITMAP
001c00
001800
001806
ffffff
00c300
10c300
1cc330
18c30c
318306
218307
430303
860300
181c00
001800
101818
1ffffc
181818
181818
181818
181818
181818
1818f8
181830
001800
ENDCHAR
STARTCHAR 2-08-86
ENCODING 10358
SWIDTH 1000 0
DWIDTH 24 0
BBX 24 24 0 -2
BITMAP
038106
0331ff
3ff986
03018c
033198
3ff990
030188
031984
7ffd86
070186
0601be
0c018c
180180
601d80
001800
101818
1ffffc
181818
181818
181818
181818
1818f8
181830
001800
ENDCHAR
STARTCHAR 2-08-87
ENCODING 10359
SWIDTH 1000 0
DWIDTH 24 0
BBX 24 24 0 -2
BITMAP
0e0380
0c0304
0c0307
0c0336
4dbffc
7f830c
6d8318
6d8330
6d8366
6dffff
6d81b0
6d8318
6d8618
6d8ffe
6dbc0c
6fcc0c
6d0c0c
6c0ffc
0c0c0c
0c0c0c
0c0c0c
0c0ffc
0c0c0c
0c0c0c
ENDCHAR
STARTCHAR 2-08-88
ENCODING 10360
SWIDTH 1000 0
DWIDTH 24 0
BBX 24 24 0 -2
BITMAP
0e0c90
0c0c90
0c0c90
0c0c96
4dbfff
7fcc90
6d8c90
6d8c90
6d8cf0
6d8c00
6d8c0c
6d8ffe
6d8c00
6d81c0
6d8186
6fbfff
6d03a0
6c07a0
0c0590
0c0d98
0c198f
0c318e
0cc186
0c0180
ENDCHAR
STARTCHAR 2-08-89
ENCODING 10361
SWIDTH 1000 0
DWIDTH 24 0
BBX 24 24 0 -2
BITMAP
0e0800
0c0e00
0c0d8c
0c0fde
4d994c
7f9148
6dad70
6dc620
6db230
6d941c
6d880f
6d97e6
6de000
6d8000
6d800c
6fbffe
6d0180
6c1180
0c1da0
0c1998
0c318c
0c618e
0c8f86
0c0300
ENDCHAR
STARTCHAR 2-08-90
ENCODING 10362
SWIDTH 1000 0
DWIDTH 24 0
BBX 24 24 0 -2
BITMAP
0e000c
0c7ffe
0c0240
0c0240
4da24c
7fbffe
6db24c
6db24c
6db24c
6db24c
6dbffc
6db00c
6d8000
6d9ff8
6d8000
6f8006
6d7fff
6c0180
0c1180
0c1990
0c318c
0c2186
0c4f86
0c0300
ENDCHAR
STARTCHAR 2-08-91
ENCODING 10363
SWIDTH 1000 0
DWIDTH 24 0
BBX 24 24 0 -2
BITMAP
1c4006
187fff
186000
186000
5b6087
7f6fc6
5b6006
5b6006
5b6986
5b6fff
5b6d86
5b6d86
5b6da6
5b6fb6
5b6db6
5f6006
5a6986
586d86
184506
184506
188166
18bf86
191e1e
1a100c
ENDCHAR
STARTCHAR 2-08-92
ENCODING 10364
SWIDTH 1000 0
DWIDTH 24 0
BBX 24 24 0 -2
BITMAP
070038
060030
7fe036
060fff
fff030
060630
7fe330
060330
07f030
ff81f0
781860
043000
07ffe0
060060
07ffe0
060060
07ffe0
101818
1ffffc
181818
181818
1818f8
181830
001800
ENDCHAR
STARTCHAR 2-08-93
ENCODING 10365
SWIDTH 1000 0
DWIDTH 24 0
BBX 24 24 0 -2
BITMAP
0e01c0
0c0188
0c3ffc
0c0180
4d8190
7fdff8
6d8002
6dffff
6d8002
6d9ff4
6d8180
6d8190
6dbff8
6d8002
6dffff
6f800c
6d000c
6c3eff
0c360c
0c36cc
0c364c
0c3e0c
0c003c
0c0018
ENDCHAR
STARTCHAR 2-08-94
ENCODING 10366
SWIDTH 1000 0
DWIDTH 24 0
BBX 24 24 0 -2
BITMAP
0e0738
0c0632
0c7fff
0c0630
4d8630
7fc000
6dbffe
6da222
6da222
6dbffe
6d8010
6d80cc
6da0c4
6dbfff
6db0c0
6fb0c4
6d3046
6c2c4c
0c2678
0c6222
0c4072
0c41da
0c8e0f
0d0003
ENDCHAR
STARTCHAR 2-12-01
ENCODING 11297
SWIDTH 1000 0
DWIDTH 24 0
BBX 24 24 0 -2
BITMAP
1c01c0
180180
184186
187fff
5b6000
7f6307
5b6306
5b7fe6
5b6306
5b633f
5b6fc6
5b6006
5b6fa6
5b6db6
5b6db6
5f6f86
5a6d86
586006
184986
184d06
188566
18bf86
191e1e
1a100c
ENDCHAR
STARTCHAR 2-12-02
ENCODING 11298
SWIDTH 1000 0
DWIDTH 24 0
BBX 24 24 0 -2
BITMAP
1c1010
181a1a
183333
182626
5b7f7f
7fe4e4
5b6464
5b7f7f
5b6464
5b6464
5b7f7f
5b6464
5b6464
5b7fff
5b6060
5f000c
5a3ffe
580818
180430
180260
180180
180370
180c1f
187006
ENDCHAR
STARTCHAR 2-12-03
ENCODING 11299
SWIDTH 1000 0
DWIDTH 24 0
BBX 24 24 0 -2
BITMAP
000e00
000c00
000c00
100c06
1fffff
180000
1840e0
1870c0
1860c0
18c0c6
18dfff
1981e0
1981e0
1b83d0
1b83d0
1d86d8
3186c8
318ccc
3188c6
2190c7
61a0c2
4180c0
8180c0
0180c0
ENDCHAR
STARTCHAR 2-12-04
ENCODING 11300
SWIDTH 1000 0
DWIDTH 24 0
BBX 24 24 0 -2
BITMAP
001c00
001800
201806
3fffff
300000
31c0e0
3180c0
3180c0
3180c6
31afff
3ff0c0
3180c0
3180cc
318ffe
31e20c
3f8118
378118
2580b0
618060
6180e0
4181b0
41831c
8f8c0f
033006
ENDCHAR
STARTCHAR 2-12-05
ENCODING 11301
SWIDTH 1000 0
DWIDTH 24 0
BBX 24 24 0 -2
BITMAP
001c00
001800
201806
3fffff
300000
30e300
30c180
30c186
3fffff
30c008
30c01c
30f070
31f1c4
31b60e
31b038
31b0e2
31b787
21301c
6330f2
623782
463003
443fff
881ffe
100000
ENDCHAR
STARTCHAR 2-12-06
ENCODING 11302
SWIDTH 1000 0
DWIDTH 24 0
BBX 24 24 0 -2
BITMAP
000e00
000c00
100c06
1fffff
180000
1871c0
18618c
1ffffe
186180
186180
187f80
186180
190030
19fff8
198030
198030
19fff0
198130
318080
3100c0
230060
420038
84001f
080006
ENDCHAR
STARTCHAR 2-12-07
ENCODING 11303
SWIDTH 1000 0
DWIDTH 24 0
BBX 24 24 0 -2
BITMAP
000e00
000c00
000c00
100c06
1fffff
180000
1838e0
1830c0
1830c6
1fffff
1830c0
1830c0
190018
19fffc
198618
198618
318618
31fff8
318618
218618
618618
418618
81fff8
018018
ENDCHAR
STARTCHAR 2-12-08
ENCODING 11304
SWIDTH 1000 0
DWIDTH 24 0
BBX 24 24 0 -2
BITMAP
001c00
001800
101806
1fffff
181000
181800
193018
19fffc
198618
198618
19fff8
198618
198618
198618
19fff8
19b320
303320
303360
306348
2063fa
60c34a
418303
8303ff
0c01fe
ENDCHAR
STARTCHAR 2-12-09
ENCODING 11305
SWIDTH 1000 0
DWIDTH 24 0
BBX 24 24 0 -2
BITMAP
001c00
001800
101806
1fffff
180000
186080
1860e0
1bfcc0
1860c6
1860ff
1ffd8c
18610c
18628c
1ffc98
188058
189850
30fc30
309820
319870
211850
6118d8
42308c
84f10f
006206
ENDCHAR
STARTCHAR 2-12-10
ENCODING 11306
SWIDTH 1000 0
DWIDTH 24 0
BBX 24 24 0 -2
BITMAP
001c00
001800
101806
1fffff
180000
190018
19fffc
198618
198618
19fff8
198618
198618
19fff8
1830c0
1830cc
1bfffe
3030c0
3030c6
37ffff
202000
6038e0
40703c
81c00e
0e0006
ENDCHAR
STARTCHAR 2-12-11
ENCODING 11307
SWIDTH 1000 0
DWIDTH 24 0
BBX 24 24 0 -2
BITMAP
062006
ff3fff
063006
0c3006
0c3466
1837f6
183666
333666
7fb7e6
633666
033606
033626
233626
2637f6
5633e6
563006
0c3006
0c303e
0a300c
198000
10f000
203fff
400ffe
800000
ENDCHAR
STARTCHAR 2-12-12
ENCODING 11308
SWIDTH 1000 0
DWIDTH 24 0
BBX 24 24 0 -2
BITMAP
064006
ff7fff
066666
0c6666
0c6666
186666
1867e6
336666
7f6666
636666
036666
036666
2367e6
266666
566666
566666
0c6666
0c7ffe
0a6006
198000
10f000
203fff
400ffe
800000
ENDCHAR
STARTCHAR 2-12-13
ENCODING 11309
SWIDTH 1000 0
DWIDTH 24 0
BBX 24 24 0 -2
BITMAP
001c00
001800
001806
ffffff
006300
086300
0e6320
0c6318
18c30c
10c306
218306
431f00
060600
18e1c0
00c180
00c186
ffffff
00c180
018180
018180
030180
060180
180180
600180
ENDCHAR
STARTCHAR 2-12-14
ENCODING 11310
SWIDTH 1000 0
DWIDTH 24 0
BBX 24 24 0 -2
BITMAP
000720
000610
000618
000618
000600
000606
ffffff
000600
000600
000600
006300
3ff300
000300
000300
000180
00c180
1fe180
0000c4
0000c4
000064
003074
7ff83e
00001e
00000c
ENDCHAR
STARTCHAR 2-12-15
ENCODING 11311
SWIDTH 1000 0
DWIDTH 24 0
BBX 24 24 0 -2
BITMAP
006006
7ff7ff
006006
006006
006006
206206
3fe3fe
306306
300300
300300
300300
306306
7ff7ff
606606
606606
006006
006006
006006
006006
00e00e
00c00c
01c01c
0f80f8
030030
ENDCHAR
STARTCHAR 2-12-16
ENCODING 11312
SWIDTH 1000 0
DWIDTH 24 0
BBX 24 24 0 -2
BITMAP
0180e0
ffc0c0
0180c0
0180c0
0190c6
419fff
7f98c6
6198c6
6018c6
6018c6
6018c6
6198c6
7fd8c6
c198c6
c198c6
0198c6
0198c6
0198c6
0198de
0398cc
0300c0
0700c0
3e00c0
0c00c0
ENDCHAR
STARTCHAR 2-12-17
ENCODING 11313
SWIDTH 1000 0
DWIDTH 24 0
BBX 24 24 0 -2
BITMAP
018400
ffc700
018600
018600
018600
418c06
7f8fff
618986
601986
601184
602188
61a180
7fc180
c18180
c18340
018340
018340
018220
018620
038430
030c18
07081f
3e100e
0c6006
ENDCHAR
STARTCHAR 2-12-18
ENCODING 11314
SWIDTH 1000 0
DWIDTH 24 0
BBX 24 24 0 -2
BITMAP
0601c0
ff018c
063ffe
06018c
06018c
467fff
7e018c
66018c
603ffc
600180
606db7
666db6
7f6db6
c67dbe
c66186
067ffe
066186
066db6
067dbe
064db6
0e4db6
0ccdb6
7c8db6
190186
ENDCHAR
STARTCHAR 2-12-19
ENCODING 11315
SWIDTH 1000 0
DWIDTH 24 0
BBX 24 24 0 -2
BITMAP
070000
060010
06001c
060038
063070
fff8c0
10c188
10c60e
10d81c
28c038
688060
2980c4
098307
0d8c0e
05001c
070030
030060
078180
04c600
0c7000
083e00
100fc0
2001ff
c0003e
ENDCHAR
STARTCHAR 2-12-20
ENCODING 11316
SWIDTH 1000 0
DWIDTH 24 0
BBX 24 24 0 -2
BITMAP
020408
7f7e0e
00000c
3e7c18
224410
2a5420
2a5444
018087
21840e
3ffe0c
222018
222010
3ffc20
222444
222487
3ffc06
20000e
28440c
2f4e18
487010
484420
8f4640
bc7e80
103d00
ENDCHAR
STARTCHAR 2-12-21
ENCODING 11317
SWIDTH 1000 0
DWIDTH 24 0
BBX 24 24 0 -2
BITMAP
040600
070600
0e0d00
0c0c80
1818c0
301860
443038
87201f
0e40ce
0cbfe6
190000
380000
580018
99fffc
180c18
180c18
180c18
180c18
180c18
180c18
180cf8
180c30
180c00
180c00
ENDCHAR
STARTCHAR 2-12-22
ENCODING 11318
SWIDTH 1000 0
DWIDTH 24 0
BBX 24 24 0 -2
BITMAP
0401c0
070180
0e0180
0c398c
1831fe
303180
443180
873180
0e3186
0dffff
180180
382180
583988
98318e
18619c
184198
188fb8
190330
180060
1800c0
180180
180600
181800
18e000
ENDCHAR
STARTCHAR 2-12-23
ENCODING 11319
SWIDTH 1000 0
DWIDTH 24 0
BBX 24 24 0 -2
BITMAP
040380
070300
0e030c
0cfffe
180300
300318
443ffc
870318
0e031a
0cffff
180318
380318
583ff8
980318
184300
187300
18630c
1863fe
186300
185300
18cb00
188700
1903ff
1a00fe
ENDCHAR
STARTCHAR 2-12-24
ENCODING 11320
SWIDTH 1000 0
DWIDTH 24 0
BBX 24 24 0 -2
BITMAP
0801c0
1c0180
180198
37cffc
20c198
48c19a
8dbfff
1d8198
1b0198
330ff8
37e198
766180
b06188
326ffc
326180
356182
357fff
30c180
30c180
31a180
313800
321fff
3407fe
300000
ENDCHAR
STARTCHAR 2-12-25
ENCODING 11321
SWIDTH 1000 0
DWIDTH 24 0
BBX 24 24 0 -2
BITMAP
040380
070300
0e0318
0cfffc
181040
300860
440840
87008c
0efffe
0c0000
187ff8
386318
586318
987ff8
186318
186318
187ff8
180300
180308
18fffc
180300
180302
1bffff
180000
ENDCHAR
STARTCHAR 2-12-26
ENCODING 11322
SWIDTH 1000 0
DWIDTH 24 0
BBX 24 24 0 -2
BITMAP
001c00
001800
001800
001800
001a00
009900
009980
0098c0
0198c0
019800
031800
071800
061800
001800
001800
001800
001800
001800
001800
001800
001800
001800
001800
001800
ENDCHAR
STARTCHAR 2-12-27
ENCODING 11323
SWIDTH 1000 0
DWIDTH 24 0
BBX 24 24 0 -2
BITMAP
000000
000000
000000
000000
007000
006000
006000
006000
006000
006420
046210
046318
08618c
18618c
3060c6
7060c6
6060c6
006000
006000
03e000
00c000
000000
000000
000000
ENDCHAR
STARTCHAR 2-12-28
ENCODING 11324
SWIDTH 1000 0
DWIDTH 24 0
BBX 24 24 0 -2
BITMAP
0e0380
0c0300
0c0300
0c0300
0e0300
2d0300
2d8306
2dbfff
6c0306
6c0306
cc0306
cc0306
0c0706
0c0606
0c0606
0c0606
0c0606
0c0c06
0c0c0e
0c080c
0c180c
0c101c
0c20f8
0cc030
ENDCHAR
STARTCHAR 2-12-29
ENCODING 11325
SWIDTH 1000 0
DWIDTH 24 0
BBX 24 24 0 -2
BITMAP
0e0000
0c0018
0c3ffc
0c0018
0e0018
2d0018
2d8018
2d8018
6c0018
6c2018
cc3ff8
cc3018
0c3018
0c3000
0c3000
0c3000
0c3000
0c3000
0c3000
0c3004
0c3004
0c3006
0c3ffe
0c1ffc
ENDCHAR
STARTCHAR 2-12-30
ENCODING 11326
SWIDTH 1000 0
DWIDTH 24 0
BBX 24 24 0 -2
BITMAP
000720
000610
000618
000618
000600
000606
ffffff
000600
040600
030600
018600
00c300
00c300
0e0300
0c2180
2c1180
2c1980
6c0cc4
6c4cc4
cc4c64
cc6074
0fe03e
07c01e
00000c
ENDCHAR
STARTCHAR 2-12-31
ENCODING 11327
SWIDTH 1000 0
DWIDTH 24 0
BBX 24 24 0 -2
BITMAP
0e0000
0c000c
0c7ffe
0c0180
0e0180
2d0180
2d8180
2d8180
6c0180
6c0180
cc0186
ccffff
0c0180
0c0180
0c0180
0c0180
0c0180
0c0180
0c0180
0c0180
0c0180
0c0180
0c0180
0c0180
ENDCHAR
STARTCHAR 2-12-32
ENCODING 11328
SWIDTH 1000 0
DWIDTH 24 0
BBX 24 24 0 -2
BITMAP
0e0800
0c0e00
0c0c00
0c0c00
0e0c06
2d1fff
2d9800
2d9800
6c3000
6c2018
cc5ffc
cc8038
0c0070
0c00e0
0c01c0
0c0380
0c0700
0c0e02
0c1c02
0c1802
0c3802
0c3007
0c3fff
0c1ffe
ENDCHAR
STARTCHAR 2-12-33
ENCODING 11329
SWIDTH 1000 0
DWIDTH 24 0
BBX 24 24 0 -2
BITMAP
000018
3ffffc
003000
003000
006000
0060c0
1fffe0
00c0c0
00c0c0
00c0c0
0180c0
0180c6
ffffff
000000
001000
01cc20
118618
11860e
318007
618043
e18043
c18060
01ffe0
00ffc0
ENDCHAR
STARTCHAR 2-12-34
ENCODING 11330
SWIDTH 1000 0
DWIDTH 24 0
BBX 24 24 0 -2
BITMAP
0e01c0
0c0180
0c0180
0c0186
0e7fff
2d0180
2d8180
2d8180
6c0180
6c018c
cc7ffe
cc080c
0c0818
0c0418
0c0430
0c0260
0c03c0
0c0180
0c03c0
0c0660
0c0c38
0c181f
0c600e
0d8002
ENDCHAR
STARTCHAR 2-12-35
ENCODING 11331
SWIDTH 1000 0
DWIDTH 24 0
BBX 24 24 0 -2
BITMAP
0e000c
0c003e
0c21f0
0c3fc0
0e30c0
2d30c0
2db0c0
2db0c0
6c30c0
6c30c6
cc3fff
cc30c0
0c30c0
0c30c0
0c30c0
0c3060
0c3060
0c3062
0c3032
0c3032
0c331a
0dfc1f
0ce00f
0c8006
ENDCHAR
STARTCHAR 2-12-36
ENCODING 11332
SWIDTH 1000 0
DWIDTH 24 0
BBX 24 24 0 -2
BITMAP
0e01c0
0c0180
0c0186
0c019f
0e01f0
2d7f80
2d8180
2d8180
6c398e
6c318c
cc318c
cc318c
0c318c
0c318c
0c318c
0c3ffc
0c318c
0c3180
0c0182
0c0182
0c0182
0c0183
0c01ff
0c00fe
ENDCHAR
STARTCHAR 2-12-37
ENCODING 11333
SWIDTH 1000 0
DWIDTH 24 0
BBX 24 24 0 -2
BITMAP
0e0380
0c0300
0c0300
0c0300
0e0306
2d7fff
2d8000
2d8000
6c1060
6c1ff0
cc1860
cc1860
0c1860
0c1860
0c1860
0c1860
0c1860
0c1860
0c1862
0c3062
0c3062
0c6063
0cc07f
0d003e
ENDCHAR
STARTCHAR 2-12-38
ENCODING 11334
SWIDTH 1000 0
DWIDTH 24 0
BBX 24 24 0 -2
BITMAP
003800
003000
003018
3ffffc
006000
006000
1ffff8
00c200
008206
ffffff
018180
0300c0
023860
063038
0c301f
18300e
313446
c13230
023318
06319c
1c318c
18318c
01f000
006000
ENDCHAR
STARTCHAR 2-12-39
ENCODING 11335
SWIDTH 1000 0
DWIDTH 24 0
BBX 24 24 0 -2
BITMAP
0e0380
0c0300
0c0300
0c0300
0e0300
2d0306
2d83ff
2d8300
6c0300
6c0300
cc0300
cc0300
0c430c
0c7ffe
0c600c
0c600c
0c600c
0c600c
0c600c
0c600c
0c600c
0c7ffc
0c600c
0c600c
ENDCHAR
STARTCHAR 2-12-40
ENCODING 11336
SWIDTH 1000 0
DWIDTH 24 0
BBX 24 24 0 -2
BITMAP
0e01c0
0c1180
0c1d80
0c1980
0e1980
2d118c
2dbffe
2da180
6c2180
6c4180
cc0180
cc0186
0c7fff
0c0180
0c0340
0c0340
0c0360
0c0620
0c0630
0c0c18
0c181c
0c300f
0c6006
0c8002
ENDCHAR
STARTCHAR 2-12-41
ENCODING 11337
SWIDTH 1000 0
DWIDTH 24 0
BBX 24 24 0 -2
BITMAP
020070
038060
070066
067fff
0e0060
1e2060
361860
c60c60
060c60
060060
060060
060060
0603e0
0600c0
001000
01c800
118c10
11860c
318606
618043
e18043
c18060
01ffe0
00ffc0
ENDCHAR
STARTCHAR 2-12-42
ENCODING 11338
SWIDTH 1000 0
DWIDTH 24 0
BBX 24 24 0 -2
BITMAP
0e0800
0c0e0c
0c1dfe
0c1800
0e3000
2d2400
2d8700
2d8600
6c0c06
6c0dff
cc1818
cc1818
0c3818
0c5818
0c1818
0c1818
0c1818
0c1818
0c1818
0c1818
0c1818
0c1818
0c18f8
0c1830
ENDCHAR
STARTCHAR 2-12-43
ENCODING 11339
SWIDTH 1000 0
DWIDTH 24 0
BBX 24 24 0 -2
BITMAP
0e0670
0c0660
0c0660
0c0660
0e4664
2d2667
2da666
2db66c
6c3670
6c3660
cc0660
cc0660
0c0e70
0c366c
0ce666
0c6663
0c4663
0c0660
0c0e60
0c0c62
0c0c62
0c1863
0c307f
0cc03e
ENDCHAR
STARTCHAR 2-12-44
ENCODING 11340
SWIDTH 1000 0
DWIDTH 24 0
BBX 24 24 0 -2
BITMAP
000060
1ffff0
0001c0
006700
103818
1ffffc
181818
181818
1ffff8
181818
181818
1ffff8
181818
181818
1818f8
000030
01d000
118c10
11860c
318646
618043
e18063
c1ffe0
00ffc0
ENDCHAR
STARTCHAR 2-12-45
ENCODING 11341
SWIDTH 1000 0
DWIDTH 24 0
BBX 24 24 0 -2
BITMAP
0e000c
0c087e
0ccfe0
ffec00
0c0c00
0c0c06
0c0fff
0f8c30
fe0c30
7c0c30
4c1830
0c1830
0c1030
7c2030
184030
000000
01d000
118c10
11860c
318646
618043
e18063
c1ffe0
00ffc0
ENDCHAR
STARTCHAR 2-12-46
ENCODING 11342
SWIDTH 1000 0
DWIDTH 24 0
BBX 24 24 0 -2
BITMAP
0e0010
0c183c
0c0770
0c01e0
0e03b8
2d0e1c
2db38c
2d8300
6c0306
6cffff
cc0600
cc0dc0
0c0d80
0c1986
0c3fff
0c7186
0cb186
0c3186
0c3186
0c3186
0c31be
0c318c
0c0180
0c0180
ENDCHAR
STARTCHAR 2-12-47
ENCODING 11343
SWIDTH 1000 0
DWIDTH 24 0
BBX 24 24 0 -2
BITMAP
020800
038e00
071c00
061806
0e3fff
0c2186
1c4188
3c91a0
6c1d90
8c1998
0c1998
0c318c
0c218c
0c418c
0c0f80
0c0300
01d000
118c10
11860c
318646
618043
e18063
c1ffe0
00ffc0
ENDCHAR
STARTCHAR 2-12-48
ENCODING 11344
SWIDTH 1000 0
DWIDTH 24 0
BBX 24 24 0 -2
BITMAP
001c00
001800
00180c
7ffffe
001800
101818
1ffffc
184218
184218
184218
184218
1ffff8
180000
000006
ffffff
000000
01d000
118c10
11860c
318646
618043
e18063
c1ffe0
00ffc0
ENDCHAR
STARTCHAR 2-12-49
ENCODING 11345
SWIDTH 1000 0
DWIDTH 24 0
BBX 24 24 0 -2
BITMAP
0e01c0
0c0180
0c0180
0c1186
0f1fff
2db006
2d7004
2c6030
6c1ff8
6c0000
cc0000
cc0006
0c7fff
0c0180
0c0180
0c1190
0c1d88
0c398c
0c3186
0c6187
0c4183
0c8183
0c0f80
0c0300
ENDCHAR
STARTCHAR 2-12-50
ENCODING 11346
SWIDTH 1000 0
DWIDTH 24 0
BBX 24 24 0 -2
BITMAP
0e0670
0c0660
0c0660
0c0660
0e0666
2d7e7f
2d8660
2d8660
6c0660
6c066c
cc7e7e
cc0660
0c0660
0c0660
0c0660
0cfe66
0c767f
0c4660
0c0660
0c0c60
0c0c60
0c1860
0c3060
0cc060
ENDCHAR
STARTCHAR 2-12-51
ENCODING 11347
SWIDTH 1000 0
DWIDTH 24 0
BBX 24 24 0 -2
BITMAP
0e01c0
0c0180
0c0180
0c1186
0f1fff
2db666
2d7664
2c6668
6c0c62
6c0c62
cc087f
cc103e
0c6000
0c0000
0c000c
0c3ffe
0c0180
0c0180
0c0180
0c0180
0c0180
0c0186
0cffff
0c0000
ENDCHAR
STARTCHAR 2-12-52
ENCODING 11348
SWIDTH 1000 0
DWIDTH 24 0
BBX 24 24 0 -2
BITMAP
0e200c
0c3ffe
0c318c
0c318c
0e318c
2d3ffc
2db18c
2db18c
6c318c
6c318c
cc3ffc
cc318c
0c0180
0c0182
0cffff
0c07c0
0c07a0
0c0da0
0c0d90
0c1998
0c318c
0c618f
0c8186
0d0182
ENDCHAR
STARTCHAR 2-12-53
ENCODING 11349
SWIDTH 1000 0
DWIDTH 24 0
BBX 24 24 0 -2
BITMAP
0e0306
0cffff
0c0306
0c060c
0e76cc
2d1c38
2d8e1c
2d9b36
6c1063
6c20c3
ccc100
cc0000
0c0606
0cffff
0c0686
0c0c8c
0ccc8c
0c2858
0c1870
0c1c20
0c3670
0c66dc
0cc18f
0d0606
ENDCHAR
STARTCHAR 2-12-54
ENCODING 11350
SWIDTH 1000 0
DWIDTH 24 0
BBX 24 24 0 -2
BITMAP
0e0018
0c20fc
0c3fc0
0c30c0
0e30c0
2d30c6
2dbfff
2db060
6c3060
6c3032
cc31b2
cc3e1b
0cf80f
0c6006
0c0000
0c3ffc
0c300c
0c300c
0c3ffc
0c300c
0c300c
0c300c
0c3ffc
0c300c
ENDCHAR
STARTCHAR 2-12-55
ENCODING 11351
SWIDTH 1000 0
DWIDTH 24 0
BBX 24 24 0 -2
BITMAP
0e0408
0c430e
0c318c
0c1998
0e1810
2d0020
2dbffc
2db18c
6c318c
6c318c
cc3ffc
cc318c
0c318c
0c318c
0c3ffc
0c318c
0c0180
0c0186
0cffff
0c0180
0c0180
0c0180
0c0180
0c0180
ENDCHAR
STARTCHAR 2-12-56
ENCODING 11352
SWIDTH 1000 0
DWIDTH 24 0
BBX 24 24 0 -2
BITMAP
0e1000
0c1006
0c3fff
0c7006
0e61c4
2d0180
2dbffe
2d8180
6c218c
6c3ffe
cc318c
cc318c
0c3ffc
0c318c
0c318c
0c3ffc
0c318c
0c0180
0c0186
0cffff
0c0180
0c0180
0c0180
0c0180
ENDCHAR
STARTCHAR 2-12-57
ENCODING 11353
SWIDTH 1000 0
DWIDTH 24 0
BBX 24 24 0 -2
BITMAP
0e1998
0c1998
0c1998
0c199a
0e7fff
2d1998
2d9998
2d9998
6c19f8
6c1800
cc1804
cc1ffe
0c1800
0c01c0
0c0186
0c7fff
0c03a0
0c07a0
0c0590
0c0d98
0c198f
0c318e
0cc186
0c0180
ENDCHAR
STARTCHAR 2-12-58
ENCODING 11354
SWIDTH 1000 0
DWIDTH 24 0
BBX 24 24 0 -2
BITMAP
0e0000
0c0006
0cffff
0c0180
0f0100
2d8300
2d8206
2c7fff
6c6666
6c6666
cc6666
cc67e6
0c6666
0c6666
0c6666
0c6666
0c67e6
0c6666
0c6666
0c6666
0c6666
0c7ffe
0c6006
0c6006
ENDCHAR
STARTCHAR 2-12-59
ENCODING 11355
SWIDTH 1000 0
DWIDTH 24 0
BBX 24 24 0 -2
BITMAP
0e1018
0c1ffc
0c1818
0c1818
0e1ff8
2d1818
2d9818
2d9818
6c1ff8
6c0400
cc0700
cc0e06
0c0fff
0c1806
0c31c6
0c7186
0db306
0c36e6
0c3466
0c3006
0c3fee
0c300c
0c007c
0c0018
ENDCHAR
STARTCHAR 2-12-60
ENCODING 11356
SWIDTH 1000 0
DWIDTH 24 0
BBX 24 24 0 -2
BITMAP
0e1030
0c1ff8
0c1830
0c1830
0e1ff0
2d1830
2d9830
2d9830
6c1ff0
6c0000
cc0006
ccffff
0c1800
0c1006
0c3fff
0c4446
0c8cc6
0d0886
0c1186
0c210e
0cc20c
0c041c
0c18f8
0c0030
ENDCHAR
STARTCHAR 2-12-61
ENCODING 11357
SWIDTH 1000 0
DWIDTH 24 0
BBX 24 24 0 -2
BITMAP
001800
101806
1fffff
307006
70e0c4
61ffe8
034180
062300
181e00
007780
01c1f0
0f007f
f3ffde
0300c2
0300c0
03ffc0
0300c0
01d000
118c10
11860c
318646
618043
61ffe3
00ffc0
ENDCHAR
STARTCHAR 2-12-62
ENCODING 11358
SWIDTH 1000 0
DWIDTH 24 0
BBX 24 24 0 -2
BITMAP
1c0002
18ffff
180180
184106
1c7fff
5a6666
5b6666
5b6666
586666
d86666
d86666
d8666e
186004
1801c0
180180
180186
187fff
180180
180340
180320
180630
180c1c
18180f
186006
ENDCHAR
STARTCHAR 2-12-63
ENCODING 11359
SWIDTH 1000 0
DWIDTH 24 0
BBX 24 24 0 -2
BITMAP
0e0e70
0c0c60
0c0c66
0c7fff
0e0c60
2d0c60
2da00c
2dbffe
6c300c
6c300c
cc3ffc
cc300c
0c300c
0c300c
0c3ffc
0c318c
0c0180
0c0186
0cffff
0c0180
0c0180
0c0180
0c0180
0c0180
ENDCHAR
STARTCHAR 2-12-64
ENCODING 11360
SWIDTH 1000 0
DWIDTH 24 0
BBX 24 24 0 -2
BITMAP
000060
081ff0
0ff020
1c1818
180c0c
30080c
4ffff0
001800
3ffffc
000000
0fffe0
000066
ffffff
000060
000060
0fffe0
000060
01d000
118c10
11860c
318646
618043
61ffe3
00ffc0
ENDCHAR
STARTCHAR 2-12-65
ENCODING 11361
SWIDTH 1000 0
DWIDTH 24 0
BBX 24 24 0 -2
BITMAP
20000c
3ffffe
30000c
37ffec
30380c
30f0cc
3719ec
307f0c
31cc0c
361f0c
307dcc
31ccec
363c6c
30080c
3ffffc
30000c
01d000
118c10
11860c
318646
618043
e18063
c1ffe0
00ffc0
ENDCHAR
STARTCHAR 2-12-66
ENCODING 11362
SWIDTH 1000 0
DWIDTH 24 0
BBX 24 24 0 -2
BITMAP
1c0018
1821fc
183fc0
183208
1c3104
5a6186
5b6186
5b4186
588000
d80600
d84f06
d8787f
186006
186006
186006
186406
187e7e
186006
186006
186006
186006
186006
187ffe
186006
ENDCHAR
STARTCHAR 2-12-67
ENCODING 11363
SWIDTH 1000 0
DWIDTH 24 0
BBX 24 24 0 -2
BITMAP
1c3880
1830e0
1830c0
19fec0
1e30c0
5b3086
5930ff
5bff88
58010e
d8314c
d8324c
d8304c
19ff48
186028
186028
187e38
186610
186610
18c638
18c628
188c2c
198c6f
193c46
1a1986
ENDCHAR
STARTCHAR 2-12-68
ENCODING 11364
SWIDTH 1000 0
DWIDTH 24 0
BBX 24 24 0 -2
BITMAP
000330
200316
3fffff
300300
304310
307b1c
304318
37fdb8
3041b0
3251e0
3358c0
264ce2
244db2
69c33b
40c61f
80180e
000000
01d000
118c10
11860c
318646
618043
e1ffe3
c0ffc0
ENDCHAR
STARTCHAR 2-12-69
ENCODING 11365
SWIDTH 1000 0
DWIDTH 24 0
BBX 24 24 0 -2
BITMAP
201c70
181866
0dffff
0c1860
801860
601fe0
318306
33ffff
058306
09b336
19b336
f1b336
71b336
31bff6
318006
39803e
19800c
001000
11cc10
11864c
318646
618063
e1ffe3
c0ffc0
ENDCHAR
STARTCHAR 2-12-70
ENCODING 11366
SWIDTH 1000 0
DWIDTH 24 0
BBX 24 24 0 -2
BITMAP
1c0380
184318
187ffc
186318
1c6318
5a7ff8
5b0300
5b0306
58ffff
d80000
d87ff8
d86018
186018
187ff8
186018
186018
187ff8
186018
186018
187ff8
181000
183870
18701c
19800c
ENDCHAR
STARTCHAR 2-12-71
ENCODING 11367
SWIDTH 1000 0
DWIDTH 24 0
BBX 24 24 0 -2
BITMAP
1c0380
18030c
18fffe
180300
1c7ff8
5a6318
5b6318
5b7ff8
586318
d86318
d87ff8
d80310
180308
18fffc
187e0e
180106
180c80
184cc8
184cc6
18cc03
18cc13
198c10
198ff8
1807f0
ENDCHAR
STARTCHAR 2-12-72
ENCODING 11368
SWIDTH 1000 0
DWIDTH 24 0
BBX 24 24 0 -2
BITMAP
070080
0600e0
0630c0
fff9c6
0601ff
36610c
26430c
56b298
561498
8f0070
0ec020
1e6070
36309c
66330f
860c06
060002
001000
01cc10
11860c
318646
618043
e18063
c1ffe0
00ffc0
ENDCHAR
STARTCHAR 2-12-73
ENCODING 11369
SWIDTH 1000 0
DWIDTH 24 0
BBX 24 24 0 -2
BITMAP
1c01c0
180180
180186
18ffff
1c0180
5a0180
5b7ffe
5b0000
580000
d83ffc
d8300c
d8300c
183ffc
180830
180630
180646
18ffff
180000
180000
183ffc
18300c
18300c
183ffc
18300c
ENDCHAR
STARTCHAR 2-12-74
ENCODING 11370
SWIDTH 1000 0
DWIDTH 24 0
BBX 24 24 0 -2
BITMAP
0180c0
092488
1b6dbc
128940
046230
282416
3fffff
603806
c03004
c03018
3ffffc
006018
006018
00c018
018030
0301f0
0c0060
01d000
118c10
11860c
318646
618043
e1ffe3
c0ffc0
ENDCHAR
STARTCHAR 2-12-75
ENCODING 11371
SWIDTH 1000 0
DWIDTH 24 0
BBX 24 24 0 -2
BITMAP
003100
7ff9c0
030180
031b06
ffffff
18630c
18660c
1fe518
186918
1860b0
1fe0f0
186060
1860e0
1be0b0
fe611c
78620f
406c06
000000
11cc10
11860c
318646
618043
e1ffe3
c0ffc0
ENDCHAR
STARTCHAR 2-12-76
ENCODING 11372
SWIDTH 1000 0
DWIDTH 24 0
BBX 24 24 0 -2
BITMAP
1c0380
180300
180306
18ffff
1c0684
5a8446
5b6c68
5b2830
58101c
d83fff
d85836
d89830
181ff0
181830
181830
181ff0
180180
182190
18398c
183186
186187
18c183
190780
180300
ENDCHAR
STARTCHAR 2-12-77
ENCODING 11373
SWIDTH 1000 0
DWIDTH 24 0
BBX 24 24 0 -2
BITMAP
0e0700
0c060c
0c7ffe
ff8600
0c3ff8
0c0c80
1e0846
1d7fff
3d9030
2da01c
6c5fef
4c9866
8d1862
0c1fe0
0c1860
0c1860
0c1fe0
01c000
118c10
11860c
318646
618043
e1ffe3
c0ffc0
ENDCHAR
STARTCHAR 2-12-78
ENCODING 11374
SWIDTH 1000 0
DWIDTH 24 0
BBX 24 24 0 -2
BITMAP
200006
3fffff
300000
37f86c
361866
37f866
361860
37fbff
300060
37f860
3618d0
37f8d0
361898
27f98c
66190f
661a06
463000
800000
11cc10
11860c
318646
618043
e1ffe3
c0ffc0
ENDCHAR
STARTCHAR 2-12-79
ENCODING 11375
SWIDTH 1000 0
DWIDTH 24 0
BBX 24 24 0 -2
BITMAP
1c0006
18e3ff
18c006
18cc84
1cde68
5ae030
5ac430
5ac603
58ffff
d87c33
d88032
d8c034
18fc30
18a130
1921b6
1825bf
1bffb0
1821b0
1871b0
1859b0
18d970
188338
19061f
1a1806
ENDCHAR
STARTCHAR 2-12-80
ENCODING 11376
SWIDTH 1000 0
DWIDTH 24 0
BBX 24 24 0 -2
BITMAP
8cc818
4cce18
6ccc18
2cd018
fffc1a
3033ff
186018
184218
fffd18
030198
030198
7ff998
030018
030018
03f818
ff80f8
780030
41d000
118c10
11860c
318646
618043
e1ffe3
c0ffc0
ENDCHAR
STARTCHAR 2-12-81
ENCODING 11377
SWIDTH 1000 0
DWIDTH 24 0
BBX 24 24 0 -2
BITMAP
1c1c70
181866
19ffff
181860
1c1860
5a0000
5afffc
5acccc
58cccc
d8fffc
d80000
d88006
19ffff
198006
1b2034
1b3ff8
183030
183ff0
183030
183ff0
183030
183030
183ff0
183030
ENDCHAR
STARTCHAR 2-12-82
ENCODING 11378
SWIDTH 1000 0
DWIDTH 24 0
BBX 24 24 0 -2
BITMAP
038380
030300
030320
033318
3ffb0c
03030c
030300
030300
030306
ffffff
000300
000300
000310
00011c
000198
0001b0
0000b0
0000e0
000042
0000e2
0001b2
00033b
000c1f
00700e
ENDCHAR
STARTCHAR 2-12-83
ENCODING 11379
SWIDTH 1000 0
DWIDTH 24 0
BBX 24 24 0 -2
BITMAP
038390
73030c
630306
630306
630300
630300
63030c
6303fe
7f7f00
630300
030308
03030e
03030c
ff0118
330118
3301b0
3300b0
3300e2
2300c2
2301e2
630372
43063f
43181f
836006
ENDCHAR
STARTCHAR 2-12-84
ENCODING 11380
SWIDTH 1000 0
DWIDTH 24 0
BBX 24 24 0 -2
BITMAP
0621c0
fe7198
0dc186
0d1986
d8b180
58e182
10418f
3061f0
202f80
40b188
bfd98e
06118c
06008c
0630d8
fff8d8
060050
0e0070
0d0062
0c80e2
18c1b2
18631a
30661f
60180f
806006
ENDCHAR
STARTCHAR 2-12-85
ENCODING 11381
SWIDTH 1000 0
DWIDTH 24 0
BBX 24 24 0 -2
BITMAP
000060
00186c
7ffc66
102066
183060
102062
10206f
244878
2245e0
fffe64
62c467
000066
fffe66
00002c
00002c
3ff828
301838
301812
3ff832
30183a
30186a
3018cf
3ff987
301a02
ENDCHAR
STARTCHAR 2-12-86
ENCODING 11382
SWIDTH 1000 0
DWIDTH 24 0
BBX 24 24 0 -2
BITMAP
000060
0003f0
107e00
1fc000
180018
1ffffc
180018
180018
1ffff8
180018
180e00
180c00
180c0c
1ffffe
183a00
187208
30e11c
31e130
2360c0
6c60c0
407c60
83f038
01c01f
010006
ENDCHAR
STARTCHAR 2-12-87
ENCODING 11383
SWIDTH 1000 0
DWIDTH 24 0
BBX 24 24 0 -2
BITMAP
001c00
001800
001800
001800
001800
0018c0
0fffe0
001800
001800
001800
001800
0018e0
001f00
00f800
0ff800
071800
041800
001800
001800
001800
001800
001800
03f800
007000
ENDCHAR
STARTCHAR 2-12-88
ENCODING 11384
SWIDTH 1000 0
DWIDTH 24 0
BBX 24 24 0 -2
BITMAP
0e0380
0c0300
0c0300
0c0300
0c0300
0cc300
ffe300
0c0300
0c0300
0c03c0
0c0330
0cc31c
0f030e
fc0307
7c0303
4c0300
0c0300
0c0300
0c0300
0c0300
0c0300
0c0300
7c0300
180300
ENDCHAR
STARTCHAR 2-12-89
ENCODING 11385
SWIDTH 1000 0
DWIDTH 24 0
BBX 24 24 0 -2
BITMAP
0e0080
0c3fc0
0c0080
0c0080
0c1080
0d9c80
ffd880
0c1880
0c18c0
0c1840
0c1840
0d9840
1e1840
fc1060
6c1020
4c3020
0c2030
0c2030
0c6018
0c4018
0c401c
0c800e
7c800f
190004
ENDCHAR
STARTCHAR 2-12-90
ENCODING 11386
SWIDTH 1000 0
DWIDTH 24 0
BBX 24 24 0 -2
BITMAP
1c01c0
180180
183980
183180
18318c
1a319e
ff31ac
1831cc
18338c
18358c
1b398c
1c718c
39b18c
f8318c
d8318c
1831bc
183198
183180
183180
183002
183002
183003
f83fff
301ffe
ENDCHAR
STARTCHAR 2-12-91
ENCODING 11387
SWIDTH 1000 0
DWIDTH 24 0
BBX 24 24 0 -2
BITMAP
0e0000
0c000c
0c7ffe
0c0c60
0c0c60
0d8c60
ffcc60
0c0c60
0c0c60
0c0c60
0c0c60
0d8c60
1e0c60
fc0c60
6c0c60
4c0c60
0c0c60
0c1860
0c1862
0c3062
0c3063
0c607f
7cc03e
190000
ENDCHAR
STARTCHAR 2-12-92
ENCODING 11388
SWIDTH 1000 0
DWIDTH 24 0
BBX 24 24 0 -2
BITMAP
0e0800
0c0e00
0c0c00
0c0c00
0c0c0c
0d8ffe
ffdb0c
0c1318
0c1310
0c2320
0c2300
0d8300
1e0300
fc0680
6c0680
4c0680
0c0c40
0c0c40
0c1820
0c1830
0c3018
0c601f
7cc00e
190006
ENDCHAR
STARTCHAR 2-12-93
ENCODING 11389
SWIDTH 1000 0
DWIDTH 24 0
BBX 24 24 0 -2
BITMAP
0e0000
0c0030
0c7ff8
0c0c30
0c0c30
0d8c30
ffcc30
0c0c30
0c0c30
0c8c30
0d0c36
0e7fff
1c0c30
fc0c30
6c0c30
4c0c30
0c0c30
0c0c30
0c0c30
0c0c30
0c0c30
0c0c36
7cffff
180000
ENDCHAR
STARTCHAR 2-12-94
ENCODING 11390
SWIDTH 1000 0
DWIDTH 24 0
BBX 24 24 0 -2
BITMAP
0e2006
0c3fff
0c3000
0c3000
0c3000
0db000
fff018
0c3ffc
0c3418
0c3418
0c3418
0db230
1e3230
fc3230
6c3160
4c2160
0c20c0
0c60c0
0c41e0
0c4370
0c8638
0c8c1f
7d180e
186006
ENDCHAR
STARTCHAR 2-13-01
ENCODING 11553
SWIDTH 1000 0
DWIDTH 24 0
BBX 24 24 0 -2
BITMAP
0e0030
0c00f8
0c07c0
0c3980
0c0180
0d8180
ffc180
0c018c
0c7ffe
0c0180
0c0180
0d8180
1e0180
fc0186
6cffff
4c0180
0c0180
0c0180
0c0180
0c0180
0c0180
0c0180
7c0f80
180300
ENDCHAR
STARTCHAR 2-13-02
ENCODING 11554
SWIDTH 1000 0
DWIDTH 24 0
BBX 24 24 0 -2
BITMAP
1c0000
180006
18ffff
180300
180300
1a0300
ff430c
187ffe
18630c
18630c
18630c
1b628c
3c664c
f8646c
d8686c
18706c
18600c
18600c
18600c
18600c
18600c
18600c
f8607c
306018
ENDCHAR
STARTCHAR 2-13-03
ENCODING 11555
SWIDTH 1000 0
DWIDTH 24 0
BBX 24 24 0 -2
BITMAP
1c0380
180300
180300
182300
182306
1a7fff
ff6006
18c004
18c008
181c00
181810
1b181c
3c1838
f81870
d819c0
181e00
181800
181800
181800
181804
181804
181806
f81ffe
300ffc
ENDCHAR
STARTCHAR 2-13-04
ENCODING 11556
SWIDTH 1000 0
DWIDTH 24 0
BBX 24 24 0 -2
BITMAP
0e0418
0c67fc
0ff618
186618
186618
30c6f8
6cc630
838602
030602
0607ff
0c03fe
300000
c00300
001f80
03f800
001818
3ffffc
001800
001806
ffffff
001800
001800
00f800
003000
ENDCHAR
STARTCHAR 2-13-05
ENCODING 11557
SWIDTH 1000 0
DWIDTH 24 0
BBX 24 24 0 -2
BITMAP
1c0380
180300
180300
18430c
187ffe
1a630c
ff630c
18630c
187ffc
18630c
18630c
1b630c
3c7ffc
f86300
d80310
18031c
180198
1801b0
1800e2
1801c2
180762
181c3b
f9e01f
300006
ENDCHAR
STARTCHAR 2-13-06
ENCODING 11558
SWIDTH 1000 0
DWIDTH 24 0
BBX 24 24 0 -2
BITMAP
0e0000
0c0006
0c7fff
0c0300
0c0300
0d8610
ffc608
0c040c
0c0876
0c7f86
0c3c06
0da000
1e01c0
fc0180
6c0180
4c018c
0c3ffe
0c0180
0c0180
0c0180
0c0180
0c0186
7cffff
180000
ENDCHAR
STARTCHAR 2-13-07
ENCODING 11559
SWIDTH 1000 0
DWIDTH 24 0
BBX 24 24 0 -2
BITMAP
1c01c0
180180
180180
180186
187fff
1b0000
ff8800
180e20
180c18
18180c
18104e
1b2876
1c4860
f81460
d834c0
1802c0
180380
180100
180380
1806c0
180c70
18183f
f8601e
318006
ENDCHAR
STARTCHAR 2-13-08
ENCODING 11560
SWIDTH 1000 0
DWIDTH 24 0
BBX 24 24 0 -2
BITMAP
070000
060000
063206
fffbff
0c3306
186306
186306
36c306
318306
03c3fe
06c306
1c0000
e00300
001f80
03f800
001818
3ffffc
001800
001806
ffffff
001800
001800
00f800
003000
ENDCHAR
STARTCHAR 2-13-09
ENCODING 11561
SWIDTH 1000 0
DWIDTH 24 0
BBX 24 24 0 -2
BITMAP
1c0700
180600
180604
18fffe
180600
1a0608
ff7ffc
180600
180600
180604
18fffe
180c00
1b0c18
1c0c1a
f9ffff
d81818
181418
183318
182198
186198
184018
188018
fb00f8
300030
ENDCHAR
STARTCHAR 2-13-10
ENCODING 11562
SWIDTH 1000 0
DWIDTH 24 0
BBX 24 24 0 -2
BITMAP
1c0104
181087
1808ce
180ccc
180c18
1b2016
ffbfff
186006
186384
180300
180300
1b030c
1c7ffe
f8030c
d8030c
18030c
18020c
18060c
18060c
180c0c
180c1c
181818
f830f8
30c030
ENDCHAR
STARTCHAR 2-13-11
ENCODING 11563
SWIDTH 1000 0
DWIDTH 24 0
BBX 24 24 0 -2
BITMAP
0801c0
061180
031d90
43198c
301986
183183
192183
024790
0c8338
f800f0
3007c0
387800
1801c0
001fe0
07f800
001818
3ffffc
001800
001806
ffffff
001800
001800
00f800
003000
ENDCHAR
STARTCHAR 2-13-12
ENCODING 11564
SWIDTH 1000 0
DWIDTH 24 0
BBX 24 24 0 -2
BITMAP
0e000c
0c3ffe
0c0180
0c0180
0c0198
0d9ffc
ffc180
0c0180
0c0186
0c7fff
0c0000
0d8000
1e0e38
fc0c30
6c0c36
4cffff
0c0c30
0c0c30
0c1830
0c1830
0c3030
0c2030
7c4030
198030
ENDCHAR
STARTCHAR 2-13-13
ENCODING 11565
SWIDTH 1000 0
DWIDTH 24 0
BBX 24 24 0 -2
BITMAP
1c000c
18183e
18fdf0
181830
181030
1a3030
ff31b0
1821b0
1861b2
184dbf
187db0
1b4db0
3c0db0
f80db0
d80db0
1829b0
1829b0
1868ff
18d07f
189000
182c00
1827ff
f843fe
318000
ENDCHAR
STARTCHAR 2-13-14
ENCODING 11566
SWIDTH 1000 0
DWIDTH 24 0
BBX 24 24 0 -2
BITMAP
1c001c
1811fe
181fc0
181800
181908
1b3084
ffb0c6
1820c6
184200
180380
180300
1b0600
3c7fff
f80618
d80c18
180c18
181830
181c30
183760
1831e0
1801b8
18031c
f80e0e
307006
ENDCHAR
STARTCHAR 2-13-15
ENCODING 11567
SWIDTH 1000 0
DWIDTH 24 0
BBX 24 24 0 -2
BITMAP
1c01c0
181180
181d80
181980
18198c
1b3ffe
ffb180
182180
184180
180186
18ffff
180180
1b0180
3c0180
f8200c
d83ffe
18300c
18300c
18300c
18300c
18300c
18300c
f83ffc
30300c
ENDCHAR
STARTCHAR 2-13-16
ENCODING 11568
SWIDTH 1000 0
DWIDTH 24 0
BBX 24 24 0 -2
BITMAP
1c01d8
18018c
18018c
180180
180186
1b7fff
ff8180
180180
182188
18118e
1819cc
1819c8
1b19d0
3c01a0
f801a0
d805a0
180990
181998
18319c
18718f
18e18e
182186
f80f80
300300
ENDCHAR
STARTCHAR 2-13-17
ENCODING 11569
SWIDTH 1000 0
DWIDTH 24 0
BBX 24 24 0 -2
BITMAP
0e00e0
0c08c0
0c0ed8
0c0cce
0c0cc7
0d98c3
ffd0c0
0c20c6
0c1fff
0c1806
0c1806
0c1806
0d9ffe
1e1806
fc1806
6c1806
4c1ffe
0c1806
0c1806
0c1806
0c1806
0c1806
7c183e
18180c
ENDCHAR
STARTCHAR 2-13-18
ENCODING 11570
SWIDTH 1000 0
DWIDTH 24 0
BBX 24 24 0 -2
BITMAP
1c0030
1801f8
181f80
180180
180186
1b3fff
ff83a0
180790
180598
18098c
18118f
186186
1b0030
3c3ff8
f80630
d80636
18067f
180c66
180c06
180806
18180e
18100c
f8207c
304018
ENDCHAR
STARTCHAR 2-13-19
ENCODING 11571
SWIDTH 1000 0
DWIDTH 24 0
BBX 24 24 0 -2
BITMAP
1c0380
180300
18030c
18fffe
180300
1a4318
ff7ffc
186318
186318
186318
187ff8
186318
1b6318
3c6318
f87ff8
d86318
180300
180306
19ffff
180300
180300
180300
f80300
300300
ENDCHAR
STARTCHAR 2-13-20
ENCODING 11572
SWIDTH 1000 0
DWIDTH 24 0
BBX 24 24 0 -2
BITMAP
1c0e38
180c30
180c36
187fff
180c30
1a0c34
ff0db6
180186
180180
184186
187fff
186180
1b6188
3c608e
f860dc
d860d8
186070
186060
1860e2
1841b2
18c31a
18860f
f90807
321002
ENDCHAR
STARTCHAR 2-13-21
ENCODING 11573
SWIDTH 1000 0
DWIDTH 24 0
BBX 24 24 0 -2
BITMAP
0e0180
0c0180
0c0340
0c0320
0c0630
0d8c1c
ffd80f
0c3006
0c4ff0
0c0180
0c218c
0c3ffe
0db18c
1e318c
fc318c
6c3ffc
4c334c
0c0340
0c0620
0c0630
0c0c18
0c180c
7c600f
198006
ENDCHAR
STARTCHAR 2-13-22
ENCODING 11574
SWIDTH 1000 0
DWIDTH 24 0
BBX 24 24 0 -2
BITMAP
1c01c0
180180
184186
187fff
186000
1b6400
ffe71c
186618
186618
18661a
186dff
186c18
1b6c18
3c7d18
f86c98
d86cd8
18ccd8
18cc18
188c18
198c18
190c18
1a0c18
f80c78
300c30
ENDCHAR
STARTCHAR 2-13-23
ENCODING 11575
SWIDTH 1000 0
DWIDTH 24 0
BBX 24 24 0 -2
BITMAP
0e0300
0c0300
0c0680
0c0680
0c0c40
0d8c60
ffd838
0c101f
0c2fee
0c4006
0c0000
0c200c
0dbffe
1e324c
fc324c
6c324c
4c324c
0c3ffc
0c324c
0c324c
0c324c
0c324c
7c325c
18300c
ENDCHAR
STARTCHAR 2-13-24
ENCODING 11576
SWIDTH 1000 0
DWIDTH 24 0
BBX 24 24 0 -2
BITMAP
1c0030
1811f8
181f80
181a10
183108
1b318c
ffa18c
184000
183ff8
180318
180318
18031a
1b7fff
3c0318
f80318
d80318
183ff8
180318
180300
180300
180300
180300
f81f00
300600
ENDCHAR
STARTCHAR 2-13-25
ENCODING 11577
SWIDTH 1000 0
DWIDTH 24 0
BBX 24 24 0 -2
BITMAP
0e01c0
0c0180
0c0186
0c7fff
0c0020
0d8838
ffcc30
0c0660
0c0640
0c0086
0c7fff
0c000c
0d800c
1e10cc
fc1fcc
6c18cc
4c18cc
0c18cc
0c1fcc
0c18cc
0c000c
0c000c
7c007c
180018
ENDCHAR
STARTCHAR 2-13-26
ENCODING 11578
SWIDTH 1000 0
DWIDTH 24 0
BBX 24 24 0 -2
BITMAP
40600c
7ff7fe
62020c
62020c
7fe118
606118
6060b0
7fe060
6200f8
62019f
7ff30e
600c06
0001c0
001fe0
07f800
001818
3ffffc
001800
001806
ffffff
001800
001800
00f800
003000
ENDCHAR
STARTCHAR 2-13-27
ENCODING 11579
SWIDTH 1000 0
DWIDTH 24 0
BBX 24 24 0 -2
BITMAP
1c0010
18101c
180c18
180630
180620
1a0046
ff7fff
180660
180660
187667
186666
186666
1b6666
3c6666
f86666
d87e7e
186666
180660
180660
180660
180660
180666
f8ffff
300000
ENDCHAR
STARTCHAR 2-13-28
ENCODING 11580
SWIDTH 1000 0
DWIDTH 24 0
BBX 24 24 0 -2
BITMAP
1c0018
1801fc
183f80
180180
180186
1a7fff
ff0180
180180
184d86
1879bf
186186
186186
1b6186
3c7dbe
f86186
d86186
186186
187ffe
186186
180180
180180
180180
f80180
300180
ENDCHAR
STARTCHAR 2-13-29
ENCODING 11581
SWIDTH 1000 0
DWIDTH 24 0
BBX 24 24 0 -2
BITMAP
1c1000
181c00
181800
183006
183fff
1a6666
ff4446
1888c6
193c86
18178e
1821cc
1842cc
1b041c
3c0878
f81030
d80100
181c80
1898c4
1898c2
199813
199813
1b1818
fb1ff8
300ff0
ENDCHAR
STARTCHAR 2-13-30
ENCODING 11582
SWIDTH 1000 0
DWIDTH 24 0
BBX 24 24 0 -2
BITMAP
1c1c70
181860
181864
18fffe
181860
1b1860
ff9fe0
181860
181860
181860
181fe0
181860
1b1860
3c1866
f9ffff
d86660
186660
186462
186c7e
18683c
187000
186006
f87fff
306000
ENDCHAR
STARTCHAR 2-13-31
ENCODING 11583
SWIDTH 1000 0
DWIDTH 24 0
BBX 24 24 0 -2
BITMAP
1c0300
180380
180640
180c60
181830
1a301c
ff6fef
18c006
193ff8
183018
183018
183ff8
1b3018
3c0000
f80c30
d80c32
18ffff
180c30
180c30
181830
181830
183030
f86030
318030
ENDCHAR
STARTCHAR 2-13-32
ENCODING 11584
SWIDTH 1000 0
DWIDTH 24 0
BBX 24 24 0 -2
BITMAP
1c8006
18ffff
18c000
18c7f8
18c618
1ac618
ffc7f8
18c618
18c618
18c7f8
18c180
18c186
1bdfff
3cc318
f8c318
d8c6b0
18c660
18c0d8
18c18c
18ce0c
18c000
18c006
f8ffff
30c000
ENDCHAR
STARTCHAR 2-13-33
ENCODING 11585
SWIDTH 1000 0
DWIDTH 24 0
BBX 24 24 0 -2
BITMAP
00c0e0
07e0c4
7e04c7
0664c6
fff4c4
060da8
0f0da0
0ec110
1e6318
36620f
c6040e
061806
0001c0
001fe0
07f800
001818
3ffffc
001800
001806
ffffff
001800
001800
00f800
003000
ENDCHAR
STARTCHAR 2-13-34
ENCODING 11586
SWIDTH 1000 0
DWIDTH 24 0
BBX 24 24 0 -2
BITMAP
1c0380
182300
182306
187fff
186006
1acc64
ffcc6a
181863
18187f
18303e
184380
180360
1b0330
3c0316
f9ffff
d80300
180300
180680
180640
180c60
181830
18301c
f8c00f
330006
ENDCHAR
STARTCHAR 2-13-35
ENCODING 11587
SWIDTH 1000 0
DWIDTH 24 0
BBX 24 24 0 -2
BITMAP
0e1998
0c1998
0c1998
0c199a
0c7fff
0d1998
ff9998
0c1998
0c19f8
0c1800
0c1802
0c1fff
0d9800
1e01c0
fc0186
6c7fff
4c03a0
0c07a0
0c0590
0c0d98
0c198f
0c318e
7c4186
180180
ENDCHAR
STARTCHAR 2-13-36
ENCODING 11588
SWIDTH 1000 0
DWIDTH 24 0
BBX 24 24 0 -2
BITMAP
1c0200
182380
182306
183fff
186606
1ae604
ffcc48
180ce0
1818c0
181184
183ffe
1830c0
1b70c0
3c70c4
f8bffe
d830c0
1830c0
1830c4
183ffe
1830c0
1830c0
1830c6
f83fff
303000
ENDCHAR
STARTCHAR 2-13-37
ENCODING 11589
SWIDTH 1000 0
DWIDTH 24 0
BBX 24 24 0 -2
BITMAP
0e01c0
0c0180
0c0186
0c7fff
0c0000
0d8000
ffcff8
0c0c18
0c0c18
0c0ff8
0c0000
0c2006
0dbfff
1e3006
fc3006
6c37f6
4c3636
0c3636
0c3636
0c37f6
0c3006
0c3006
7c301e
18300c
ENDCHAR
STARTCHAR 2-13-38
ENCODING 11590
SWIDTH 1000 0
DWIDTH 24 0
BBX 24 24 0 -2
BITMAP
1c0080
1880e0
1862cc
1833fe
18330c
1b330c
ff830c
18030c
1863fc
183300
183300
183306
1b03ff
3c3306
f8fb06
d83306
183306
1833fe
183306
183000
186800
19c7ff
f8c1fe
308000
ENDCHAR
STARTCHAR 2-13-39
ENCODING 11591
SWIDTH 1000 0
DWIDTH 24 0
BBX 24 24 0 -2
BITMAP
1c100e
181c0c
18180c
181f4c
18337f
1a234c
ff764c
189e4c
180dff
180c0c
18100c
18200c
1b41cc
3c0180
f80186
d87fff
1807c0
1805a0
180db0
180998
18119f
18218e
f8c186
300180
ENDCHAR
STARTCHAR 2-13-40
ENCODING 11592
SWIDTH 1000 0
DWIDTH 24 0
BBX 24 24 0 -2
BITMAP
0e0018
0c08fc
0c0fc0
0c0d08
0c0c84
0d98c6
ffd8c3
0c10c3
0c2000
0c0100
0c2786
0c3c3f
0db006
1e3006
fc3006
6c3006
4c3e3e
0c3006
0c3006
0c3006
0c3006
0c3006
7c3ffe
183006
ENDCHAR
STARTCHAR 2-13-41
ENCODING 11593
SWIDTH 1000 0
DWIDTH 24 0
BBX 24 24 0 -2
BITMAP
0e01c8
0c218e
0c198c
0c0d98
0c0da0
0d2186
ffbfff
0c6006
0c6004
0c1ff8
0c1818
0c1818
0d9818
1e1ff8
fc1998
6c0180
4c018c
0c3ffe
0c0180
0c0180
0c0180
0c0186
7cffff
180000
ENDCHAR
STARTCHAR 2-13-42
ENCODING 11594
SWIDTH 1000 0
DWIDTH 24 0
BBX 24 24 0 -2
BITMAP
1c01c0
180180
180186
18ffff
180000
1b304c
ffb6ec
18318c
18326c
18342c
18300c
183ffc
1b0180
3c4106
f87fff
d86106
186246
186226
186ff6
186736
186406
186006
f8603e
30600c
ENDCHAR
STARTCHAR 2-13-43
ENCODING 11595
SWIDTH 1000 0
DWIDTH 24 0
BBX 24 24 0 -2
BITMAP
1c01c0
180180
188186
18ffff
18c000
1ac440
ffc446
18ffff
18c446
18c446
18c446
18fffe
1bc000
3cce70
f8cc62
d8cc67
188f6c
188c70
198c60
190c62
190f62
1afc63
f8707f
30403e
ENDCHAR
STARTCHAR 2-13-44
ENCODING 11596
SWIDTH 1000 0
DWIDTH 24 0
BBX 24 24 0 -2
BITMAP
1c400c
187ffe
186000
186000
1863f0
1b6210
ffe210
186210
186210
1863f0
186000
186000
1b6f3c
3c6924
f86924
d86924
186924
186924
186f3c
186000
186000
186006
f87fff
306000
ENDCHAR
STARTCHAR 2-13-45
ENCODING 11597
SWIDTH 1000 0
DWIDTH 24 0
BBX 24 24 0 -2
BITMAP
1c0006
18ffff
180240
180240
18224c
1b3ffe
ffb24c
18324c
18324c
18324c
183ffc
18300c
1b0000
3c3ffc
f80000
d80006
18ffff
180180
182190
183988
18318c
186186
f88f86
300300
ENDCHAR
STARTCHAR 2-13-46
ENCODING 11598
SWIDTH 1000 0
DWIDTH 24 0
BBX 24 24 0 -2
BITMAP
303040
202070
202060
212860
21a660
21a362
fb237f
222046
2620c6
2bfe86
2222c6
22234c
3aaa4c
72aa2c
e2aa28
a2aa38
22aa10
22aa38
22aa28
22222c
222266
222247
e22e82
620502
ENDCHAR
STARTCHAR 2-13-47
ENCODING 11599
SWIDTH 1000 0
DWIDTH 24 0
BBX 24 24 0 -2
BITMAP
1c21c4
18198e
180d9c
180d90
1841a2
1a7fff
ffc006
18c004
181ff8
181818
181818
181ff8
1b0018
3c01fc
f83f80
d8018c
187ffe
180180
180186
18ffff
180180
180180
f80f80
300300
ENDCHAR
STARTCHAR 2-13-48
ENCODING 11600
SWIDTH 1000 0
DWIDTH 24 0
BBX 24 24 0 -2
BITMAP
1c0060
1843f0
187f80
186410
18430c
1ac104
ff8020
197ff0
186060
186060
186068
187ffc
1b6018
3c6018
f8601a
d87fff
18c006
18c046
18c136
189496
19928e
19320c
fa30fc
300038
ENDCHAR
STARTCHAR 2-13-49
ENCODING 11601
SWIDTH 1000 0
DWIDTH 24 0
BBX 24 24 0 -2
BITMAP
1c0070
1803f8
187f00
180600
180606
1affff
ff0c40
180820
181ff8
182cdf
18ccc6
180fc0
1b0000
3c800c
f8fffe
d8c00c
18c00c
18cfcc
18cccc
18cccc
18cfcc
18c00c
f8c03c
30c018
ENDCHAR
STARTCHAR 2-13-50
ENCODING 11602
SWIDTH 1000 0
DWIDTH 24 0
BBX 24 24 0 -2
BITMAP
1c21c4
18198e
180d9c
180d90
1841a2
1a7fff
ffc006
18d004
181ff8
181818
181818
181ff8
1b1818
3c4006
f87fff
d86186
186186
186186
187ffe
186186
186186
186186
f87ffe
306006
ENDCHAR
STARTCHAR 2-13-51
ENCODING 11603
SWIDTH 1000 0
DWIDTH 24 0
BBX 24 24 0 -2
BITMAP
1c1020
181c38
181832
183f7f
182868
1a4848
ff4484
188584
180180
18ffff
180180
181998
1b1998
3c1998
f835b4
d827a6
184746
180340
180220
180630
180418
18081f
f8100e
306006
ENDCHAR
STARTCHAR 2-13-52
ENCODING 11604
SWIDTH 1000 0
DWIDTH 24 0
BBX 24 24 0 -2
BITMAP
1c2080
1838e0
1830c0
186108
187ffc
18e300
fee300
197ff8
1a6300
186300
187ff8
186300
1e6304
387ffe
f80000
d91886
19fcff
1998c6
1998c6
199fc6
198006
198006
f9803e
31800c
ENDCHAR
STARTCHAR 2-13-53
ENCODING 11605
SWIDTH 1000 0
DWIDTH 24 0
BBX 24 24 0 -2
BITMAP
1c0038
188c30
18fe30
18cc32
18cfff
18cc00
fecd08
18cc8e
18fccc
18ccc8
18c012
1883ff
1e8030
38fc30
f8cc30
d94c32
194fff
194c30
1a4c30
1a4c30
187c30
184c30
f80030
300030
ENDCHAR
STARTCHAR 2-13-54
ENCODING 11606
SWIDTH 1000 0
DWIDTH 24 0
BBX 24 24 0 -2
BITMAP
1c0202
18ff7f
181010
181212
18ffff
1a9292
ff9292
18aaaa
18aeae
18c6c6
188282
188282
1b8c8c
3c0300
f80306
d8ffff
180780
180f40
180f60
181b38
18331f
18630e
f88306
310300
ENDCHAR
STARTCHAR 2-13-55
ENCODING 11607
SWIDTH 1000 0
DWIDTH 24 0
BBX 24 24 0 -2
BITMAP
1c0200
181330
181ff8
181830
181ff0
1b1830
ff9ff0
181830
181ff0
180000
187ffc
18610c
1b610c
3c7ffc
f8610c
d8610c
187ffc
180000
19ffff
181830
181830
183030
f86030
318030
ENDCHAR
STARTCHAR 2-13-56
ENCODING 11608
SWIDTH 1000 0
DWIDTH 24 0
BBX 24 24 0 -2
BITMAP
406400
7ff606
6207ff
620400
7fe808
6073fc
606000
7fe7fe
620492
620492
7ff7fe
600000
0001c0
001fe0
07f800
001818
3ffffc
001800
001806
ffffff
001800
001800
00f800
003000
ENDCHAR
STARTCHAR 2-13-57
ENCODING 11609
SWIDTH 1000 0
DWIDTH 24 0
BBX 24 24 0 -2
BITMAP
1c00c0
1800c0
1980c6
18dfff
18c218
1a0310
ff1126
181fff
1998c6
18d8c6
18dbf6
1b18c6
3c18c6
f8dbf6
dbdb36
18db36
18dbf6
18d806
18d81e
18d804
18c000
1bbfff
f91ffe
300000
ENDCHAR
STARTCHAR 2-13-58
ENCODING 11610
SWIDTH 1000 0
DWIDTH 24 0
BBX 24 24 0 -2
BITMAP
1c0700
180630
1807f8
190602
19ffff
198c06
ffbfc4
198c10
198ff8
1987f0
198000
1b9ff8
3d9998
f99998
d99ff8
199998
199998
199ff8
190000
190d96
192cd3
1a6c1b
facff8
3007f0
ENDCHAR
STARTCHAR 2-13-59
ENCODING 11611
SWIDTH 1000 0
DWIDTH 24 0
BBX 24 24 0 -2
BITMAP
1c0500
182dde
183106
183106
183dde
1b3046
ffb046
183d5e
183146
183146
187fff
1b0c10
3c1c08
f8186c
d831f7
186f82
188180
183ffc
180180
18ffff
180180
180180
f80f80
300300
ENDCHAR
STARTCHAR 2-13-60
ENCODING 11612
SWIDTH 1000 0
DWIDTH 24 0
BBX 24 24 0 -2
BITMAP
3838e0
3030c6
3030ff
33fec0
3108c0
348cfe
fe8806
301006
33fe86
3000fe
3000c0
37fcc4
798cfe
f18cc0
b1fcc4
318cfe
318cc0
31fcc4
318cfe
318cc0
318cc2
318cc3
f1bcff
61987e
ENDCHAR
STARTCHAR 2-13-61
ENCODING 11613
SWIDTH 1000 0
DWIDTH 24 0
BBX 24 24 0 -2
BITMAP
1c86c6
18feff
18c6c6
18c6c6
18fefe
1ac6c6
ffc6c6
18fefe
18c6c6
18c006
18c126
1bdff6
3cc106
f8dff6
d8d556
18d396
18dff6
18c306
18c786
18c566
18c926
18d106
f8c13e
30c00c
ENDCHAR
STARTCHAR 2-13-62
ENCODING 11614
SWIDTH 1000 0
DWIDTH 24 0
BBX 24 24 0 -2
BITMAP
0e2244
0c3f7e
0c2244
0c2244
0c3e7c
0d2244
ffa244
0c3e7c
0c2244
0c2244
0c3e7c
0d9428
1e3264
fc62c4
6c0000
4c0606
0cffff
0c0c30
0c1830
0c3f60
0c31c0
0c0378
7c0c1e
187006
ENDCHAR
STARTCHAR 2-13-63
ENCODING 11615
SWIDTH 1000 0
DWIDTH 24 0
BBX 24 24 0 -2
BITMAP
1c2020
183434
186666
184c4c
18fefe
19c9c8
ffc8c8
1afefe
18c8c8
18c8c8
18fefe
1bc8c8
3cc8c8
f8ffff
d8c0c0
180018
187ffc
181030
180860
1804c0
180300
1806e0
f8183e
30e00c
ENDCHAR
STARTCHAR 2-13-64
ENCODING 11616
SWIDTH 1000 0
DWIDTH 24 0
BBX 24 24 0 -2
BITMAP
1c8006
18ffff
18c446
18c446
18c446
1afffe
ff1040
181868
18104c
18a8c8
184c92
1b49ff
3c1290
f82490
d8fefe
187290
181090
185090
1874fe
185290
18d290
189092
f910ff
301080
ENDCHAR
STARTCHAR 2-13-65
ENCODING 11617
SWIDTH 1000 0
DWIDTH 24 0
BBX 24 24 0 -2
BITMAP
070070
060060
063060
fff860
060066
0d0fff
08c060
106060
606060
000066
fff7ff
006206
006206
46610c
7f610c
666098
666098
666070
7e6060
6660f0
0061b8
00631f
03e60e
00c806
ENDCHAR
STARTCHAR 2-13-66
ENCODING 11618
SWIDTH 1000 0
DWIDTH 24 0
BBX 24 24 0 -2
BITMAP
00c200
7fe380
018300
010300
120600
0c0606
0607ff
064c18
ffe818
06d418
069430
0e2230
0e0230
0e0360
1e0160
1601c0
360080
2601c0
460360
860630
060c3c
06181f
3e200e
0c4006
ENDCHAR
STARTCHAR 2-13-67
ENCODING 11619
SWIDTH 1000 0
DWIDTH 24 0
BBX 24 24 0 -2
BITMAP
00c100
7fe1c0
180180
180180
180300
198306
7fe3ff
31860c
31860c
31850c
31891c
31a118
fff198
0000b8
0000b0
40c0f0
7fe060
60c060
60c0f0
60c198
60c31c
60c60f
7fc806
60d002
ENDCHAR
STARTCHAR 2-13-68
ENCODING 11620
SWIDTH 1000 0
DWIDTH 24 0
BBX 24 24 0 -2
BITMAP
080100
0e01c0
4c6180
7ff180
606300
606306
7fe3ff
60660c
60660c
7fe50c
66691c
060118
063198
fff8b8
0c00b0
0c60f0
0ff060
186060
1860f0
106198
30e31c
20c60f
47c806
819002
ENDCHAR
STARTCHAR 2-13-69
ENCODING 11621
SWIDTH 1000 0
DWIDTH 24 0
BBX 24 24 0 -2
BITMAP
403070
7ff860
600060
600060
67e066
64207f
642060
642060
67e060
600066
6007ff
600106
6f7906
69490c
69488c
694898
694858
6f7870
600020
600070
6018d8
7ffd8f
600306
000c02
ENDCHAR
STARTCHAR 2-13-70
ENCODING 11622
SWIDTH 1000 0
DWIDTH 24 0
BBX 24 24 0 -2
BITMAP
402100
7ff1c0
492180
492180
492300
7fe306
0603ff
06460c
7fe60c
06050c
06291c
fff118
20c198
1080b8
1920b0
fff0f0
060060
060060
0640f0
7fe198
06031c
06060f
061806
066002
ENDCHAR
STARTCHAR 2-13-71
ENCODING 11623
SWIDTH 1000 0
DWIDTH 24 0
BBX 24 24 0 -2
BITMAP
070380
064306
7fe3ff
060618
fff518
0e08b0
1f8060
36e0b8
c6631f
060c06
200000
3ffffe
300600
30060c
37fffe
30c630
308620
31c670
316f58
221f88
2036e0
40c678
43061f
8c0606
ENDCHAR
STARTCHAR 2-13-72
ENCODING 11624
SWIDTH 1000 0
DWIDTH 24 0
BBX 24 24 0 -2
BITMAP
080070
2c2060
307060
252060
222066
35607f
202060
252060
326060
252066
2027ff
7ff906
401906
c0d10c
dfe08c
00c098
018058
033870
03c020
7f0070
7300d8
03018f
0f0306
060c02
ENDCHAR
STARTCHAR 2-13-73
ENCODING 11625
SWIDTH 1000 0
DWIDTH 24 0
BBX 24 24 0 -2
BITMAP
001c00
001800
001806
ffffff
0101c0
028380
066700
003c00
00f7c0
0781ff
f8001e
0ffff8
0180c0
0180c0
01ffc0
0180c0
0180c0
01ffc0
0180c0
0180fc
3fffc0
1fc0c0
1000c0
0000c0
ENDCHAR
STARTCHAR 2-13-74
ENCODING 11626
SWIDTH 1000 0
DWIDTH 24 0
BBX 24 24 0 -2
BITMAP
080000
5c9806
70fd1f
6699f0
649980
649980
7cf980
649980
048186
4499ff
7cfd98
649998
601998
601998
649998
7ef998
649b18
048318
049b18
04e218
078618
fe0418
780818
600018
ENDCHAR
STARTCHAR 2-13-75
ENCODING 11627
SWIDTH 1000 0
DWIDTH 24 0
BBX 24 24 0 -2
BITMAP
040000
4e0c06
79fd1f
60cdf0
68cd80
66cd80
6a8d80
f0bd80
c11986
0001ff
7ff998
0cc198
4cd998
7cfd98
649998
601998
601918
649918
7ef918
6cda18
0cc218
0cd418
7ff818
000018
ENDCHAR
STARTCHAR 2-13-76
ENCODING 11628
SWIDTH 1000 0
DWIDTH 24 0
BBX 24 24 0 -2
BITMAP
600c00
7ffe06
600d1f
600df0
7ffd80
600180
6eb980
608180
6eb986
6001ff
6ff998
6d5998
6d5998
6ff998
620198
67fd98
6d0d98
77ed98
652d18
47ed18
414918
4fda18
867218
001418
ENDCHAR
STARTCHAR 2-13-77
ENCODING 11629
SWIDTH 1000 0
DWIDTH 24 0
BBX 24 24 0 -2
BITMAP
0e0400
0c0700
0c0600
0c0600
0ccc06
ffefff
180800
181000
180018
198ffc
1fc018
198030
198060
1980c0
1980c6
19bfff
1980c0
3180c0
3180c0
3180c0
2300c0
6300c0
4f07c0
860180
ENDCHAR
STARTCHAR 2-13-78
ENCODING 11630
SWIDTH 1000 0
DWIDTH 24 0
BBX 24 24 0 -2
BITMAP
0e0400
0c0700
0c0600
0c0600
0ccc06
ffefff
180800
181018
18007c
1989e0
1fcf00
198c00
198c0c
198ffe
198c60
198c60
198c60
318c60
318860
318860
231060
631060
4f2060
864060
ENDCHAR
STARTCHAR 2-13-79
ENCODING 11631
SWIDTH 1000 0
DWIDTH 24 0
BBX 24 24 0 -2
BITMAP
001cc0
001860
00182c
7ffffe
001800
0ffff0
0c1830
0ffff0
0c1830
0ffff0
0c1830
0c1830
000c00
000c0c
7ffffe
001800
003030
003ff8
006030
00c030
018070
030060
0c03e0
3000c0
ENDCHAR
STARTCHAR 2-13-80
ENCODING 11632
SWIDTH 1000 0
DWIDTH 24 0
BBX 24 24 0 -2
BITMAP
1c0038
180c30
187c32
180dff
198832
ffd832
301bff
301032
301032
3331fe
3fbc32
330c30
330c32
330dff
330c30
332c30
332832
237bff
635830
635c30
461630
463380
9e21ff
0c407e
ENDCHAR
STARTCHAR 2-13-81
ENCODING 11633
SWIDTH 1000 0
DWIDTH 24 0
BBX 24 24 0 -2
BITMAP
003800
003000
003000
003030
003ff8
003000
003000
003000
003006
ffffff
000000
000000
040060
07fff0
060060
060060
060060
07ffe0
060060
060060
060060
060060
07ffe0
060060
ENDCHAR
STARTCHAR 2-13-82
ENCODING 11634
SWIDTH 1000 0
DWIDTH 24 0
BBX 24 24 0 -2
BITMAP
080030
0ffff8
0c0030
0c0030
0c0030
0ffff0
0c0030
0c0030
0c0030
0ffff0
0c0030
001c00
001800
001800
001806
ffffff
003400
006200
006300
00c180
0180e0
07007f
1c001e
e00006
ENDCHAR
STARTCHAR 2-13-83
ENCODING 11635
SWIDTH 1000 0
DWIDTH 24 0
BBX 24 24 0 -2
BITMAP
001c00
1c181c
181818
181818
181818
1ffff8
181818
001800
001806
ffffff
000000
000000
040060
07fff0
060060
060060
060060
07ffe0
060060
060060
060060
060060
07ffe0
060060
ENDCHAR
STARTCHAR 2-13-84
ENCODING 11636
SWIDTH 1000 0
DWIDTH 24 0
BBX 24 24 0 -2
BITMAP
0001c0
000180
430180
7f8180
630186
637fff
630018
630818
630818
630810
7f1430
633420
631460
630240
630240
630180
630100
7f0180
6302c0
600460
000838
00101f
00600e
018006
ENDCHAR
STARTCHAR 2-13-85
ENCODING 11637
SWIDTH 1000 0
DWIDTH 24 0
BBX 24 24 0 -2
BITMAP
000000
002006
433fff
7fb000
633000
633000
633000
633018
633ffc
633418
7f3418
633638
633230
633230
633160
632160
6320c0
7f60c0
6341e0
604370
008638
008c1f
01180e
006006
ENDCHAR
STARTCHAR 2-13-86
ENCODING 11638
SWIDTH 1000 0
DWIDTH 24 0
BBX 24 24 0 -2
BITMAP
000000
000018
4321fc
7fbf00
633000
633000
63300c
633ffe
63300c
63300c
7f300c
63300c
63300c
633ffc
63300c
63300c
633000
7f3000
636000
606000
004000
00c000
008000
010000
ENDCHAR
STARTCHAR 2-13-87
ENCODING 11639
SWIDTH 1000 0
DWIDTH 24 0
BBX 24 24 0 -2
BITMAP
000380
000300
430300
7f8300
63030c
637ffe
630200
630380
630300
630200
7f2420
631838
630c70
630660
6306e0
6300c0
630180
7f0300
630210
600408
00080c
00fff6
007e06
004006
ENDCHAR
STARTCHAR 2-13-88
ENCODING 11640
SWIDTH 1000 0
DWIDTH 24 0
BBX 24 24 0 -2
BITMAP
080030
0ffff8
0c0030
0c0030
0ffff0
0c0030
0c0030
0ffff0
0c6030
00f100
01c0c0
030060
3ffff0
1fe038
10c198
00c180
00c186
ffffff
018180
018180
030180
060180
0c0180
300180
ENDCHAR
STARTCHAR 2-13-89
ENCODING 11641
SWIDTH 1000 0
DWIDTH 24 0
BBX 24 24 0 -2
BITMAP
000000
000018
46fffc
7f0000
660000
660000
664030
667ff8
666030
666030
7e6030
666030
667ff0
666030
666030
666030
666030
7e7ff0
666030
600000
000000
00000c
03fffe
000000
ENDCHAR
STARTCHAR 2-13-90
ENCODING 11642
SWIDTH 1000 0
DWIDTH 24 0
BBX 24 24 0 -2
BITMAP
080030
0ffff8
0c0030
0c0030
0ffff0
0c0030
0c0030
0ffff0
0c7030
006000
20400c
3ffffe
30000c
30000c
31ff8c
31818c
31818c
31818c
31ff8c
31818c
30000c
30000c
30007c
300018
ENDCHAR
STARTCHAR 2-13-91
ENCODING 11643
SWIDTH 1000 0
DWIDTH 24 0
BBX 24 24 0 -2
BITMAP
000e70
000c60
430c60
7f8c60
630c60
630c6c
637ffe
630c60
630c60
630c60
7f0c60
630c60
630c60
630c66
63ffff
630000
630000
7f0840
630e30
601c18
00180c
00300e
006006
018006
ENDCHAR
STARTCHAR 2-13-92
ENCODING 11644
SWIDTH 1000 0
DWIDTH 24 0
BBX 24 24 0 -2
BITMAP
003800
003000
003018
3ffffc
006000
006000
1ffff8
00c200
008200
018106
ffffff
0300c0
060060
0c0030
1f7ffc
36606f
c66066
066060
067fe0
066060
066060
066060
067fe0
066060
ENDCHAR
STARTCHAR 2-13-93
ENCODING 11645
SWIDTH 1000 0
DWIDTH 24 0
BBX 24 24 0 -2
BITMAP
003880
1030e0
0c30c0
067180
066100
006018
3ffffc
00c200
008200
018106
ffffff
0300c0
060060
0c0030
1f7ffc
36606f
c66066
066060
067fe0
066060
066060
066060
067fe0
066060
ENDCHAR
STARTCHAR 2-13-94
ENCODING 11646
SWIDTH 1000 0
DWIDTH 24 0
BBX 24 24 0 -2
BITMAP
000300
000300
430680
7f86c0
630c60
631830
63301c
63406f
639ff6
630000
7f0030
633ff8
630030
630060
630060
6320cc
633ffe
7f300c
63300c
60300c
00300c
00300c
003ffc
00300c
ENDCHAR
STARTCHAR 2-14-01
ENCODING 11809
SWIDTH 1000 0
DWIDTH 24 0
BBX 24 24 0 -2
BITMAP
00200c
003ffe
43300c
7fb00c
63300c
633ffc
63300c
63300c
63300c
7f3ffc
63300c
63300c
63300c
63300c
633ffc
63346c
7f0760
630660
600e62
000c62
001862
003063
00c07f
03003e
ENDCHAR
STARTCHAR 2-14-02
ENCODING 11810
SWIDTH 1000 0
DWIDTH 24 0
BBX 24 24 0 -2
BITMAP
00380c
00301e
463138
7f31e0
663180
663580
66ff80
663186
6631ff
7e3198
663198
663198
663598
663998
667198
66f198
7e3198
663118
603118
003318
003218
003218
00f418
006418
ENDCHAR
STARTCHAR 2-14-03
ENCODING 11811
SWIDTH 1000 0
DWIDTH 24 0
BBX 24 24 0 -2
BITMAP
080030
0ffff8
0c0030
0c0030
0ffff0
0c0030
0c0030
0ffff0
0c0030
20c40c
3fe7fe
30c60c
30c60c
30c7fc
3fc60c
30c60c
30c7fc
30c60c
3fc60c
30cc0c
300c0c
00180c
00307c
00c018
ENDCHAR
STARTCHAR 2-14-04
ENCODING 11812
SWIDTH 1000 0
DWIDTH 24 0
BBX 24 24 0 -2
BITMAP
100000
1c0000
18c40c
1fe7fe
10c60c
31860c
21060c
42060c
fff60c
6237fc
62360c
62360c
62360c
7ff60c
19860c
19860c
1987fc
19860c
318600
318002
218002
618003
41ffff
80fffe
ENDCHAR
STARTCHAR 2-14-05
ENCODING 11813
SWIDTH 1000 0
DWIDTH 24 0
BBX 24 24 0 -2
BITMAP
0006c0
000480
460480
7f4498
667ffc
666498
666498
666498
666498
666498
7e7ff8
666498
666498
666498
666498
66649a
67ffff
7e0000
661000
601c40
001830
003018
00601c
00800c
ENDCHAR
STARTCHAR 2-14-06
ENCODING 11814
SWIDTH 1000 0
DWIDTH 24 0
BBX 24 24 0 -2
BITMAP
0001c0
000180
43018c
7f81fe
630180
630180
63218c
633ffe
63300c
63300c
7f3ffc
63300c
63300c
63300c
633ffc
63318c
630180
630186
7f7fff
630180
600180
000180
000180
000180
ENDCHAR
STARTCHAR 2-14-07
ENCODING 11815
SWIDTH 1000 0
DWIDTH 24 0
BBX 24 24 0 -2
BITMAP
0001c0
000180
430180
7f818c
637ffe
630000
631020
631c38
631830
7f1c30
63366c
632246
634086
630000
630180
630186
7f7fff
630180
600180
000180
000180
000180
000180
000180
ENDCHAR
STARTCHAR 2-14-08
ENCODING 11816
SWIDTH 1000 0
DWIDTH 24 0
BBX 24 24 0 -2
BITMAP
000000
004006
467fff
7f6006
6661c6
666186
666186
666ff6
666186
666186
7e6ff6
666186
666186
666006
6667e6
666666
666666
7ec666
66c666
6087e6
008006
010006
01003e
02000c
ENDCHAR
STARTCHAR 2-14-09
ENCODING 11817
SWIDTH 1000 0
DWIDTH 24 0
BBX 24 24 0 -2
BITMAP
000400
000700
460600
7f0606
66ffff
660c40
661820
661830
66331c
66630f
7efffe
676318
666318
666318
667ff8
666318
666318
666318
7e7ff8
666302
600302
000303
0003ff
0001fe
ENDCHAR
STARTCHAR 2-14-10
ENCODING 11818
SWIDTH 1000 0
DWIDTH 24 0
BBX 24 24 0 -2
BITMAP
0020e0
0030c0
4660c0
7f60c0
6640cc
66cffe
6690e0
6718c0
6630c0
6630c0
7e60c0
6660c0
66e0cc
66effe
6760c0
6660c0
6660c0
6660c0
7e60c0
6660c0
6060c0
0060c6
007fff
006000
ENDCHAR
STARTCHAR 2-14-11
ENCODING 11819
SWIDTH 1000 0
DWIDTH 24 0
BBX 24 24 0 -2
BITMAP
000700
000600
460630
7f7ff8
660c30
660c32
66ffff
660000
662018
663ffc
7e3018
663018
663ff8
663000
6600e0
6620c8
663ffc
6630c0
7e30c0
6630c6
61ffff
0000c0
0000c0
0000c0
ENDCHAR
STARTCHAR 2-14-12
ENCODING 11820
SWIDTH 1000 0
DWIDTH 24 0
BBX 24 24 0 -2
BITMAP
00200c
003ffe
46300c
7f300c
663ffc
66300c
66300c
66300c
663ffc
660000
7e11c0
661d80
66198c
663ffe
663180
666180
664184
66bffe
7e0180
660180
600180
000186
00ffff
000000
ENDCHAR
STARTCHAR 2-14-13
ENCODING 11821
SWIDTH 1000 0
DWIDTH 24 0
BBX 24 24 0 -2
BITMAP
000380
000300
46030c
7f7ffe
660300
660300
660310
667ff8
660680
660680
7e0c46
67ffff
661820
663030
662018
665fff
66986e
671866
7e1fe0
661860
601860
001860
001fe0
001860
ENDCHAR
STARTCHAR 2-14-14
ENCODING 11822
SWIDTH 1000 0
DWIDTH 24 0
BBX 24 24 0 -2
BITMAP
100018
1ffffc
180018
180018
1ffff8
180018
180018
1ffff8
1a0098
0300c0
060180
248920
19c670
0f03c0
060190
0c4308
7feffc
3c678c
20640c
088210
10810c
30c186
e0c187
c0c183
ENDCHAR
STARTCHAR 2-14-15
ENCODING 11823
SWIDTH 1000 0
DWIDTH 24 0
BBX 24 24 0 -2
BITMAP
000200
000380
46230c
7f3ffe
66300c
66300c
663ffc
66300c
66300c
663ffc
7e318c
660180
667dbe
660180
660180
667dbe
660180
660186
7effff
660180
600180
000180
000180
000180
ENDCHAR
STARTCHAR 2-14-16
ENCODING 11824
SWIDTH 1000 0
DWIDTH 24 0
BBX 24 24 0 -2
BITMAP
008006
00ffff
46c000
7ec630
66c636
66ffff
66c630
66c630
66c180
66c186
7effff
66c300
66c600
66c40c
66cffe
66d60c
66e60c
66c60c
7ec7fc
66c60c
60c000
00c006
00ffff
00c000
ENDCHAR
STARTCHAR 2-14-17
ENCODING 11825
SWIDTH 1000 0
DWIDTH 24 0
BBX 24 24 0 -2
BITMAP
001c70
001860
461866
7effff
661860
661860
661fe0
664318
667ffc
666318
7e6318
667ff8
666318
660300
667ffc
660300
660302
66ffff
7e0680
660c40
601860
003038
00c01f
030006
ENDCHAR
STARTCHAR 2-14-18
ENCODING 11826
SWIDTH 1000 0
DWIDTH 24 0
BBX 24 24 0 -2
BITMAP
003840
003070
4c3260
7fff60
4c2060
4c3066
4c207f
4c4448
4dfece
4ce68c
7c808c
4c014c
4cfc4c
4c8c28
4c8c28
4cfc38
4c8c10
4c8c10
7cfc38
4c8c28
408c6c
008c4f
00bc86
008906
ENDCHAR
STARTCHAR 2-14-19
ENCODING 11827
SWIDTH 1000 0
DWIDTH 24 0
BBX 24 24 0 -2
BITMAP
0001c0
000180
460186
7effff
660180
66018c
667ffe
660000
660000
663ffc
7e300c
66300c
663ffc
660830
660630
660646
66ffff
660000
7e200c
663ffe
60300c
00300c
003ffc
00300c
ENDCHAR
STARTCHAR 2-14-20
ENCODING 11828
SWIDTH 1000 0
DWIDTH 24 0
BBX 24 24 0 -2
BITMAP
00c006
ffefff
0c00c0
088088
10c10c
ff6ff6
706786
4e04e0
0cc0cc
ffeffe
0c00c0
0ce0c6
ff1fff
780000
440060
07fff0
060060
060060
07ffe0
060060
060060
060060
07ffe0
060060
ENDCHAR
STARTCHAR 2-14-21
ENCODING 11829
SWIDTH 1000 0
DWIDTH 24 0
BBX 24 24 0 -2
BITMAP
000c06
00fe7f
460000
7f7c3e
664422
66542a
6655aa
660180
66ffff
66c660
7ec660
66fffe
66c666
66c666
66fffe
66c000
66dc60
66d864
7edf6e
669878
609862
017f63
013c7f
02203e
ENDCHAR
STARTCHAR 2-14-22
ENCODING 11830
SWIDTH 1000 0
DWIDTH 24 0
BBX 24 24 0 -2
BITMAP
080030
0ffff8
0c0030
0c0030
0c0030
0ffff0
0c0030
0c0030
0c0030
0ffff0
000000
0000c0
0fffe0
0001c0
000700
001c00
001806
ffffff
001800
001800
001800
001800
00f800
003000
ENDCHAR
STARTCHAR 2-14-23
ENCODING 11831
SWIDTH 1000 0
DWIDTH 24 0
BBX 24 24 0 -2
BITMAP
038070
030060
234464
3fe7fe
330660
330660
330662
ffefff
0600c0
0790f0
0da1b2
19c333
318c1e
c00000
07ffe0
060060
060060
060060
07ffe0
060060
060060
060060
07ffe0
060060
ENDCHAR
STARTCHAR 2-14-24
ENCODING 11832
SWIDTH 1000 0
DWIDTH 24 0
BBX 24 24 0 -2
BITMAP
0c1018
0c1ffc
0c1818
0c1818
0d9ff8
7fd818
0c1818
0c1818
0c1ff8
0c0600
0cc600
ffec06
1c0fff
181806
1839c6
185986
121b06
311ae6
219c66
26d806
f8dfe6
60180c
40007c
000018
ENDCHAR
STARTCHAR 2-14-25
ENCODING 11833
SWIDTH 1000 0
DWIDTH 24 0
BBX 24 24 0 -2
BITMAP
2301c0
3f8180
330180
332186
333fff
333186
333186
3f3186
333366
333236
333436
333806
3331c6
3f3186
333186
333366
333236
333436
333806
233006
233006
633006
4f303e
86300c
ENDCHAR
STARTCHAR 2-14-26
ENCODING 11834
SWIDTH 1000 0
DWIDTH 24 0
BBX 24 24 0 -2
BITMAP
23000c
3f7ffe
330300
330300
330318
333ffc
330618
3f0618
330618
33061a
337fff
330200
330300
3f0606
337fff
330618
330c18
330c30
331fb0
2318e0
2300b0
63031c
4f0c0e
867006
ENDCHAR
STARTCHAR 2-14-27
ENCODING 11835
SWIDTH 1000 0
DWIDTH 24 0
BBX 24 24 0 -2
BITMAP
000206
4033ff
7ffb06
6db306
6db306
6db306
6db306
6df3fe
68f306
703306
603306
69b306
6fb306
6db3fe
6db306
6db306
6db306
7ff206
603606
600406
000c06
001806
00303e
00c00c
ENDCHAR
STARTCHAR 2-14-28
ENCODING 11836
SWIDTH 1000 0
DWIDTH 24 0
BBX 24 24 0 -2
BITMAP
1c0000
18000c
187ffe
180600
180600
1b0600
ff8e00
180c06
18ffff
380c00
3c1c00
3a1800
7b180c
5b1ffe
58300c
98300c
98300c
18001c
180018
180018
180038
180030
1803f0
1800e0
ENDCHAR
STARTCHAR 2-14-29
ENCODING 11837
SWIDTH 1000 0
DWIDTH 24 0
BBX 24 24 0 -2
BITMAP
1c0700
180600
180600
180600
180600
1a0630
ff7ff8
180630
180630
380630
3c0630
3a2630
7b1630
5b0e30
580630
980730
9805b0
180db0
180c30
181832
181832
183033
18603f
19801e
ENDCHAR
STARTCHAR 2-14-30
ENCODING 11838
SWIDTH 1000 0
DWIDTH 24 0
BBX 24 24 0 -2
BITMAP
0e0000
0c000c
0c7ffe
0c0c60
0c0c60
0d8c60
ffcc60
0c0c60
0c0c60
1c0c60
1e0c60
1d0c60
3d8c60
2d8c60
2c0c60
4c0c60
4c0c60
8c1860
0c1862
0c3062
0c3063
0c607f
0cc03e
0d0000
ENDCHAR
STARTCHAR 2-14-31
ENCODING 11839
SWIDTH 1000 0
DWIDTH 24 0
BBX 24 24 0 -2
BITMAP
0e0000
0c000c
0c1ffe
0c000c
0c0018
0d8010
ffc0a0
0c00c0
0c00c0
1c00c0
1e00c6
1d3fff
3d80c0
2d80c0
2c00c0
4c00c0
4c00c0
8c00c0
0c00c0
0c00c0
0c00c0
0c00c0
0c07c0
0c0180
ENDCHAR
STARTCHAR 2-14-32
ENCODING 11840
SWIDTH 1000 0
DWIDTH 24 0
BBX 24 24 0 -2
BITMAP
0e0018
0c007c
0c03e0
0c3f00
0c0300
0d8300
ffc300
0c0300
0c0300
1c0300
1e0306
1d3fff
3d8300
2d8300
2c0300
4c0300
4c0300
8c0300
0c0302
0c0302
0c0302
0c0303
0c03ff
0c01fe
ENDCHAR
STARTCHAR 2-14-33
ENCODING 11841
SWIDTH 1000 0
DWIDTH 24 0
BBX 24 24 0 -2
BITMAP
1c01c0
180180
183980
183180
183180
1b318c
ffb19e
1831ec
18338c
383d8c
3cf18c
3a318c
7b318c
5b318c
58318c
9831bc
983198
183180
183180
183002
183002
183003
183fff
181ffe
ENDCHAR
STARTCHAR 2-14-34
ENCODING 11842
SWIDTH 1000 0
DWIDTH 24 0
BBX 24 24 0 -2
BITMAP
0e0100
0c01c0
0c0180
0c0300
0c0300
0d8206
ffc7ff
0c0406
0c0c06
1c080c
1e120c
1d118c
3da0d8
2d80d8
2c0030
4c0030
4c0060
8c0040
0c00c0
0c0180
0c0300
0c0600
0c1800
0c6000
ENDCHAR
STARTCHAR 2-14-35
ENCODING 11843
SWIDTH 1000 0
DWIDTH 24 0
BBX 24 24 0 -2
BITMAP
1c0820
180e18
180c0c
181806
181806
1b1003
ffa013
182418
184418
380c18
3c1a30
3a0a30
7b0230
5b0160
580160
9801c0
980080
1801c0
180360
180630
180c38
18181c
18600f
180006
ENDCHAR
STARTCHAR 2-14-36
ENCODING 11844
SWIDTH 1000 0
DWIDTH 24 0
BBX 24 24 0 -2
BITMAP
0e01c0
0c0180
0c0180
0c0180
0c0186
0dbfff
ffc180
0c0180
0c0db8
1c0db0
1e0db0
1d8db0
3ccdb0
2ccdb0
2c0db0
4c0db0
4c0db2
8c09b2
0c19b2
0c11b3
0c21bf
0cc19e
0c0180
0c0180
ENDCHAR
STARTCHAR 2-14-37
ENCODING 11845
SWIDTH 1000 0
DWIDTH 24 0
BBX 24 24 0 -2
BITMAP
0e0800
0c0e00
0c0c00
0c0c00
0c0c0c
0d9ffe
ffdb0c
0c1318
0c3310
1c2320
1e4300
1d0300
3d8300
2d8680
2c0680
4c0680
4c0c40
8c0c40
0c1820
0c1830
0c3018
0c601f
0cc00e
0d0006
ENDCHAR
STARTCHAR 2-14-38
ENCODING 11846
SWIDTH 1000 0
DWIDTH 24 0
BBX 24 24 0 -2
BITMAP
0e01c0
0c0180
0c0186
0c019f
0c01f0
0d7f80
ff8180
0c0180
0c398e
1c318c
1e318c
1d318c
3db18c
2db18c
2c318c
4c3ffc
4c318c
8c3180
0c0182
0c0182
0c0182
0c0183
0c01ff
0c00fe
ENDCHAR
STARTCHAR 2-14-39
ENCODING 11847
SWIDTH 1000 0
DWIDTH 24 0
BBX 24 24 0 -2
BITMAP
0e000c
0c003e
0c21f0
0c3fc0
0c30c0
0db0c0
fff0c0
0c30c0
0c30c0
1c30c6
1e3fff
1d30c0
3db0c0
2db0c0
2c30c0
4c3060
4c3060
8c3062
0c3032
0c3032
0c331a
0dfc1f
0ce00f
0c8006
ENDCHAR
STARTCHAR 2-14-40
ENCODING 11848
SWIDTH 1000 0
DWIDTH 24 0
BBX 24 24 0 -2
BITMAP
0e0000
0c100c
0c1ffe
0c1860
0c1860
0d9860
ffd860
0c1860
0c1860
1c1866
1e7fff
1d01e0
3d81e0
2d8360
2c0360
4c0660
4c0660
8c0c60
0c0860
0c1060
0c2060
0c4060
0c83e0
0c00c0
ENDCHAR
STARTCHAR 2-14-41
ENCODING 11849
SWIDTH 1000 0
DWIDTH 24 0
BBX 24 24 0 -2
BITMAP
0701c0
060180
060180
060180
064186
ffefff
060180
060180
36cdb8
36cdb0
36cdb0
36cdb0
36cdb0
36cdb0
36cdb0
36cdb0
36cdb2
2609b2
6619b2
4611b3
8621bf
06c19e
060180
060180
ENDCHAR
STARTCHAR 2-14-42
ENCODING 11850
SWIDTH 1000 0
DWIDTH 24 0
BBX 24 24 0 -2
BITMAP
00e380
00c300
00c306
ffffff
00c300
10c300
100006
3fffff
300006
601c04
601808
001800
00180c
7ffffe
007a00
00f900
01d980
0398c0
071870
0c183f
30181e
c01806
001800
001800
ENDCHAR
STARTCHAR 2-14-43
ENCODING 11851
SWIDTH 1000 0
DWIDTH 24 0
BBX 24 24 0 -2
BITMAP
1c0c00
180380
1800e0
180060
180000
1b0180
ff9fc0
180184
180187
380186
3c0dcc
3a7fc8
7b0dd0
5b0da0
5819a0
9819b0
981190
183198
18218c
18618f
184186
188182
180f80
180300
ENDCHAR
STARTCHAR 2-14-44
ENCODING 11852
SWIDTH 1000 0
DWIDTH 24 0
BBX 24 24 0 -2
BITMAP
1c0000
18000c
183ffe
180180
180180
1b1180
ff9d90
181988
18198c
383186
3c2186
3a4180
7b0180
5b0186
587fff
980180
980180
180180
180180
180180
180180
180180
180180
180180
ENDCHAR
STARTCHAR 2-14-45
ENCODING 11853
SWIDTH 1000 0
DWIDTH 24 0
BBX 24 24 0 -2
BITMAP
004000
007000
006080
004060
008030
3fffd8
1fc01c
10000c
040060
07fff0
060060
060060
060060
07ffe0
060060
001800
001806
ffffff
003c00
007b00
01d9c0
0718f0
1c183f
e0180e
ENDCHAR
STARTCHAR 2-14-46
ENCODING 11854
SWIDTH 1000 0
DWIDTH 24 0
BBX 24 24 0 -2
BITMAP
1c0300
180300
180680
180680
180c40
1b0c60
ff9838
18101f
1820ce
385fe6
3c8000
3a0000
7b0018
5b7ffc
580618
980618
980618
180618
180618
180618
1806f8
180630
180600
180600
ENDCHAR
STARTCHAR 2-14-47
ENCODING 11855
SWIDTH 1000 0
DWIDTH 24 0
BBX 24 24 0 -2
BITMAP
1c01c0
181180
181d90
18198c
181986
1b3187
ffb183
182183
186198
385ffc
3c8180
3a0180
7b0180
5b0180
58018c
987ffe
980180
180180
180180
180180
180180
180180
180180
180180
ENDCHAR
STARTCHAR 2-14-48
ENCODING 11856
SWIDTH 1000 0
DWIDTH 24 0
BBX 24 24 0 -2
BITMAP
080e00
060c06
030c1f
430cf0
300f80
187c00
190c02
020c02
0c0c03
780fff
1807fe
180000
1c1c00
0c1800
001806
ffffff
007a00
00d900
0198c0
031870
0c183f
30181e
c01806
001800
ENDCHAR
STARTCHAR 2-14-49
ENCODING 11857
SWIDTH 1000 0
DWIDTH 24 0
BBX 24 24 0 -2
BITMAP
0e0000
0c1006
0c1fff
0c18c6
0c18c6
0d98c6
ffd8c6
0c18c6
0c1ffe
1c18c6
1e18c6
1d18c6
3d98c6
2d98c6
2c1ffe
4c18c6
4c18c6
8c00c0
0c00c0
0c00c0
0c00c0
0c00c0
0c00c0
0c00c0
ENDCHAR
STARTCHAR 2-14-50
ENCODING 11858
SWIDTH 1000 0
DWIDTH 24 0
BBX 24 24 0 -2
BITMAP
0e00e0
0c00c0
0c00c0
0c00c0
0c10c6
0d9fff
ffd8c6
0c18c6
0c18c6
1c18c6
1e1ffe
1d18c6
3d98c6
2d98c6
2c18c6
4c1ffe
4c18c6
8c18c6
0c00c0
0c00c0
0c00c0
0c00c0
0c00c0
0c00c0
ENDCHAR
STARTCHAR 2-14-51
ENCODING 11859
SWIDTH 1000 0
DWIDTH 24 0
BBX 24 24 0 -2
BITMAP
001c00
001800
001800
001806
ffffff
007c00
00fb00
01d9c0
0398f8
06183f
0c180e
3000c2
c7ffe0
000000
000006
ffffff
001800
039980
031860
061830
0c1818
18181c
60f80c
003000
ENDCHAR
STARTCHAR 2-14-52
ENCODING 11860
SWIDTH 1000 0
DWIDTH 24 0
BBX 24 24 0 -2
BITMAP
0e0000
0c100c
0c1ffe
0c180c
0c180c
0d980c
ffd80c
0c180c
0c180c
1c180c
1e1ffc
1d006c
3d8760
2d8660
2c0660
4c0660
4c0660
8c0c60
0c0c62
0c0862
0c1862
0c1063
0c207f
0cc03e
ENDCHAR
STARTCHAR 2-14-53
ENCODING 11861
SWIDTH 1000 0
DWIDTH 24 0
BBX 24 24 0 -2
BITMAP
1c0400
180700
180600
180600
180606
1affff
ff0c00
180c00
181c70
381860
3c1860
3a3060
7b306c
5b73fe
58b060
983060
983060
183060
183060
183060
183060
183066
1837ff
183000
ENDCHAR
STARTCHAR 2-14-54
ENCODING 11862
SWIDTH 1000 0
DWIDTH 24 0
BBX 24 24 0 -2
BITMAP
1c01c0
180180
180180
182186
183fff
1a6006
ff6004
180000
180030
381ff8
3c0030
3a0020
7b0040
5b0180
580186
98ffff
980180
180180
180180
180180
180180
180180
180f80
180300
ENDCHAR
STARTCHAR 2-14-55
ENCODING 11863
SWIDTH 1000 0
DWIDTH 24 0
BBX 24 24 0 -2
BITMAP
1c01c0
180180
180180
182186
183fff
1a6006
ff6004
180070
180060
380060
3c0066
3a7fff
7b0060
5b0060
581060
980c60
980660
180660
180060
180060
180060
180060
1803e0
1800c0
ENDCHAR
STARTCHAR 2-14-56
ENCODING 11864
SWIDTH 1000 0
DWIDTH 24 0
BBX 24 24 0 -2
BITMAP
0e0200
0c0380
0c030c
0c07fe
0c0c1c
0d1838
ffb470
0c42e0
0c0180
1c0300
1e0c80
1d30c0
3d8186
2d83ff
2c060e
4c0c1c
4c1a18
8c6130
0c0160
0c00c0
0c0180
0c0600
0c1800
0ce000
ENDCHAR
STARTCHAR 2-14-57
ENCODING 11865
SWIDTH 1000 0
DWIDTH 24 0
BBX 24 24 0 -2
BITMAP
1c1010
18081c
180c18
180630
180620
1b004c
ffbffe
180c30
180c30
380c30
3c0c30
3a0c30
7b0c36
5b7fff
580c30
980c30
980c30
180c30
180c30
181830
181830
183030
186030
198030
ENDCHAR
STARTCHAR 2-14-58
ENCODING 11866
SWIDTH 1000 0
DWIDTH 24 0
BBX 24 24 0 -2
BITMAP
1c0000
180006
18ffff
180380
180300
1a0300
ff4206
187fff
186666
386666
3c6666
3a6666
7b6666
5b6666
586666
986666
986666
186666
186666
186666
186666
186666
18601e
18600c
ENDCHAR
STARTCHAR 2-14-59
ENCODING 11867
SWIDTH 1000 0
DWIDTH 24 0
BBX 24 24 0 -2
BITMAP
0e0700
0c0610
0c061c
0c06d8
0c3ff8
0d8630
ffc630
0c0666
0cffff
1c0180
1e0300
1d0606
3dbfff
2d88c0
2c10c0
4c20c0
4c40c0
8c00c0
0c00c0
0c00c0
0c00c0
0c00c0
0c07c0
0c0180
ENDCHAR
STARTCHAR 2-14-60
ENCODING 11868
SWIDTH 1000 0
DWIDTH 24 0
BBX 24 24 0 -2
BITMAP
1c0700
180608
18060e
18061c
187ff8
1b0618
ff8630
180660
1806c6
38ffff
3c0300
3a0600
7b0c00
5b1818
58387c
9859e0
989f00
1b1800
181800
181804
181804
181806
181ffe
180ffc
ENDCHAR
STARTCHAR 2-14-61
ENCODING 11869
SWIDTH 1000 0
DWIDTH 24 0
BBX 24 24 0 -2
BITMAP
1c00e8
1800c4
1800c6
1800c6
1800c0
1a00c6
ff7fff
1800c0
1800c0
3800c0
3c00c0
3a06c0
7b7f60
5b1860
581860
981860
981830
181832
181932
181e1a
18f81a
18700f
18400f
180006
ENDCHAR
STARTCHAR 2-14-62
ENCODING 11870
SWIDTH 1000 0
DWIDTH 24 0
BBX 24 24 0 -2
BITMAP
001c00
001800
001806
ffffff
006300
086300
0e6320
0c6318
18630c
10c306
20c306
419f00
030600
041800
001800
001806
ffffff
007a00
00d900
0198c0
031870
0c183f
30181e
c01806
ENDCHAR
STARTCHAR 2-14-63
ENCODING 11871
SWIDTH 1000 0
DWIDTH 24 0
BBX 24 24 0 -2
BITMAP
1c0380
180308
18430e
18230c
183318
1b3318
ff9b30
181b20
180340
380306
3cffff
3a0c60
7b0c60
5b0c60
580c60
980c60
980c60
181860
181862
181062
183062
182063
18407f
18803e
ENDCHAR
STARTCHAR 2-14-64
ENCODING 11872
SWIDTH 1000 0
DWIDTH 24 0
BBX 24 24 0 -2
BITMAP
0e0800
0c0e00
0c0c30
0c0ff8
0c1860
0d10c0
ffb080
0c2106
0c7fff
1cb000
1e3000
1d3218
3db3fc
2db318
2c3318
4c3318
4c3318
8c3378
0c3330
0c2302
0c2302
0c4303
0c43ff
0c81fe
ENDCHAR
STARTCHAR 2-14-65
ENCODING 11873
SWIDTH 1000 0
DWIDTH 24 0
BBX 24 24 0 -2
BITMAP
1c01c0
180180
180180
182186
183fff
1a6006
ff6004
180208
180380
380300
3c0306
3a7fff
7b0618
5b0618
580618
980c30
980c30
181b60
1818e0
1800c0
1801b0
18031c
180c0e
187006
ENDCHAR
STARTCHAR 2-14-66
ENCODING 11874
SWIDTH 1000 0
DWIDTH 24 0
BBX 24 24 0 -2
BITMAP
001800
001830
001ff8
001800
081830
0ffff8
0c0030
0c0030
0ffff0
0c0030
0c0030
0ffff0
0c1830
001800
001806
ffffff
007a00
00d900
0198c0
031870
0c183f
30181e
c01806
001800
ENDCHAR
STARTCHAR 2-14-67
ENCODING 11875
SWIDTH 1000 0
DWIDTH 24 0
BBX 24 24 0 -2
BITMAP
0e0000
0c0100
0c0380
0c2606
0c387f
0d3006
ffb006
0c3006
0c3006
1c3006
1e3006
1d3206
3dbf7e
2db006
2c3006
4c3006
4c3006
8c3006
0c3006
0c3006
0c3006
0c3ffe
0c3006
0c3006
ENDCHAR
STARTCHAR 2-14-68
ENCODING 11876
SWIDTH 1000 0
DWIDTH 24 0
BBX 24 24 0 -2
BITMAP
0e0030
0c3ff8
0c0630
0c0630
0c0636
0d867f
ffc666
0c0406
0c0c06
1c0806
1e103e
1d200c
3d81c0
2d8186
2c7fff
4c03a0
4c07a0
8c0590
0c0d98
0c098f
0c118e
0c2186
0c4180
0c0180
ENDCHAR
STARTCHAR 2-14-69
ENCODING 11877
SWIDTH 1000 0
DWIDTH 24 0
BBX 24 24 0 -2
BITMAP
0e0000
0c1006
0c1fff
0c18c6
0c18c6
0d98c6
ffdffe
0c18c6
0c18c6
1c18c6
1e1ffe
1d1806
3d81c0
2d8180
2c0186
4c3fff
4c0186
8c0186
0c0306
0c0306
0c060e
0c0c0c
0c187c
0ce018
ENDCHAR
STARTCHAR 2-14-70
ENCODING 11878
SWIDTH 1000 0
DWIDTH 24 0
BBX 24 24 0 -2
BITMAP
1c0070
180060
18c060
186060
186270
1a03e8
ff036c
180366
198266
38d263
3cd663
3a1463
7b2464
5b2867
5821e6
98604e
98400c
19c01c
18c018
186030
186060
1860c0
186100
186600
ENDCHAR
STARTCHAR 2-14-71
ENCODING 11879
SWIDTH 1000 0
DWIDTH 24 0
BBX 24 24 0 -2
BITMAP
0e0000
0c0006
0c7fff
0c00c0
0c0180
0d8180
ffc3b0
0c078c
0c0d86
1c1983
1e6183
1d0180
3d8180
2d8180
2c2006
4c3fff
4c3006
8c3006
0c3006
0c3006
0c3006
0c3ffe
0c3006
0c3006
ENDCHAR
STARTCHAR 2-14-72
ENCODING 11880
SWIDTH 1000 0
DWIDTH 24 0
BBX 24 24 0 -2
BITMAP
1c0000
180006
18ffff
180660
180660
1a0660
ff4666
187e7f
186666
386666
3c6666
3a6666
7b6666
5b6666
587e7e
986666
986666
180660
180660
180c60
180c60
181860
183060
18c060
ENDCHAR
STARTCHAR 2-14-73
ENCODING 11881
SWIDTH 1000 0
DWIDTH 24 0
BBX 24 24 0 -2
BITMAP
001c00
001800
001806
ffffff
00fa00
01d980
0718f0
1c183f
e03c0e
007600
00e300
0181e0
071c7f
1c189e
e318c6
019980
019900
003e00
00db80
0798e0
7e1838
38181c
20f80c
003000
ENDCHAR
STARTCHAR 2-14-74
ENCODING 11882
SWIDTH 1000 0
DWIDTH 24 0
BBX 24 24 0 -2
BITMAP
0e01d8
0c018c
0c018c
0c0180
0c0186
0d7fff
ff8180
0c0180
0c2188
1c118e
1e19cc
1d19c8
3d99d0
2d81a0
2c01a0
4c05a0
4c0990
8c1998
0c319c
0c718f
0ce18e
0c2186
0c0f80
0c0300
ENDCHAR
STARTCHAR 2-14-75
ENCODING 11883
SWIDTH 1000 0
DWIDTH 24 0
BBX 24 24 0 -2
BITMAP
1c38e0
1830c0
1830c0
1830c4
1834ce
1a3ed8
ff30e0
1830c2
1830c2
3830c3
3cfcff
3a707e
7b4000
5b0380
580300
980300
980318
187ffc
180300
180300
180300
180306
19ffff
180000
ENDCHAR
STARTCHAR 2-14-76
ENCODING 11884
SWIDTH 1000 0
DWIDTH 24 0
BBX 24 24 0 -2
BITMAP
0e100c
0c1ffe
0c180c
0c180c
0c180c
0d980c
ffdffc
0c180c
0c180c
1c180c
1e180c
1d1ffc
3d980c
2d980c
2c180c
4c180c
4c180c
8c1ffc
0c0800
0c0e30
0c0c0c
0c1806
0c3007
0cc003
ENDCHAR
STARTCHAR 2-14-77
ENCODING 11885
SWIDTH 1000 0
DWIDTH 24 0
BBX 24 24 0 -2
BITMAP
1c8607
18ff06
18c676
18c666
18c666
1ac666
ffc666
18c666
18fe66
386066
3c6066
3a6666
7b7f66
5b6666
586666
986666
986666
186606
18c606
18ce06
18cc06
188c06
19bc3e
1b180c
ENDCHAR
STARTCHAR 2-14-78
ENCODING 11886
SWIDTH 1000 0
DWIDTH 24 0
BBX 24 24 0 -2
BITMAP
1c0000
182018
183ffc
183018
183018
1b3018
ffbff8
183018
183018
383018
3c3ff8
3a3018
7b3018
5b3018
583ff8
9808d8
980ec0
180cc0
181cc2
1818c2
1830c2
1860c3
18c0ff
1b007e
ENDCHAR
STARTCHAR 2-14-79
ENCODING 11887
SWIDTH 1000 0
DWIDTH 24 0
BBX 24 24 0 -2
BITMAP
1c01c0
180180
180180
18218c
183ffe
1b318c
ffb18c
18318c
18318c
383ffc
3c0180
3a0180
7b4186
5b7fff
586186
986186
986186
186186
187ffe
186186
180180
180180
180180
180180
ENDCHAR
STARTCHAR 2-14-80
ENCODING 11888
SWIDTH 1000 0
DWIDTH 24 0
BBX 24 24 0 -2
BITMAP
0e0800
0c0e00
0c0c60
0c0ff0
0c1860
0d10c0
ffa080
0c410c
0cbffe
1c318c
1e318c
1d318c
3db18c
2db30c
2c3ffc
4c336c
4c0660
8c0660
0c0c60
0c0c62
0c1862
0c3063
0c607f
0d803e
ENDCHAR
STARTCHAR 2-14-81
ENCODING 11889
SWIDTH 1000 0
DWIDTH 24 0
BBX 24 24 0 -2
BITMAP
1c01c0
180180
180180
180186
187fff
1b0180
ff8180
182190
18399c
383198
3c3198
3a3994
7b2db2
5b6da3
5843c3
988340
980340
180660
180620
180c30
181818
18301f
18600e
198006
ENDCHAR
STARTCHAR 2-14-82
ENCODING 11890
SWIDTH 1000 0
DWIDTH 24 0
BBX 24 24 0 -2
BITMAP
0e0000
0c0006
0c7fff
0c0000
0c0000
0d900c
ffdffe
0c180c
0c180c
1c180c
1e180c
1d180c
3d9ffc
2d980c
2c0000
4c1010
4c081c
8c0c18
0c0618
0c0630
0c0620
0c0046
0cffff
0c0000
ENDCHAR
STARTCHAR 2-14-83
ENCODING 11891
SWIDTH 1000 0
DWIDTH 24 0
BBX 24 24 0 -2
BITMAP
1c0018
181ffc
180018
18001a
187fff
1b0018
ff8018
181ff8
180000
382006
3c3fff
3a6006
7b6004
5b0018
583ffc
980818
980830
180460
1806c0
180380
1806e0
180c7f
18301e
18c006
ENDCHAR
STARTCHAR 2-14-84
ENCODING 11892
SWIDTH 1000 0
DWIDTH 24 0
BBX 24 24 0 -2
BITMAP
1c000c
18183e
18fdf0
181830
181030
1b3030
ffb1b0
1821b0
1861b2
384dbf
3c7db0
3a4db0
7b0db0
5b0db0
580db0
9829b0
9829b0
1868ff
18d07f
189000
182c00
1827ff
1843fe
198000
ENDCHAR
STARTCHAR 2-14-85
ENCODING 11893
SWIDTH 1000 0
DWIDTH 24 0
BBX 24 24 0 -2
BITMAP
182120
103120
102120
102124
106ffe
144124
fec124
10c924
114ffc
124924
384920
344920
364926
525fff
505926
905926
904326
104226
104224
10463c
104628
104c20
104820
105020
ENDCHAR
STARTCHAR 2-14-86
ENCODING 11894
SWIDTH 1000 0
DWIDTH 24 0
BBX 24 24 0 -2
BITMAP
018180
018186
ffffff
018180
018180
000040
03ffe0
010040
030020
07fff8
0c60df
3060c6
c0c0c0
0301c0
0c0f80
700300
001c00
001806
ffffff
01d900
0398c0
061870
18183f
e0180e
ENDCHAR
STARTCHAR 2-14-87
ENCODING 11895
SWIDTH 1000 0
DWIDTH 24 0
BBX 24 24 0 -2
BITMAP
0e01c0
0c0180
0c018c
0c3ffe
0c0180
0d8180
ffcdb0
0c0c30
0c0c36
1c7fff
1e0c30
1d0c30
3d8c30
2d8c36
2c7fff
4c0660
4c0660
8c0660
0c0660
0c0c62
0c0c62
0c1863
0c307f
0cc03e
ENDCHAR
STARTCHAR 2-14-88
ENCODING 11896
SWIDTH 1000 0
DWIDTH 24 0
BBX 24 24 0 -2
BITMAP
1c0e38
180c30
180c36
187fff
180c30
1b0c34
ff8db6
180186
180180
384186
3c7fff
3a6180
7b6188
5b608e
5860dc
9860d8
986070
186060
1860e2
1841b2
18c31a
18860f
190807
1a1002
ENDCHAR
STARTCHAR 2-14-89
ENCODING 11897
SWIDTH 1000 0
DWIDTH 24 0
BBX 24 24 0 -2
BITMAP
1c0e70
180c60
180c66
18ffff
180c60
1b0c60
ff8000
18101c
181c18
381818
3c181a
3a37ff
7b3018
5b3018
587218
987118
98b198
183198
183018
183018
183018
183018
1830f8
183030
ENDCHAR
STARTCHAR 2-14-90
ENCODING 11898
SWIDTH 1000 0
DWIDTH 24 0
BBX 24 24 0 -2
BITMAP
00c200
07e380
7e0300
060306
0663ff
fff666
0e0466
1f08c6
1ec0c6
36618e
66630c
86047c
060018
001800
001806
ffffff
007a00
00d900
0198c0
031870
0c183f
30181e
c01806
001800
ENDCHAR
STARTCHAR 2-14-91
ENCODING 11899
SWIDTH 1000 0
DWIDTH 24 0
BBX 24 24 0 -2
BITMAP
1c0030
1803f8
183f00
180300
18030c
1b7ffe
ff8300
180318
183ffc
380318
3c031a
3affff
7b0318
5b0318
583ff8
980798
980780
180f40
181b60
183338
18631f
18c30e
1b0302
180300
ENDCHAR
STARTCHAR 2-14-92
ENCODING 11900
SWIDTH 1000 0
DWIDTH 24 0
BBX 24 24 0 -2
BITMAP
1c0018
1810fc
181f80
181800
181908
1b1884
ffb0c6
1830c6
1820c6
384000
3c01c0
3a0180
7b0186
5b7fff
5803c0
9807a0
9807a0
180d90
180d98
18198c
18318f
186186
198182
180180
ENDCHAR
STARTCHAR 2-14-93
ENCODING 11901
SWIDTH 1000 0
DWIDTH 24 0
BBX 24 24 0 -2
BITMAP
0e1030
0c1ff8
0c1830
0c1830
0c1ff0
0d9830
ffd830
0c1830
0c1ff0
1c0000
1e0006
1d7fff
3d8000
2d8030
2c0032
4cffff
4c0030
8c1030
0c0c30
0c0630
0c0630
0c0030
0c01f0
0c0060
ENDCHAR
STARTCHAR 2-14-94
ENCODING 11902
SWIDTH 1000 0
DWIDTH 24 0
BBX 24 24 0 -2
BITMAP
0e1018
0c1ffc
0c1800
0c1800
0c1830
0d9ff8
ffd800
0c1800
0c1830
1c1ff8
1c1800
1e1800
3d1806
2dffff
2d9908
4c190c
4c1888
8c1890
0c1840
0c1860
0c1b30
0cfc3e
0c701c
0c400c
ENDCHAR
STARTCHAR 2-15-01
ENCODING 12065
SWIDTH 1000 0
DWIDTH 24 0
BBX 24 24 0 -2
BITMAP
1c0018
18003c
1843c0
187c00
186006
1a7fff
ff6006
186006
186006
387ffe
3c6006
3a61b0
7b6198
5b6182
587fff
986180
9861c0
18c340
18c320
188630
198c18
19181c
1a300f
18c006
ENDCHAR
STARTCHAR 2-15-02
ENCODING 12066
SWIDTH 1000 0
DWIDTH 24 0
BBX 24 24 0 -2
BITMAP
1c0e70
180c60
180c60
180c6c
187ffe
1b0c60
ff8c60
180c60
180c60
380c66
3cffff
3a0000
7b2018
5b3ffc
583018
983018
983018
183ff8
183018
183018
183018
183ff8
183018
183018
ENDCHAR
STARTCHAR 2-15-03
ENCODING 12067
SWIDTH 1000 0
DWIDTH 24 0
BBX 24 24 0 -2
BITMAP
1c0070
180860
184c60
182860
183860
1b1066
ffbbff
182860
186c70
384cf0
3c80f0
3a08f8
7b0de8
5b4d6c
58296c
983a66
981267
183c63
182862
186c60
184c60
188060
190060
180060
ENDCHAR
STARTCHAR 2-15-04
ENCODING 12068
SWIDTH 1000 0
DWIDTH 24 0
BBX 24 24 0 -2
BITMAP
0e1200
0c1fb0
0c3b0c
0c3306
0c6303
0d431b
ffbffc
0c0680
0c0680
1c0c46
1e7fff
1d0820
3d9830
2d9018
2c3fff
4c586e
4c9866
8c1860
0c1be0
0c18c8
0c1808
0c180c
0c1ffc
0c0ff8
ENDCHAR
STARTCHAR 2-15-05
ENCODING 12069
SWIDTH 1000 0
DWIDTH 24 0
BBX 24 24 0 -2
BITMAP
1c000c
19fffe
184600
184600
18460c
1a47fe
ff7e8c
18468c
18468c
38468c
3c465c
3a4658
7b7e58
5b4678
584630
984630
984630
184638
1bfe68
19e64c
19068f
180706
180606
180600
ENDCHAR
STARTCHAR 2-15-06
ENCODING 12070
SWIDTH 1000 0
DWIDTH 24 0
BBX 24 24 0 -2
BITMAP
1c0380
180318
1803fc
180300
184306
1a7fff
ff6006
186384
186308
3863e0
3c7f04
3a6306
7b63fe
5b61fc
586000
986400
986770
18c660
18c660
188662
198c62
190c63
1a187f
18603e
ENDCHAR
STARTCHAR 2-15-07
ENCODING 12071
SWIDTH 1000 0
DWIDTH 24 0
BBX 24 24 0 -2
BITMAP
1c2018
183ffc
183018
183018
183018
1b3ff8
ffb018
183018
183018
383ff8
3c3018
3a3018
7b3018
5b3ff8
583018
983018
98301a
18ffff
180000
181040
181c30
183818
18601c
18800c
ENDCHAR
STARTCHAR 2-15-08
ENCODING 12072
SWIDTH 1000 0
DWIDTH 24 0
BBX 24 24 0 -2
BITMAP
1c0018
18007c
1807e0
187f00
180300
1a0306
ff7fff
180640
180440
380c20
3c0830
3a101c
7b270f
5b4606
588602
990600
982688
182644
186646
186663
18c663
18c663
183e00
180c00
ENDCHAR
STARTCHAR 2-15-09
ENCODING 12073
SWIDTH 1000 0
DWIDTH 24 0
BBX 24 24 0 -2
BITMAP
1c0380
180300
180300
18030c
18fffe
1a0680
ff0440
180c60
180830
38101c
3c200f
3a5fe6
7b0000
5b0000
580018
987ffc
980300
182320
183b18
18330c
186306
18c306
190f00
180600
ENDCHAR
STARTCHAR 2-15-10
ENCODING 12074
SWIDTH 1000 0
DWIDTH 24 0
BBX 24 24 0 -2
BITMAP
1c4000
187fff
186000
18640c
1867fe
1a660c
ff660c
1867fc
18660c
38660c
3c67fc
3a6000
7b600c
5b6ffe
586018
98c030
98c0c0
18c0c0
189fff
1980c0
1900c0
1a00c0
1807c0
180180
ENDCHAR
STARTCHAR 2-15-11
ENCODING 12075
SWIDTH 1000 0
DWIDTH 24 0
BBX 24 24 0 -2
BITMAP
1c4006
187fff
186000
1867f8
186618
1a6618
ff67f8
186618
186618
3867f8
3c6180
3a6186
7b7fff
5b6318
586318
9866b0
986660
1860d8
18618c
186e0c
186000
186006
187fff
186000
ENDCHAR
STARTCHAR 2-15-12
ENCODING 12076
SWIDTH 1000 0
DWIDTH 24 0
BBX 24 24 0 -2
BITMAP
020180
0181c0
01820c
7ffffe
000000
1fe39c
186318
1e6318
196318
1e6318
196018
1860f8
18e030
005c00
001800
00180c
7ffffe
003c00
007a00
00d980
0198e0
06187e
18183c
60180c
ENDCHAR
STARTCHAR 2-15-13
ENCODING 12077
SWIDTH 1000 0
DWIDTH 24 0
BBX 24 24 0 -2
BITMAP
1c0006
18ffff
180660
180660
184666
1a7fff
ff6666
186666
186666
386666
3c7ffe
3a6006
7b0700
5b0606
58ffff
980c30
981830
181860
183760
1831c0
1801b0
18031c
180c0e
187006
ENDCHAR
STARTCHAR 2-15-14
ENCODING 12078
SWIDTH 1000 0
DWIDTH 24 0
BBX 24 24 0 -2
BITMAP
1c2006
183bff
183060
183060
186466
1a67ff
ff6666
18e666
18e666
3967fe
3c6666
3a6666
7b6666
5b67fe
586666
986060
986260
186240
186540
1865c0
1860e0
1860bf
18611e
18660c
ENDCHAR
STARTCHAR 2-15-15
ENCODING 12079
SWIDTH 1000 0
DWIDTH 24 0
BBX 24 24 0 -2
BITMAP
1c2018
183ffc
183018
183018
183ff8
1b3018
ffb018
183ff8
183418
380700
3c0e00
3a0c06
7b1fff
5b3006
5861c6
98b186
993306
1836e6
183466
183006
183fee
18300c
18007c
180018
ENDCHAR
STARTCHAR 2-15-16
ENCODING 12080
SWIDTH 1000 0
DWIDTH 24 0
BBX 24 24 0 -2
BITMAP
1c0074
180066
180066
180060
184066
1a7fff
ff6060
186060
186060
387fe4
3c6467
3a6466
7b6466
5b7fec
58652c
986938
986910
186f3a
18422a
18456a
18d94e
188086
188107
190603
ENDCHAR
STARTCHAR 2-15-17
ENCODING 12081
SWIDTH 1000 0
DWIDTH 24 0
BBX 24 24 0 -2
BITMAP
1c000c
181ffe
180018
180230
1801c0
1a00c6
ff7fff
1803c6
1806c4
3806c8
3c0cc0
3a18c0
7b63c0
5b0180
580186
98ffff
9807c0
1807a0
180db0
180d98
18199c
18318f
18c186
180180
ENDCHAR
STARTCHAR 2-15-18
ENCODING 12082
SWIDTH 1000 0
DWIDTH 24 0
BBX 24 24 0 -2
BITMAP
0e0030
0c0078
0c03e0
0c3f80
0c0180
0d0180
ff8182
0c7fff
0c03c0
1c07a0
1e07b0
1d0d9c
3d998f
2db006
2c5ffa
4c9818
4c1818
8c1818
0c1ff8
0c1818
0c1818
0c1818
0c1ff8
0c1818
ENDCHAR
STARTCHAR 2-15-19
ENCODING 12083
SWIDTH 1000 0
DWIDTH 24 0
BBX 24 24 0 -2
BITMAP
1c0606
18ff7f
180606
180606
180606
1a4646
ff7e7e
186060
186060
386666
3c7f7f
3a1616
7b3e3e
5b3636
586666
98cece
991e1e
183e3e
186666
188686
180e0e
180c0c
187c7c
181818
ENDCHAR
STARTCHAR 2-15-20
ENCODING 12084
SWIDTH 1000 0
DWIDTH 24 0
BBX 24 24 0 -2
BITMAP
101800
101806
3fffff
318184
630188
661982
0c34fe
306300
0181c0
060078
1bffdf
e300c6
0300c0
0300c0
03ffc0
001800
001806
ffffff
007a00
00d900
0198c0
061870
18183f
e0180e
ENDCHAR
STARTCHAR 2-15-21
ENCODING 12085
SWIDTH 1000 0
DWIDTH 24 0
BBX 24 24 0 -2
BITMAP
070230
0603f8
063330
fffb30
060330
060330
7ff331
000231
40363f
7ffc1e
c03000
c0200c
3fcffe
00020c
060218
066118
fff1b0
0e00e0
1f0040
1680e0
36c1b8
66c31f
86060e
061806
ENDCHAR
STARTCHAR 2-15-22
ENCODING 12086
SWIDTH 1000 0
DWIDTH 24 0
BBX 24 24 0 -2
BITMAP
100006
1c1fff
188c00
3fcc00
260ffc
460c0c
064c0c
ffec0c
060ffc
060c0c
0d8c00
18cc06
20dfff
c00000
001800
001806
ffffff
007a00
00d900
0198c0
031870
0c183f
30181e
c01806
ENDCHAR
STARTCHAR 2-15-23
ENCODING 12087
SWIDTH 1000 0
DWIDTH 24 0
BBX 24 24 0 -2
BITMAP
0e00c0
0c00c0
0c60c0
fff1a0
0c01a0
4cc310
7fe318
60c60c
60c40f
60c8c6
7fd0c0
60c0c6
60dfff
60c0c0
7fc1e0
6cc1e0
0c03f0
0c63d0
fff6d8
0c06cc
0c0cce
0c18c7
0c60c2
0c00c0
ENDCHAR
ENDFONT
